M48
;DRILL file {KiCad 4.0.4-stable} date 05/29/18 15:17:18
;FORMAT={-:-/ absolute / inch / decimal}
FMAT,2
INCH,TZ
T1C0.016
T2C0.039
%
G90
G05
M72
T1
X6.0591Y-3.4065
X6.4144Y-3.3573
X6.4528Y-3.6329
X6.5955Y-3.5994
X7.2067Y-3.5364
T2
X5.6772Y-3.0384
X5.6772Y-3.1384
X5.6772Y-3.2384
X5.6772Y-3.3384
X5.6772Y-3.4384
X5.6772Y-3.5384
X5.6772Y-3.6384
X5.6772Y-3.7384
X5.6772Y-3.8384
X5.6772Y-3.9384
X5.6772Y-4.0384
X5.9976Y-3.137
X5.9976Y-3.937
X6.0976Y-3.137
X6.0976Y-3.937
X6.1976Y-3.137
X6.1976Y-3.937
X6.2976Y-3.137
X6.2976Y-3.937
X6.3976Y-3.137
X6.3976Y-3.937
X6.4976Y-3.137
X6.4976Y-3.937
X6.5976Y-3.137
X6.5976Y-3.937
X6.6976Y-3.137
X6.6976Y-3.937
X6.7976Y-3.137
X6.7976Y-3.937
X6.8976Y-3.137
X6.8976Y-3.937
X6.9976Y-3.137
X6.9976Y-3.937
X7.0976Y-3.137
X7.0976Y-3.937
X7.1976Y-3.137
X7.1976Y-3.937
X7.2976Y-3.137
X7.2976Y-3.937
X7.3976Y-3.137
X7.3976Y-3.937
X7.4976Y-3.137
X7.4976Y-3.937
T0
M30
