G04 #@! TF.FileFunction,Legend,Bot*
%FSLAX46Y46*%
G04 Gerber Fmt 4.6, Leading zero omitted, Abs format (unit mm)*
G04 Created by KiCad (PCBNEW 4.0.4-stable) date 05/29/18 15:17:11*
%MOMM*%
%LPD*%
G01*
G04 APERTURE LIST*
%ADD10C,0.100000*%
%ADD11C,0.250000*%
G04 APERTURE END LIST*
D10*
D11*
X180702381Y-83465238D02*
X180035714Y-83465238D01*
X179702381Y-83465238D02*
X179750000Y-83417619D01*
X179797619Y-83465238D01*
X179750000Y-83512857D01*
X179702381Y-83465238D01*
X179797619Y-83465238D01*
X180702381Y-84370000D02*
X179702381Y-84370000D01*
X180654762Y-84370000D02*
X180702381Y-84274762D01*
X180702381Y-84084285D01*
X180654762Y-83989047D01*
X180607143Y-83941428D01*
X180511905Y-83893809D01*
X180226190Y-83893809D01*
X180130952Y-83941428D01*
X180083333Y-83989047D01*
X180035714Y-84084285D01*
X180035714Y-84274762D01*
X180083333Y-84370000D01*
X180702381Y-84989047D02*
X180654762Y-84893809D01*
X180559524Y-84846190D01*
X179702381Y-84846190D01*
X180654762Y-85750953D02*
X180702381Y-85655715D01*
X180702381Y-85465238D01*
X180654762Y-85370000D01*
X180559524Y-85322381D01*
X180178571Y-85322381D01*
X180083333Y-85370000D01*
X180035714Y-85465238D01*
X180035714Y-85655715D01*
X180083333Y-85750953D01*
X180178571Y-85798572D01*
X180273810Y-85798572D01*
X180369048Y-85322381D01*
X180702381Y-86227143D02*
X179702381Y-86227143D01*
X180702381Y-86655715D02*
X180178571Y-86655715D01*
X180083333Y-86608096D01*
X180035714Y-86512858D01*
X180035714Y-86370000D01*
X180083333Y-86274762D01*
X180130952Y-86227143D01*
X180702381Y-87560477D02*
X180178571Y-87560477D01*
X180083333Y-87512858D01*
X180035714Y-87417620D01*
X180035714Y-87227143D01*
X180083333Y-87131905D01*
X180654762Y-87560477D02*
X180702381Y-87465239D01*
X180702381Y-87227143D01*
X180654762Y-87131905D01*
X180559524Y-87084286D01*
X180464286Y-87084286D01*
X180369048Y-87131905D01*
X180321429Y-87227143D01*
X180321429Y-87465239D01*
X180273810Y-87560477D01*
X180035714Y-88036667D02*
X180702381Y-88036667D01*
X180130952Y-88036667D02*
X180083333Y-88084286D01*
X180035714Y-88179524D01*
X180035714Y-88322382D01*
X180083333Y-88417620D01*
X180178571Y-88465239D01*
X180702381Y-88465239D01*
X180702381Y-89370001D02*
X179702381Y-89370001D01*
X180654762Y-89370001D02*
X180702381Y-89274763D01*
X180702381Y-89084286D01*
X180654762Y-88989048D01*
X180607143Y-88941429D01*
X180511905Y-88893810D01*
X180226190Y-88893810D01*
X180130952Y-88941429D01*
X180083333Y-88989048D01*
X180035714Y-89084286D01*
X180035714Y-89274763D01*
X180083333Y-89370001D01*
X180654762Y-89798572D02*
X180702381Y-89893810D01*
X180702381Y-90084286D01*
X180654762Y-90179525D01*
X180559524Y-90227144D01*
X180511905Y-90227144D01*
X180416667Y-90179525D01*
X180369048Y-90084286D01*
X180369048Y-89941429D01*
X180321429Y-89846191D01*
X180226190Y-89798572D01*
X180178571Y-89798572D01*
X180083333Y-89846191D01*
X180035714Y-89941429D01*
X180035714Y-90084286D01*
X180083333Y-90179525D01*
X180702381Y-91084287D02*
X179702381Y-91084287D01*
X180654762Y-91084287D02*
X180702381Y-90989049D01*
X180702381Y-90798572D01*
X180654762Y-90703334D01*
X180607143Y-90655715D01*
X180511905Y-90608096D01*
X180226190Y-90608096D01*
X180130952Y-90655715D01*
X180083333Y-90703334D01*
X180035714Y-90798572D01*
X180035714Y-90989049D01*
X180083333Y-91084287D01*
X180654762Y-91941430D02*
X180702381Y-91846192D01*
X180702381Y-91655715D01*
X180654762Y-91560477D01*
X180559524Y-91512858D01*
X180178571Y-91512858D01*
X180083333Y-91560477D01*
X180035714Y-91655715D01*
X180035714Y-91846192D01*
X180083333Y-91941430D01*
X180178571Y-91989049D01*
X180273810Y-91989049D01*
X180369048Y-91512858D01*
X180035714Y-92322382D02*
X180702381Y-92560477D01*
X180035714Y-92798573D01*
X180607143Y-93179525D02*
X180654762Y-93227144D01*
X180702381Y-93179525D01*
X180654762Y-93131906D01*
X180607143Y-93179525D01*
X180702381Y-93179525D01*
X180654762Y-94084287D02*
X180702381Y-93989049D01*
X180702381Y-93798572D01*
X180654762Y-93703334D01*
X180607143Y-93655715D01*
X180511905Y-93608096D01*
X180226190Y-93608096D01*
X180130952Y-93655715D01*
X180083333Y-93703334D01*
X180035714Y-93798572D01*
X180035714Y-93989049D01*
X180083333Y-94084287D01*
X180702381Y-94655715D02*
X180654762Y-94560477D01*
X180607143Y-94512858D01*
X180511905Y-94465239D01*
X180226190Y-94465239D01*
X180130952Y-94512858D01*
X180083333Y-94560477D01*
X180035714Y-94655715D01*
X180035714Y-94798573D01*
X180083333Y-94893811D01*
X180130952Y-94941430D01*
X180226190Y-94989049D01*
X180511905Y-94989049D01*
X180607143Y-94941430D01*
X180654762Y-94893811D01*
X180702381Y-94798573D01*
X180702381Y-94655715D01*
X180702381Y-95417620D02*
X180035714Y-95417620D01*
X180130952Y-95417620D02*
X180083333Y-95465239D01*
X180035714Y-95560477D01*
X180035714Y-95703335D01*
X180083333Y-95798573D01*
X180178571Y-95846192D01*
X180702381Y-95846192D01*
X180178571Y-95846192D02*
X180083333Y-95893811D01*
X180035714Y-95989049D01*
X180035714Y-96131906D01*
X180083333Y-96227144D01*
X180178571Y-96274763D01*
X180702381Y-96274763D01*
X182452381Y-83084285D02*
X181452381Y-83084285D01*
X181833333Y-83084285D02*
X181785714Y-83179523D01*
X181785714Y-83370000D01*
X181833333Y-83465238D01*
X181880952Y-83512857D01*
X181976190Y-83560476D01*
X182261905Y-83560476D01*
X182357143Y-83512857D01*
X182404762Y-83465238D01*
X182452381Y-83370000D01*
X182452381Y-83179523D01*
X182404762Y-83084285D01*
X182452381Y-83989047D02*
X181785714Y-83989047D01*
X181452381Y-83989047D02*
X181500000Y-83941428D01*
X181547619Y-83989047D01*
X181500000Y-84036666D01*
X181452381Y-83989047D01*
X181547619Y-83989047D01*
X181785714Y-84322380D02*
X181785714Y-84703332D01*
X181452381Y-84465237D02*
X182309524Y-84465237D01*
X182404762Y-84512856D01*
X182452381Y-84608094D01*
X182452381Y-84703332D01*
X182357143Y-85036666D02*
X182404762Y-85084285D01*
X182452381Y-85036666D01*
X182404762Y-84989047D01*
X182357143Y-85036666D01*
X182452381Y-85036666D01*
X182452381Y-85655713D02*
X182404762Y-85560475D01*
X182309524Y-85512856D01*
X181452381Y-85512856D01*
X181785714Y-85941428D02*
X182452381Y-86179523D01*
X181785714Y-86417619D02*
X182452381Y-86179523D01*
X182690476Y-86084285D01*
X182738095Y-86036666D01*
X182785714Y-85941428D01*
X181404762Y-87512857D02*
X182690476Y-86655714D01*
X182404762Y-87798571D02*
X182452381Y-87893809D01*
X182452381Y-88084285D01*
X182404762Y-88179524D01*
X182309524Y-88227143D01*
X182261905Y-88227143D01*
X182166667Y-88179524D01*
X182119048Y-88084285D01*
X182119048Y-87941428D01*
X182071429Y-87846190D01*
X181976190Y-87798571D01*
X181928571Y-87798571D01*
X181833333Y-87846190D01*
X181785714Y-87941428D01*
X181785714Y-88084285D01*
X181833333Y-88179524D01*
X182404762Y-89036667D02*
X182452381Y-88941429D01*
X182452381Y-88750952D01*
X182404762Y-88655714D01*
X182309524Y-88608095D01*
X181928571Y-88608095D01*
X181833333Y-88655714D01*
X181785714Y-88750952D01*
X181785714Y-88941429D01*
X181833333Y-89036667D01*
X181928571Y-89084286D01*
X182023810Y-89084286D01*
X182119048Y-88608095D01*
X182452381Y-89941429D02*
X181928571Y-89941429D01*
X181833333Y-89893810D01*
X181785714Y-89798572D01*
X181785714Y-89608095D01*
X181833333Y-89512857D01*
X182404762Y-89941429D02*
X182452381Y-89846191D01*
X182452381Y-89608095D01*
X182404762Y-89512857D01*
X182309524Y-89465238D01*
X182214286Y-89465238D01*
X182119048Y-89512857D01*
X182071429Y-89608095D01*
X182071429Y-89846191D01*
X182023810Y-89941429D01*
X181785714Y-90417619D02*
X182452381Y-90417619D01*
X181880952Y-90417619D02*
X181833333Y-90465238D01*
X181785714Y-90560476D01*
X181785714Y-90703334D01*
X181833333Y-90798572D01*
X181928571Y-90846191D01*
X182452381Y-90846191D01*
X182452381Y-91322381D02*
X181452381Y-91322381D01*
X182452381Y-91750953D02*
X181928571Y-91750953D01*
X181833333Y-91703334D01*
X181785714Y-91608096D01*
X181785714Y-91465238D01*
X181833333Y-91370000D01*
X181880952Y-91322381D01*
X182452381Y-92370000D02*
X182404762Y-92274762D01*
X182357143Y-92227143D01*
X182261905Y-92179524D01*
X181976190Y-92179524D01*
X181880952Y-92227143D01*
X181833333Y-92274762D01*
X181785714Y-92370000D01*
X181785714Y-92512858D01*
X181833333Y-92608096D01*
X181880952Y-92655715D01*
X181976190Y-92703334D01*
X182261905Y-92703334D01*
X182357143Y-92655715D01*
X182404762Y-92608096D01*
X182452381Y-92512858D01*
X182452381Y-92370000D01*
X182452381Y-93560477D02*
X181452381Y-93560477D01*
X182404762Y-93560477D02*
X182452381Y-93465239D01*
X182452381Y-93274762D01*
X182404762Y-93179524D01*
X182357143Y-93131905D01*
X182261905Y-93084286D01*
X181976190Y-93084286D01*
X181880952Y-93131905D01*
X181833333Y-93179524D01*
X181785714Y-93274762D01*
X181785714Y-93465239D01*
X181833333Y-93560477D01*
X181785714Y-94465239D02*
X182595238Y-94465239D01*
X182690476Y-94417620D01*
X182738095Y-94370001D01*
X182785714Y-94274762D01*
X182785714Y-94131905D01*
X182738095Y-94036667D01*
X182404762Y-94465239D02*
X182452381Y-94370001D01*
X182452381Y-94179524D01*
X182404762Y-94084286D01*
X182357143Y-94036667D01*
X182261905Y-93989048D01*
X181976190Y-93989048D01*
X181880952Y-94036667D01*
X181833333Y-94084286D01*
X181785714Y-94179524D01*
X181785714Y-94370001D01*
X181833333Y-94465239D01*
X182452381Y-94941429D02*
X181785714Y-94941429D01*
X181452381Y-94941429D02*
X181500000Y-94893810D01*
X181547619Y-94941429D01*
X181500000Y-94989048D01*
X181452381Y-94941429D01*
X181547619Y-94941429D01*
X181785714Y-95417619D02*
X182452381Y-95417619D01*
X181880952Y-95417619D02*
X181833333Y-95465238D01*
X181785714Y-95560476D01*
X181785714Y-95703334D01*
X181833333Y-95798572D01*
X181928571Y-95846191D01*
X182452381Y-95846191D01*
X182404762Y-96274762D02*
X182452381Y-96370000D01*
X182452381Y-96560476D01*
X182404762Y-96655715D01*
X182309524Y-96703334D01*
X182261905Y-96703334D01*
X182166667Y-96655715D01*
X182119048Y-96560476D01*
X182119048Y-96417619D01*
X182071429Y-96322381D01*
X181976190Y-96274762D01*
X181928571Y-96274762D01*
X181833333Y-96322381D01*
X181785714Y-96417619D01*
X181785714Y-96560476D01*
X181833333Y-96655715D01*
M02*
