G04 #@! TF.FileFunction,Copper,L1,Top,Signal*
%FSLAX46Y46*%
G04 Gerber Fmt 4.6, Leading zero omitted, Abs format (unit mm)*
G04 Created by KiCad (PCBNEW 4.0.4-stable) date 05/29/18 15:17:11*
%MOMM*%
%LPD*%
G01*
G04 APERTURE LIST*
%ADD10C,0.100000*%
%ADD11R,1.000000X1.250000*%
%ADD12R,1.700000X1.700000*%
%ADD13O,1.700000X1.700000*%
%ADD14R,0.250000X1.300000*%
%ADD15R,1.300000X0.250000*%
%ADD16C,0.600000*%
%ADD17C,0.250000*%
%ADD18C,0.400000*%
%ADD19C,0.254000*%
G04 APERTURE END LIST*
D10*
D11*
X159150000Y-86550000D03*
X161150000Y-86550000D03*
X157500000Y-86550000D03*
X155500000Y-86550000D03*
D12*
X144200000Y-77175000D03*
D13*
X144200000Y-79715000D03*
X144200000Y-82255000D03*
X144200000Y-84795000D03*
X144200000Y-87335000D03*
X144200000Y-89875000D03*
X144200000Y-92415000D03*
X144200000Y-94955000D03*
X144200000Y-97495000D03*
X144200000Y-100035000D03*
X144200000Y-102575000D03*
D14*
X172900000Y-85490000D03*
X172400000Y-85490000D03*
X171900000Y-85490000D03*
X171400000Y-85490000D03*
X170900000Y-85490000D03*
X170400000Y-85490000D03*
X169900000Y-85490000D03*
X169400000Y-85490000D03*
X168900000Y-85490000D03*
X168400000Y-85490000D03*
X167900000Y-85490000D03*
X167400000Y-85490000D03*
D15*
X165800000Y-87090000D03*
X165800000Y-87590000D03*
X165800000Y-88090000D03*
X165800000Y-88590000D03*
X165800000Y-89090000D03*
X165800000Y-89590000D03*
X165800000Y-90090000D03*
X165800000Y-90590000D03*
X165800000Y-91090000D03*
X165800000Y-91590000D03*
X165800000Y-92090000D03*
X165800000Y-92590000D03*
D14*
X167400000Y-94190000D03*
X167900000Y-94190000D03*
X168400000Y-94190000D03*
X168900000Y-94190000D03*
X169400000Y-94190000D03*
X169900000Y-94190000D03*
X170400000Y-94190000D03*
X170900000Y-94190000D03*
X171400000Y-94190000D03*
X171900000Y-94190000D03*
X172400000Y-94190000D03*
X172900000Y-94190000D03*
D15*
X174500000Y-92590000D03*
X174500000Y-92090000D03*
X174500000Y-91590000D03*
X174500000Y-91090000D03*
X174500000Y-90590000D03*
X174500000Y-90090000D03*
X174500000Y-89590000D03*
X174500000Y-89090000D03*
X174500000Y-88590000D03*
X174500000Y-88090000D03*
X174500000Y-87590000D03*
X174500000Y-87090000D03*
D12*
X152340000Y-79680000D03*
D13*
X154880000Y-79680000D03*
X157420000Y-79680000D03*
X159960000Y-79680000D03*
X162500000Y-79680000D03*
X165040000Y-79680000D03*
X167580000Y-79680000D03*
X170120000Y-79680000D03*
X172660000Y-79680000D03*
X175200000Y-79680000D03*
X177740000Y-79680000D03*
X180280000Y-79680000D03*
X182820000Y-79680000D03*
X185360000Y-79680000D03*
X187900000Y-79680000D03*
X190440000Y-79680000D03*
D12*
X152340000Y-100000000D03*
D13*
X154880000Y-100000000D03*
X157420000Y-100000000D03*
X159960000Y-100000000D03*
X162500000Y-100000000D03*
X165040000Y-100000000D03*
X167580000Y-100000000D03*
X170120000Y-100000000D03*
X172660000Y-100000000D03*
X175200000Y-100000000D03*
X177740000Y-100000000D03*
X180280000Y-100000000D03*
X182820000Y-100000000D03*
X185360000Y-100000000D03*
X187900000Y-100000000D03*
X190440000Y-100000000D03*
D16*
X183050000Y-89825000D03*
X162925000Y-85275000D03*
X153900000Y-86525000D03*
X167525000Y-91425000D03*
X163900000Y-92275000D03*
D17*
X159225001Y-87500001D02*
X162725000Y-87500001D01*
X162725000Y-87500001D02*
X164489999Y-87500001D01*
X165800000Y-87590000D02*
X164900000Y-87590000D01*
X164900000Y-87590000D02*
X164810001Y-87500001D01*
X164810001Y-87500001D02*
X162725000Y-87500001D01*
X159150000Y-86550000D02*
X159150000Y-87425000D01*
X159150000Y-87425000D02*
X159225001Y-87500001D01*
X164489999Y-87500001D02*
X164900000Y-87090000D01*
X164900000Y-87090000D02*
X165800000Y-87090000D01*
D18*
X157500000Y-86550000D02*
X159150000Y-86550000D01*
X144200000Y-77175000D02*
X145450000Y-77175000D01*
X145450000Y-77175000D02*
X153799999Y-85524999D01*
X153799999Y-85524999D02*
X156600000Y-85525000D01*
X156600000Y-85525000D02*
X157500000Y-86425000D01*
X157500000Y-86425000D02*
X157500000Y-86550000D01*
D17*
X161150000Y-86550000D02*
X161650000Y-86550000D01*
X161650000Y-86550000D02*
X162925000Y-85275000D01*
X155500000Y-86550000D02*
X153925000Y-86550000D01*
X153925000Y-86550000D02*
X153900000Y-86525000D01*
X165800000Y-92590000D02*
X166360000Y-92590000D01*
X166360000Y-92590000D02*
X167525000Y-91425000D01*
X165800000Y-92090000D02*
X166860000Y-92090000D01*
X166860000Y-92090000D02*
X167525000Y-91425000D01*
X165800000Y-92590000D02*
X164215000Y-92590000D01*
X164215000Y-92590000D02*
X163900000Y-92275000D01*
X165800000Y-92090000D02*
X164085000Y-92090000D01*
X164085000Y-92090000D02*
X163900000Y-92275000D01*
X164900000Y-90590000D02*
X165800000Y-90590000D01*
X148565000Y-90590000D02*
X164900000Y-90590000D01*
X144200000Y-94955000D02*
X148565000Y-90590000D01*
X165800000Y-91090000D02*
X150605000Y-91090000D01*
X150605000Y-91090000D02*
X144200000Y-97495000D01*
X144200000Y-100035000D02*
X145402081Y-100035000D01*
X145402081Y-100035000D02*
X153847081Y-91590000D01*
X153847081Y-91590000D02*
X164900000Y-91590000D01*
X164900000Y-91590000D02*
X165800000Y-91590000D01*
X144200000Y-82255000D02*
X145049999Y-83104999D01*
X145049999Y-83104999D02*
X148929999Y-83104999D01*
X148929999Y-83104999D02*
X153915000Y-88090000D01*
X153915000Y-88090000D02*
X165800000Y-88090000D01*
X144200000Y-84795000D02*
X147995000Y-88590000D01*
X147995000Y-88590000D02*
X165800000Y-88590000D01*
X144200000Y-87335000D02*
X145049999Y-88184999D01*
X145049999Y-88184999D02*
X146953589Y-88184999D01*
X146953589Y-88184999D02*
X147858590Y-89090000D01*
X147858590Y-89090000D02*
X164900000Y-89090000D01*
X164900000Y-89090000D02*
X165800000Y-89090000D01*
X164900000Y-89590000D02*
X165800000Y-89590000D01*
X145687081Y-89590000D02*
X164900000Y-89590000D01*
X145402081Y-89875000D02*
X145687081Y-89590000D01*
X144200000Y-89875000D02*
X145402081Y-89875000D01*
X146525000Y-90090000D02*
X164900000Y-90090000D01*
X164900000Y-90090000D02*
X165800000Y-90090000D01*
X144200000Y-92415000D02*
X146525000Y-90090000D01*
X144200000Y-102575000D02*
X153560001Y-93214999D01*
X153560001Y-93214999D02*
X169975001Y-93214999D01*
X169975001Y-93214999D02*
X173600000Y-89590000D01*
X173600000Y-89590000D02*
X174500000Y-89590000D01*
X167035000Y-84225000D02*
X155785000Y-84225000D01*
X155785000Y-84225000D02*
X152340000Y-80780000D01*
X152340000Y-80780000D02*
X152340000Y-79680000D01*
X167400000Y-85490000D02*
X167400000Y-84590000D01*
X167400000Y-84590000D02*
X167035000Y-84225000D01*
X167196410Y-83750000D02*
X158950000Y-83750000D01*
X158950000Y-83750000D02*
X154880000Y-79680000D01*
X167900000Y-85490000D02*
X167900000Y-84453590D01*
X167900000Y-84453590D02*
X167196410Y-83750000D01*
X167232820Y-83150000D02*
X160890000Y-83150000D01*
X160890000Y-83150000D02*
X157420000Y-79680000D01*
X168400000Y-85490000D02*
X168400000Y-84317180D01*
X168400000Y-84317180D02*
X167232820Y-83150000D01*
X167219230Y-82500000D02*
X162780000Y-82500000D01*
X162780000Y-82500000D02*
X159960000Y-79680000D01*
X168900000Y-85490000D02*
X168900000Y-84180770D01*
X168900000Y-84180770D02*
X167219230Y-82500000D01*
X167030640Y-81675000D02*
X164495000Y-81675000D01*
X164495000Y-81675000D02*
X162500000Y-79680000D01*
X169400000Y-85490000D02*
X169400000Y-84044360D01*
X169400000Y-84044360D02*
X167030640Y-81675000D01*
X169900000Y-85490000D02*
X169900000Y-83907950D01*
X167117361Y-81125311D02*
X166485311Y-81125311D01*
X169900000Y-83907950D02*
X167117361Y-81125311D01*
X166485311Y-81125311D02*
X165040000Y-79680000D01*
X170400000Y-85490000D02*
X170400000Y-82500000D01*
X170400000Y-82500000D02*
X167580000Y-79680000D01*
X170900000Y-85490000D02*
X170900000Y-80460000D01*
X170900000Y-80460000D02*
X170120000Y-79680000D01*
X171400000Y-85490000D02*
X171400000Y-80940000D01*
X171400000Y-80940000D02*
X172660000Y-79680000D01*
X171900000Y-85490000D02*
X171900000Y-82980000D01*
X171900000Y-82980000D02*
X175200000Y-79680000D01*
X172400000Y-85490000D02*
X172400000Y-84590000D01*
X172400000Y-84590000D02*
X176460001Y-80529999D01*
X176460001Y-80529999D02*
X176890001Y-80529999D01*
X176890001Y-80529999D02*
X177740000Y-79680000D01*
X173840000Y-84025000D02*
X175935000Y-84025000D01*
X175935000Y-84025000D02*
X180280000Y-79680000D01*
X172900000Y-85490000D02*
X172900000Y-84965000D01*
X172900000Y-84965000D02*
X173840000Y-84025000D01*
X174500000Y-87090000D02*
X175410000Y-87090000D01*
X175410000Y-87090000D02*
X182820000Y-79680000D01*
X174500000Y-87590000D02*
X177450000Y-87590000D01*
X177450000Y-87590000D02*
X185360000Y-79680000D01*
X174500000Y-88090000D02*
X179490000Y-88090000D01*
X179490000Y-88090000D02*
X187900000Y-79680000D01*
X174500000Y-88590000D02*
X181530000Y-88590000D01*
X181530000Y-88590000D02*
X190440000Y-79680000D01*
X166940000Y-95550000D02*
X155690000Y-95550000D01*
X155690000Y-95550000D02*
X152340000Y-98900000D01*
X152340000Y-98900000D02*
X152340000Y-100000000D01*
X167400000Y-94190000D02*
X167400000Y-95090000D01*
X167400000Y-95090000D02*
X166940000Y-95550000D01*
X167126400Y-96000010D02*
X158879990Y-96000010D01*
X158879990Y-96000010D02*
X154880000Y-100000000D01*
X167900000Y-94190000D02*
X167900000Y-95226410D01*
X167900000Y-95226410D02*
X167126400Y-96000010D01*
X167112820Y-96650000D02*
X160770000Y-96650000D01*
X160770000Y-96650000D02*
X157420000Y-100000000D01*
X168400000Y-94190000D02*
X168400000Y-95362820D01*
X168400000Y-95362820D02*
X167112820Y-96650000D01*
X166974230Y-97425000D02*
X162535000Y-97425000D01*
X162535000Y-97425000D02*
X159960000Y-100000000D01*
X168900000Y-94190000D02*
X168900000Y-95499230D01*
X168900000Y-95499230D02*
X166974230Y-97425000D01*
X167060640Y-97975000D02*
X164525000Y-97975000D01*
X164525000Y-97975000D02*
X162500000Y-100000000D01*
X169400000Y-94190000D02*
X169400000Y-95635640D01*
X169400000Y-95635640D02*
X167060640Y-97975000D01*
X169900000Y-94190000D02*
X169900000Y-95772050D01*
X169900000Y-95772050D02*
X166522049Y-99150001D01*
X166522049Y-99150001D02*
X165889999Y-99150001D01*
X165889999Y-99150001D02*
X165040000Y-100000000D01*
X170400000Y-94190000D02*
X170400000Y-97180000D01*
X170400000Y-97180000D02*
X167580000Y-100000000D01*
X170900000Y-94190000D02*
X170900000Y-95090000D01*
X170900000Y-95090000D02*
X170969999Y-95159999D01*
X170969999Y-95159999D02*
X170969999Y-99150001D01*
X170969999Y-99150001D02*
X170120000Y-100000000D01*
X171400000Y-94190000D02*
X171400000Y-94525000D01*
X171400000Y-94525000D02*
X171449999Y-94574999D01*
X171449999Y-94574999D02*
X171449999Y-98789999D01*
X171449999Y-98789999D02*
X171810001Y-99150001D01*
X171810001Y-99150001D02*
X172660000Y-100000000D01*
X171900000Y-94190000D02*
X171900000Y-96700000D01*
X171900000Y-96700000D02*
X175200000Y-100000000D01*
X175360000Y-98050000D02*
X175790000Y-98050000D01*
X175790000Y-98050000D02*
X177740000Y-100000000D01*
X172400000Y-94190000D02*
X172400000Y-95090000D01*
X172400000Y-95090000D02*
X175360000Y-98050000D01*
X174225000Y-96040000D02*
X176320000Y-96040000D01*
X176320000Y-96040000D02*
X180280000Y-100000000D01*
X172900000Y-94190000D02*
X172900000Y-94715000D01*
X172900000Y-94715000D02*
X174225000Y-96040000D01*
X176110000Y-93300000D02*
X176120000Y-93300000D01*
X176120000Y-93300000D02*
X182820000Y-100000000D01*
X174500000Y-92590000D02*
X175400000Y-92590000D01*
X175400000Y-92590000D02*
X176110000Y-93300000D01*
X174500000Y-92090000D02*
X175536410Y-92090000D01*
X175536410Y-92090000D02*
X176296400Y-92849990D01*
X176296400Y-92849990D02*
X178209990Y-92849990D01*
X178209990Y-92849990D02*
X184510001Y-99150001D01*
X184510001Y-99150001D02*
X185360000Y-100000000D01*
X174500000Y-91590000D02*
X179490000Y-91590000D01*
X179490000Y-91590000D02*
X187900000Y-100000000D01*
X174500000Y-91090000D02*
X181530000Y-91090000D01*
X181530000Y-91090000D02*
X190440000Y-100000000D01*
D19*
G36*
X164611673Y-92105301D02*
X164534403Y-92291847D01*
X164515000Y-92311250D01*
X164515000Y-92368750D01*
X164534403Y-92388153D01*
X164611673Y-92574699D01*
X164689474Y-92652500D01*
X164673750Y-92652500D01*
X164563251Y-92762999D01*
X153560001Y-92762999D01*
X153387028Y-92797405D01*
X153240388Y-92895387D01*
X144652379Y-101483397D01*
X144223059Y-101398000D01*
X144176941Y-101398000D01*
X143726523Y-101487594D01*
X143344676Y-101742735D01*
X143232000Y-101911367D01*
X143232000Y-100698633D01*
X143344676Y-100867265D01*
X143726523Y-101122406D01*
X144176941Y-101212000D01*
X144223059Y-101212000D01*
X144673477Y-101122406D01*
X145055324Y-100867265D01*
X145309408Y-100487000D01*
X145402081Y-100487000D01*
X145575054Y-100452594D01*
X145721693Y-100354612D01*
X154034306Y-92042000D01*
X164674974Y-92042000D01*
X164611673Y-92105301D01*
X164611673Y-92105301D01*
G37*
X164611673Y-92105301D02*
X164534403Y-92291847D01*
X164515000Y-92311250D01*
X164515000Y-92368750D01*
X164534403Y-92388153D01*
X164611673Y-92574699D01*
X164689474Y-92652500D01*
X164673750Y-92652500D01*
X164563251Y-92762999D01*
X153560001Y-92762999D01*
X153387028Y-92797405D01*
X153240388Y-92895387D01*
X144652379Y-101483397D01*
X144223059Y-101398000D01*
X144176941Y-101398000D01*
X143726523Y-101487594D01*
X143344676Y-101742735D01*
X143232000Y-101911367D01*
X143232000Y-100698633D01*
X143344676Y-100867265D01*
X143726523Y-101122406D01*
X144176941Y-101212000D01*
X144223059Y-101212000D01*
X144673477Y-101122406D01*
X145055324Y-100867265D01*
X145309408Y-100487000D01*
X145402081Y-100487000D01*
X145575054Y-100452594D01*
X145721693Y-100354612D01*
X154034306Y-92042000D01*
X164674974Y-92042000D01*
X164611673Y-92105301D01*
G36*
X191368000Y-99287954D02*
X191272265Y-99144676D01*
X190890418Y-98889535D01*
X190440000Y-98799941D01*
X189989582Y-98889535D01*
X189977100Y-98897876D01*
X181849612Y-90770388D01*
X181702973Y-90672406D01*
X181530000Y-90638000D01*
X175483406Y-90638000D01*
X175483406Y-90465000D01*
X175460605Y-90343821D01*
X175458105Y-90339937D01*
X175483406Y-90215000D01*
X175483406Y-89965000D01*
X175460605Y-89843821D01*
X175458105Y-89839937D01*
X175483406Y-89715000D01*
X175483406Y-89465000D01*
X175460605Y-89343821D01*
X175458105Y-89339937D01*
X175483406Y-89215000D01*
X175483406Y-89042000D01*
X181530000Y-89042000D01*
X181702973Y-89007594D01*
X181849612Y-88909612D01*
X189977100Y-80782124D01*
X189989582Y-80790465D01*
X190440000Y-80880059D01*
X190890418Y-80790465D01*
X191272265Y-80535324D01*
X191368000Y-80392046D01*
X191368000Y-99287954D01*
X191368000Y-99287954D01*
G37*
X191368000Y-99287954D02*
X191272265Y-99144676D01*
X190890418Y-98889535D01*
X190440000Y-98799941D01*
X189989582Y-98889535D01*
X189977100Y-98897876D01*
X181849612Y-90770388D01*
X181702973Y-90672406D01*
X181530000Y-90638000D01*
X175483406Y-90638000D01*
X175483406Y-90465000D01*
X175460605Y-90343821D01*
X175458105Y-90339937D01*
X175483406Y-90215000D01*
X175483406Y-89965000D01*
X175460605Y-89843821D01*
X175458105Y-89839937D01*
X175483406Y-89715000D01*
X175483406Y-89465000D01*
X175460605Y-89343821D01*
X175458105Y-89339937D01*
X175483406Y-89215000D01*
X175483406Y-89042000D01*
X181530000Y-89042000D01*
X181702973Y-89007594D01*
X181849612Y-88909612D01*
X189977100Y-80782124D01*
X189989582Y-80790465D01*
X190440000Y-80880059D01*
X190890418Y-80790465D01*
X191272265Y-80535324D01*
X191368000Y-80392046D01*
X191368000Y-99287954D01*
G36*
X150840241Y-78634760D02*
X150938308Y-78700286D01*
X150947949Y-78706728D01*
X151075000Y-78732000D01*
X151176440Y-78732000D01*
X151156594Y-78830000D01*
X151156594Y-80530000D01*
X151179395Y-80651179D01*
X151251012Y-80762474D01*
X151360286Y-80837138D01*
X151490000Y-80863406D01*
X151904590Y-80863406D01*
X151922406Y-80952973D01*
X152020388Y-81099612D01*
X155465388Y-84544612D01*
X155612027Y-84642594D01*
X155785000Y-84677000D01*
X166847776Y-84677000D01*
X166948000Y-84777224D01*
X166948000Y-84808367D01*
X166941594Y-84840000D01*
X166941594Y-86140000D01*
X166964395Y-86261179D01*
X167036012Y-86372474D01*
X167145286Y-86447138D01*
X167275000Y-86473406D01*
X167525000Y-86473406D01*
X167646179Y-86450605D01*
X167650063Y-86448105D01*
X167775000Y-86473406D01*
X168025000Y-86473406D01*
X168146179Y-86450605D01*
X168150063Y-86448105D01*
X168275000Y-86473406D01*
X168525000Y-86473406D01*
X168646179Y-86450605D01*
X168650063Y-86448105D01*
X168775000Y-86473406D01*
X169025000Y-86473406D01*
X169146179Y-86450605D01*
X169150063Y-86448105D01*
X169275000Y-86473406D01*
X169525000Y-86473406D01*
X169646179Y-86450605D01*
X169650063Y-86448105D01*
X169775000Y-86473406D01*
X170025000Y-86473406D01*
X170146179Y-86450605D01*
X170150063Y-86448105D01*
X170275000Y-86473406D01*
X170525000Y-86473406D01*
X170646179Y-86450605D01*
X170650063Y-86448105D01*
X170775000Y-86473406D01*
X171025000Y-86473406D01*
X171146179Y-86450605D01*
X171150063Y-86448105D01*
X171275000Y-86473406D01*
X171525000Y-86473406D01*
X171646179Y-86450605D01*
X171650063Y-86448105D01*
X171775000Y-86473406D01*
X172025000Y-86473406D01*
X172146179Y-86450605D01*
X172150063Y-86448105D01*
X172275000Y-86473406D01*
X172525000Y-86473406D01*
X172646179Y-86450605D01*
X172650063Y-86448105D01*
X172775000Y-86473406D01*
X173025000Y-86473406D01*
X173146179Y-86450605D01*
X173257474Y-86378988D01*
X173332138Y-86269714D01*
X173358406Y-86140000D01*
X173358406Y-85145818D01*
X174027224Y-84477000D01*
X175935000Y-84477000D01*
X176107973Y-84442594D01*
X176254612Y-84344612D01*
X179817100Y-80782124D01*
X179829582Y-80790465D01*
X180280000Y-80880059D01*
X180730418Y-80790465D01*
X181112265Y-80535324D01*
X181367406Y-80153477D01*
X181457000Y-79703059D01*
X181457000Y-79656941D01*
X181367406Y-79206523D01*
X181112265Y-78824676D01*
X180973565Y-78732000D01*
X182126435Y-78732000D01*
X181987735Y-78824676D01*
X181732594Y-79206523D01*
X181643000Y-79656941D01*
X181643000Y-79703059D01*
X181728397Y-80132378D01*
X175222776Y-86638000D01*
X175181633Y-86638000D01*
X175150000Y-86631594D01*
X173850000Y-86631594D01*
X173728821Y-86654395D01*
X173617526Y-86726012D01*
X173542862Y-86835286D01*
X173516594Y-86965000D01*
X173516594Y-87215000D01*
X173539395Y-87336179D01*
X173541895Y-87340063D01*
X173516594Y-87465000D01*
X173516594Y-87715000D01*
X173539395Y-87836179D01*
X173541895Y-87840063D01*
X173516594Y-87965000D01*
X173516594Y-88215000D01*
X173539395Y-88336179D01*
X173541895Y-88340063D01*
X173516594Y-88465000D01*
X173516594Y-88715000D01*
X173539395Y-88836179D01*
X173541895Y-88840063D01*
X173516594Y-88965000D01*
X173516594Y-89154590D01*
X173427027Y-89172406D01*
X173280388Y-89270388D01*
X169787777Y-92762999D01*
X167036749Y-92762999D01*
X166926250Y-92652500D01*
X166910526Y-92652500D01*
X166988327Y-92574699D01*
X167065597Y-92388153D01*
X167085000Y-92368750D01*
X167085000Y-92311250D01*
X167065597Y-92291847D01*
X166988327Y-92105301D01*
X166910526Y-92027500D01*
X166926250Y-92027500D01*
X167085000Y-91868750D01*
X167085000Y-91838690D01*
X166988327Y-91605301D01*
X166809698Y-91426673D01*
X166773362Y-91411622D01*
X166760605Y-91343821D01*
X166758105Y-91339937D01*
X166783406Y-91215000D01*
X166783406Y-90965000D01*
X166760605Y-90843821D01*
X166758105Y-90839937D01*
X166783406Y-90715000D01*
X166783406Y-90465000D01*
X166760605Y-90343821D01*
X166758105Y-90339937D01*
X166783406Y-90215000D01*
X166783406Y-89965000D01*
X166760605Y-89843821D01*
X166758105Y-89839937D01*
X166783406Y-89715000D01*
X166783406Y-89465000D01*
X166760605Y-89343821D01*
X166758105Y-89339937D01*
X166783406Y-89215000D01*
X166783406Y-88965000D01*
X166760605Y-88843821D01*
X166758105Y-88839937D01*
X166783406Y-88715000D01*
X166783406Y-88465000D01*
X166760605Y-88343821D01*
X166758105Y-88339937D01*
X166783406Y-88215000D01*
X166783406Y-87965000D01*
X166760605Y-87843821D01*
X166758105Y-87839937D01*
X166783406Y-87715000D01*
X166783406Y-87465000D01*
X166760605Y-87343821D01*
X166758105Y-87339937D01*
X166783406Y-87215000D01*
X166783406Y-86965000D01*
X166760605Y-86843821D01*
X166688988Y-86732526D01*
X166579714Y-86657862D01*
X166450000Y-86631594D01*
X165150000Y-86631594D01*
X165115954Y-86638000D01*
X164900000Y-86638000D01*
X164727027Y-86672406D01*
X164580388Y-86770388D01*
X164302775Y-87048001D01*
X162285000Y-87048001D01*
X162285000Y-86835750D01*
X162126250Y-86677000D01*
X161277000Y-86677000D01*
X161277000Y-86697000D01*
X161023000Y-86697000D01*
X161023000Y-86677000D01*
X160173750Y-86677000D01*
X160015000Y-86835750D01*
X160015000Y-87048001D01*
X159983406Y-87048001D01*
X159983406Y-85925000D01*
X159960605Y-85803821D01*
X159957304Y-85798690D01*
X160015000Y-85798690D01*
X160015000Y-86264250D01*
X160173750Y-86423000D01*
X161023000Y-86423000D01*
X161023000Y-85448750D01*
X161277000Y-85448750D01*
X161277000Y-86423000D01*
X162126250Y-86423000D01*
X162285000Y-86264250D01*
X162285000Y-85798690D01*
X162188327Y-85565301D01*
X162009698Y-85386673D01*
X161776309Y-85290000D01*
X161435750Y-85290000D01*
X161277000Y-85448750D01*
X161023000Y-85448750D01*
X160864250Y-85290000D01*
X160523691Y-85290000D01*
X160290302Y-85386673D01*
X160111673Y-85565301D01*
X160015000Y-85798690D01*
X159957304Y-85798690D01*
X159888988Y-85692526D01*
X159779714Y-85617862D01*
X159650000Y-85591594D01*
X158650000Y-85591594D01*
X158528821Y-85614395D01*
X158417526Y-85686012D01*
X158342862Y-85795286D01*
X158325309Y-85881966D01*
X158310605Y-85803821D01*
X158238988Y-85692526D01*
X158129714Y-85617862D01*
X158000000Y-85591594D01*
X157411884Y-85591594D01*
X156972645Y-85152355D01*
X156801675Y-85038115D01*
X156600000Y-84998000D01*
X154018289Y-84997999D01*
X145822645Y-76802355D01*
X145651675Y-76688115D01*
X145450000Y-76648000D01*
X145383406Y-76648000D01*
X145383406Y-76325000D01*
X145365907Y-76232000D01*
X148437482Y-76232000D01*
X150840241Y-78634760D01*
X150840241Y-78634760D01*
G37*
X150840241Y-78634760D02*
X150938308Y-78700286D01*
X150947949Y-78706728D01*
X151075000Y-78732000D01*
X151176440Y-78732000D01*
X151156594Y-78830000D01*
X151156594Y-80530000D01*
X151179395Y-80651179D01*
X151251012Y-80762474D01*
X151360286Y-80837138D01*
X151490000Y-80863406D01*
X151904590Y-80863406D01*
X151922406Y-80952973D01*
X152020388Y-81099612D01*
X155465388Y-84544612D01*
X155612027Y-84642594D01*
X155785000Y-84677000D01*
X166847776Y-84677000D01*
X166948000Y-84777224D01*
X166948000Y-84808367D01*
X166941594Y-84840000D01*
X166941594Y-86140000D01*
X166964395Y-86261179D01*
X167036012Y-86372474D01*
X167145286Y-86447138D01*
X167275000Y-86473406D01*
X167525000Y-86473406D01*
X167646179Y-86450605D01*
X167650063Y-86448105D01*
X167775000Y-86473406D01*
X168025000Y-86473406D01*
X168146179Y-86450605D01*
X168150063Y-86448105D01*
X168275000Y-86473406D01*
X168525000Y-86473406D01*
X168646179Y-86450605D01*
X168650063Y-86448105D01*
X168775000Y-86473406D01*
X169025000Y-86473406D01*
X169146179Y-86450605D01*
X169150063Y-86448105D01*
X169275000Y-86473406D01*
X169525000Y-86473406D01*
X169646179Y-86450605D01*
X169650063Y-86448105D01*
X169775000Y-86473406D01*
X170025000Y-86473406D01*
X170146179Y-86450605D01*
X170150063Y-86448105D01*
X170275000Y-86473406D01*
X170525000Y-86473406D01*
X170646179Y-86450605D01*
X170650063Y-86448105D01*
X170775000Y-86473406D01*
X171025000Y-86473406D01*
X171146179Y-86450605D01*
X171150063Y-86448105D01*
X171275000Y-86473406D01*
X171525000Y-86473406D01*
X171646179Y-86450605D01*
X171650063Y-86448105D01*
X171775000Y-86473406D01*
X172025000Y-86473406D01*
X172146179Y-86450605D01*
X172150063Y-86448105D01*
X172275000Y-86473406D01*
X172525000Y-86473406D01*
X172646179Y-86450605D01*
X172650063Y-86448105D01*
X172775000Y-86473406D01*
X173025000Y-86473406D01*
X173146179Y-86450605D01*
X173257474Y-86378988D01*
X173332138Y-86269714D01*
X173358406Y-86140000D01*
X173358406Y-85145818D01*
X174027224Y-84477000D01*
X175935000Y-84477000D01*
X176107973Y-84442594D01*
X176254612Y-84344612D01*
X179817100Y-80782124D01*
X179829582Y-80790465D01*
X180280000Y-80880059D01*
X180730418Y-80790465D01*
X181112265Y-80535324D01*
X181367406Y-80153477D01*
X181457000Y-79703059D01*
X181457000Y-79656941D01*
X181367406Y-79206523D01*
X181112265Y-78824676D01*
X180973565Y-78732000D01*
X182126435Y-78732000D01*
X181987735Y-78824676D01*
X181732594Y-79206523D01*
X181643000Y-79656941D01*
X181643000Y-79703059D01*
X181728397Y-80132378D01*
X175222776Y-86638000D01*
X175181633Y-86638000D01*
X175150000Y-86631594D01*
X173850000Y-86631594D01*
X173728821Y-86654395D01*
X173617526Y-86726012D01*
X173542862Y-86835286D01*
X173516594Y-86965000D01*
X173516594Y-87215000D01*
X173539395Y-87336179D01*
X173541895Y-87340063D01*
X173516594Y-87465000D01*
X173516594Y-87715000D01*
X173539395Y-87836179D01*
X173541895Y-87840063D01*
X173516594Y-87965000D01*
X173516594Y-88215000D01*
X173539395Y-88336179D01*
X173541895Y-88340063D01*
X173516594Y-88465000D01*
X173516594Y-88715000D01*
X173539395Y-88836179D01*
X173541895Y-88840063D01*
X173516594Y-88965000D01*
X173516594Y-89154590D01*
X173427027Y-89172406D01*
X173280388Y-89270388D01*
X169787777Y-92762999D01*
X167036749Y-92762999D01*
X166926250Y-92652500D01*
X166910526Y-92652500D01*
X166988327Y-92574699D01*
X167065597Y-92388153D01*
X167085000Y-92368750D01*
X167085000Y-92311250D01*
X167065597Y-92291847D01*
X166988327Y-92105301D01*
X166910526Y-92027500D01*
X166926250Y-92027500D01*
X167085000Y-91868750D01*
X167085000Y-91838690D01*
X166988327Y-91605301D01*
X166809698Y-91426673D01*
X166773362Y-91411622D01*
X166760605Y-91343821D01*
X166758105Y-91339937D01*
X166783406Y-91215000D01*
X166783406Y-90965000D01*
X166760605Y-90843821D01*
X166758105Y-90839937D01*
X166783406Y-90715000D01*
X166783406Y-90465000D01*
X166760605Y-90343821D01*
X166758105Y-90339937D01*
X166783406Y-90215000D01*
X166783406Y-89965000D01*
X166760605Y-89843821D01*
X166758105Y-89839937D01*
X166783406Y-89715000D01*
X166783406Y-89465000D01*
X166760605Y-89343821D01*
X166758105Y-89339937D01*
X166783406Y-89215000D01*
X166783406Y-88965000D01*
X166760605Y-88843821D01*
X166758105Y-88839937D01*
X166783406Y-88715000D01*
X166783406Y-88465000D01*
X166760605Y-88343821D01*
X166758105Y-88339937D01*
X166783406Y-88215000D01*
X166783406Y-87965000D01*
X166760605Y-87843821D01*
X166758105Y-87839937D01*
X166783406Y-87715000D01*
X166783406Y-87465000D01*
X166760605Y-87343821D01*
X166758105Y-87339937D01*
X166783406Y-87215000D01*
X166783406Y-86965000D01*
X166760605Y-86843821D01*
X166688988Y-86732526D01*
X166579714Y-86657862D01*
X166450000Y-86631594D01*
X165150000Y-86631594D01*
X165115954Y-86638000D01*
X164900000Y-86638000D01*
X164727027Y-86672406D01*
X164580388Y-86770388D01*
X164302775Y-87048001D01*
X162285000Y-87048001D01*
X162285000Y-86835750D01*
X162126250Y-86677000D01*
X161277000Y-86677000D01*
X161277000Y-86697000D01*
X161023000Y-86697000D01*
X161023000Y-86677000D01*
X160173750Y-86677000D01*
X160015000Y-86835750D01*
X160015000Y-87048001D01*
X159983406Y-87048001D01*
X159983406Y-85925000D01*
X159960605Y-85803821D01*
X159957304Y-85798690D01*
X160015000Y-85798690D01*
X160015000Y-86264250D01*
X160173750Y-86423000D01*
X161023000Y-86423000D01*
X161023000Y-85448750D01*
X161277000Y-85448750D01*
X161277000Y-86423000D01*
X162126250Y-86423000D01*
X162285000Y-86264250D01*
X162285000Y-85798690D01*
X162188327Y-85565301D01*
X162009698Y-85386673D01*
X161776309Y-85290000D01*
X161435750Y-85290000D01*
X161277000Y-85448750D01*
X161023000Y-85448750D01*
X160864250Y-85290000D01*
X160523691Y-85290000D01*
X160290302Y-85386673D01*
X160111673Y-85565301D01*
X160015000Y-85798690D01*
X159957304Y-85798690D01*
X159888988Y-85692526D01*
X159779714Y-85617862D01*
X159650000Y-85591594D01*
X158650000Y-85591594D01*
X158528821Y-85614395D01*
X158417526Y-85686012D01*
X158342862Y-85795286D01*
X158325309Y-85881966D01*
X158310605Y-85803821D01*
X158238988Y-85692526D01*
X158129714Y-85617862D01*
X158000000Y-85591594D01*
X157411884Y-85591594D01*
X156972645Y-85152355D01*
X156801675Y-85038115D01*
X156600000Y-84998000D01*
X154018289Y-84997999D01*
X145822645Y-76802355D01*
X145651675Y-76688115D01*
X145450000Y-76648000D01*
X145383406Y-76648000D01*
X145383406Y-76325000D01*
X145365907Y-76232000D01*
X148437482Y-76232000D01*
X150840241Y-78634760D01*
G36*
X153427354Y-85897644D02*
X153598324Y-86011884D01*
X153799999Y-86051999D01*
X154365000Y-86051999D01*
X154365000Y-86264250D01*
X154523750Y-86423000D01*
X155373000Y-86423000D01*
X155373000Y-86403000D01*
X155627000Y-86403000D01*
X155627000Y-86423000D01*
X156476250Y-86423000D01*
X156614480Y-86284770D01*
X156666594Y-86336884D01*
X156666594Y-87175000D01*
X156689395Y-87296179D01*
X156761012Y-87407474D01*
X156870286Y-87482138D01*
X157000000Y-87508406D01*
X158000000Y-87508406D01*
X158121179Y-87485605D01*
X158232474Y-87413988D01*
X158307138Y-87304714D01*
X158324691Y-87218034D01*
X158339395Y-87296179D01*
X158411012Y-87407474D01*
X158520286Y-87482138D01*
X158650000Y-87508406D01*
X158714590Y-87508406D01*
X158732406Y-87597973D01*
X158759151Y-87638000D01*
X156435025Y-87638000D01*
X156538327Y-87534699D01*
X156635000Y-87301310D01*
X156635000Y-86835750D01*
X156476250Y-86677000D01*
X155627000Y-86677000D01*
X155627000Y-86697000D01*
X155373000Y-86697000D01*
X155373000Y-86677000D01*
X154523750Y-86677000D01*
X154365000Y-86835750D01*
X154365000Y-87301310D01*
X154461673Y-87534699D01*
X154564975Y-87638000D01*
X154102224Y-87638000D01*
X149249611Y-82785387D01*
X149102972Y-82687405D01*
X148929999Y-82652999D01*
X145320892Y-82652999D01*
X145400059Y-82255000D01*
X145310465Y-81804582D01*
X145055324Y-81422735D01*
X144673477Y-81167594D01*
X144574965Y-81147999D01*
X145081358Y-80910183D01*
X145471645Y-80481924D01*
X145641476Y-80071890D01*
X145520155Y-79842000D01*
X144327000Y-79842000D01*
X144327000Y-79862000D01*
X144073000Y-79862000D01*
X144073000Y-79842000D01*
X144053000Y-79842000D01*
X144053000Y-79588000D01*
X144073000Y-79588000D01*
X144073000Y-79568000D01*
X144327000Y-79568000D01*
X144327000Y-79588000D01*
X145520155Y-79588000D01*
X145641476Y-79358110D01*
X145471645Y-78948076D01*
X145081358Y-78519817D01*
X144737657Y-78358406D01*
X145050000Y-78358406D01*
X145171179Y-78335605D01*
X145282474Y-78263988D01*
X145357138Y-78154714D01*
X145383406Y-78025000D01*
X145383406Y-77853696D01*
X153427354Y-85897644D01*
X153427354Y-85897644D01*
G37*
X153427354Y-85897644D02*
X153598324Y-86011884D01*
X153799999Y-86051999D01*
X154365000Y-86051999D01*
X154365000Y-86264250D01*
X154523750Y-86423000D01*
X155373000Y-86423000D01*
X155373000Y-86403000D01*
X155627000Y-86403000D01*
X155627000Y-86423000D01*
X156476250Y-86423000D01*
X156614480Y-86284770D01*
X156666594Y-86336884D01*
X156666594Y-87175000D01*
X156689395Y-87296179D01*
X156761012Y-87407474D01*
X156870286Y-87482138D01*
X157000000Y-87508406D01*
X158000000Y-87508406D01*
X158121179Y-87485605D01*
X158232474Y-87413988D01*
X158307138Y-87304714D01*
X158324691Y-87218034D01*
X158339395Y-87296179D01*
X158411012Y-87407474D01*
X158520286Y-87482138D01*
X158650000Y-87508406D01*
X158714590Y-87508406D01*
X158732406Y-87597973D01*
X158759151Y-87638000D01*
X156435025Y-87638000D01*
X156538327Y-87534699D01*
X156635000Y-87301310D01*
X156635000Y-86835750D01*
X156476250Y-86677000D01*
X155627000Y-86677000D01*
X155627000Y-86697000D01*
X155373000Y-86697000D01*
X155373000Y-86677000D01*
X154523750Y-86677000D01*
X154365000Y-86835750D01*
X154365000Y-87301310D01*
X154461673Y-87534699D01*
X154564975Y-87638000D01*
X154102224Y-87638000D01*
X149249611Y-82785387D01*
X149102972Y-82687405D01*
X148929999Y-82652999D01*
X145320892Y-82652999D01*
X145400059Y-82255000D01*
X145310465Y-81804582D01*
X145055324Y-81422735D01*
X144673477Y-81167594D01*
X144574965Y-81147999D01*
X145081358Y-80910183D01*
X145471645Y-80481924D01*
X145641476Y-80071890D01*
X145520155Y-79842000D01*
X144327000Y-79842000D01*
X144327000Y-79862000D01*
X144073000Y-79862000D01*
X144073000Y-79842000D01*
X144053000Y-79842000D01*
X144053000Y-79588000D01*
X144073000Y-79588000D01*
X144073000Y-79568000D01*
X144327000Y-79568000D01*
X144327000Y-79588000D01*
X145520155Y-79588000D01*
X145641476Y-79358110D01*
X145471645Y-78948076D01*
X145081358Y-78519817D01*
X144737657Y-78358406D01*
X145050000Y-78358406D01*
X145171179Y-78335605D01*
X145282474Y-78263988D01*
X145357138Y-78154714D01*
X145383406Y-78025000D01*
X145383406Y-77853696D01*
X153427354Y-85897644D01*
M02*
