G04 #@! TF.FileFunction,Legend,Top*
%FSLAX46Y46*%
G04 Gerber Fmt 4.6, Leading zero omitted, Abs format (unit mm)*
G04 Created by KiCad (PCBNEW 4.0.4-stable) date 05/29/18 15:17:11*
%MOMM*%
%LPD*%
G01*
G04 APERTURE LIST*
%ADD10C,0.100000*%
%ADD11C,0.200000*%
%ADD12C,0.300000*%
%ADD13C,0.150000*%
%ADD14C,0.120000*%
%ADD15C,0.010000*%
G04 APERTURE END LIST*
D10*
D11*
X180011905Y-94808335D02*
X180011905Y-94313097D01*
X180316667Y-94579764D01*
X180316667Y-94465478D01*
X180354762Y-94389288D01*
X180392857Y-94351192D01*
X180469048Y-94313097D01*
X180659524Y-94313097D01*
X180735714Y-94351192D01*
X180773810Y-94389288D01*
X180811905Y-94465478D01*
X180811905Y-94694050D01*
X180773810Y-94770240D01*
X180735714Y-94808335D01*
X180088095Y-94008335D02*
X180050000Y-93970240D01*
X180011905Y-93894049D01*
X180011905Y-93703573D01*
X180050000Y-93627383D01*
X180088095Y-93589287D01*
X180164286Y-93551192D01*
X180240476Y-93551192D01*
X180354762Y-93589287D01*
X180811905Y-94046430D01*
X180811905Y-93551192D01*
X180278571Y-92713097D02*
X180278571Y-92408335D01*
X180011905Y-92598811D02*
X180697619Y-92598811D01*
X180773810Y-92560716D01*
X180811905Y-92484525D01*
X180811905Y-92408335D01*
X180811905Y-92027382D02*
X180773810Y-92103573D01*
X180735714Y-92141668D01*
X180659524Y-92179763D01*
X180430952Y-92179763D01*
X180354762Y-92141668D01*
X180316667Y-92103573D01*
X180278571Y-92027382D01*
X180278571Y-91913096D01*
X180316667Y-91836906D01*
X180354762Y-91798811D01*
X180430952Y-91760715D01*
X180659524Y-91760715D01*
X180735714Y-91798811D01*
X180773810Y-91836906D01*
X180811905Y-91913096D01*
X180811905Y-92027382D01*
X180811905Y-90389286D02*
X180811905Y-90846429D01*
X180811905Y-90617858D02*
X180011905Y-90617858D01*
X180126190Y-90694048D01*
X180202381Y-90770239D01*
X180240476Y-90846429D01*
X180735714Y-88979762D02*
X180773810Y-89017857D01*
X180811905Y-89132143D01*
X180811905Y-89208333D01*
X180773810Y-89322619D01*
X180697619Y-89398810D01*
X180621429Y-89436905D01*
X180469048Y-89475000D01*
X180354762Y-89475000D01*
X180202381Y-89436905D01*
X180126190Y-89398810D01*
X180050000Y-89322619D01*
X180011905Y-89208333D01*
X180011905Y-89132143D01*
X180050000Y-89017857D01*
X180088095Y-88979762D01*
X180811905Y-88636905D02*
X180011905Y-88636905D01*
X180811905Y-88294048D02*
X180392857Y-88294048D01*
X180316667Y-88332143D01*
X180278571Y-88408333D01*
X180278571Y-88522619D01*
X180316667Y-88598810D01*
X180354762Y-88636905D01*
X180811905Y-87570238D02*
X180392857Y-87570238D01*
X180316667Y-87608333D01*
X180278571Y-87684523D01*
X180278571Y-87836904D01*
X180316667Y-87913095D01*
X180773810Y-87570238D02*
X180811905Y-87646428D01*
X180811905Y-87836904D01*
X180773810Y-87913095D01*
X180697619Y-87951190D01*
X180621429Y-87951190D01*
X180545238Y-87913095D01*
X180507143Y-87836904D01*
X180507143Y-87646428D01*
X180469048Y-87570238D01*
X180278571Y-87189285D02*
X180811905Y-87189285D01*
X180354762Y-87189285D02*
X180316667Y-87151190D01*
X180278571Y-87074999D01*
X180278571Y-86960713D01*
X180316667Y-86884523D01*
X180392857Y-86846428D01*
X180811905Y-86846428D01*
X180278571Y-86465475D02*
X180811905Y-86465475D01*
X180354762Y-86465475D02*
X180316667Y-86427380D01*
X180278571Y-86351189D01*
X180278571Y-86236903D01*
X180316667Y-86160713D01*
X180392857Y-86122618D01*
X180811905Y-86122618D01*
X180773810Y-85436903D02*
X180811905Y-85513093D01*
X180811905Y-85665474D01*
X180773810Y-85741665D01*
X180697619Y-85779760D01*
X180392857Y-85779760D01*
X180316667Y-85741665D01*
X180278571Y-85665474D01*
X180278571Y-85513093D01*
X180316667Y-85436903D01*
X180392857Y-85398808D01*
X180469048Y-85398808D01*
X180545238Y-85779760D01*
X180811905Y-84941665D02*
X180773810Y-85017856D01*
X180697619Y-85055951D01*
X180011905Y-85055951D01*
X182211905Y-92960715D02*
X181411905Y-92960715D01*
X181983333Y-92694048D01*
X181411905Y-92427381D01*
X182211905Y-92427381D01*
X181678571Y-91703572D02*
X182211905Y-91703572D01*
X181678571Y-92046429D02*
X182097619Y-92046429D01*
X182173810Y-92008334D01*
X182211905Y-91932143D01*
X182211905Y-91817857D01*
X182173810Y-91741667D01*
X182135714Y-91703572D01*
X182211905Y-91208333D02*
X182173810Y-91284524D01*
X182097619Y-91322619D01*
X181411905Y-91322619D01*
X181678571Y-91017857D02*
X181678571Y-90713095D01*
X181411905Y-90903571D02*
X182097619Y-90903571D01*
X182173810Y-90865476D01*
X182211905Y-90789285D01*
X182211905Y-90713095D01*
X182211905Y-90446428D02*
X181678571Y-90446428D01*
X181411905Y-90446428D02*
X181450000Y-90484523D01*
X181488095Y-90446428D01*
X181450000Y-90408333D01*
X181411905Y-90446428D01*
X181488095Y-90446428D01*
X181678571Y-90065476D02*
X182478571Y-90065476D01*
X181716667Y-90065476D02*
X181678571Y-89989285D01*
X181678571Y-89836904D01*
X181716667Y-89760714D01*
X181754762Y-89722619D01*
X181830952Y-89684523D01*
X182059524Y-89684523D01*
X182135714Y-89722619D01*
X182173810Y-89760714D01*
X182211905Y-89836904D01*
X182211905Y-89989285D01*
X182173810Y-90065476D01*
X182211905Y-89227380D02*
X182173810Y-89303571D01*
X182097619Y-89341666D01*
X181411905Y-89341666D01*
X182173810Y-88617856D02*
X182211905Y-88694046D01*
X182211905Y-88846427D01*
X182173810Y-88922618D01*
X182097619Y-88960713D01*
X181792857Y-88960713D01*
X181716667Y-88922618D01*
X181678571Y-88846427D01*
X181678571Y-88694046D01*
X181716667Y-88617856D01*
X181792857Y-88579761D01*
X181869048Y-88579761D01*
X181945238Y-88960713D01*
X182211905Y-88313094D02*
X181678571Y-87894047D01*
X181678571Y-88313094D02*
X182211905Y-87894047D01*
X182173810Y-87284523D02*
X182211905Y-87360713D01*
X182211905Y-87513094D01*
X182173810Y-87589285D01*
X182097619Y-87627380D01*
X181792857Y-87627380D01*
X181716667Y-87589285D01*
X181678571Y-87513094D01*
X181678571Y-87360713D01*
X181716667Y-87284523D01*
X181792857Y-87246428D01*
X181869048Y-87246428D01*
X181945238Y-87627380D01*
X182211905Y-86903571D02*
X181678571Y-86903571D01*
X181830952Y-86903571D02*
X181754762Y-86865476D01*
X181716667Y-86827380D01*
X181678571Y-86751190D01*
X181678571Y-86674999D01*
D12*
X152936548Y-97539762D02*
X152936548Y-98391190D01*
X152936548Y-97965476D02*
X151446548Y-97965476D01*
X151659405Y-98107381D01*
X151801310Y-98249286D01*
X151872262Y-98391190D01*
X151446548Y-97043095D02*
X151446548Y-96049762D01*
X152936548Y-96688333D01*
X155471548Y-97539762D02*
X155471548Y-98391190D01*
X155471548Y-97965476D02*
X153981548Y-97965476D01*
X154194405Y-98107381D01*
X154336310Y-98249286D01*
X154407262Y-98391190D01*
X154620119Y-96688333D02*
X154549167Y-96830238D01*
X154478214Y-96901190D01*
X154336310Y-96972142D01*
X154265357Y-96972142D01*
X154123452Y-96901190D01*
X154052500Y-96830238D01*
X153981548Y-96688333D01*
X153981548Y-96404523D01*
X154052500Y-96262619D01*
X154123452Y-96191666D01*
X154265357Y-96120714D01*
X154336310Y-96120714D01*
X154478214Y-96191666D01*
X154549167Y-96262619D01*
X154620119Y-96404523D01*
X154620119Y-96688333D01*
X154691071Y-96830238D01*
X154762024Y-96901190D01*
X154903929Y-96972142D01*
X155187738Y-96972142D01*
X155329643Y-96901190D01*
X155400595Y-96830238D01*
X155471548Y-96688333D01*
X155471548Y-96404523D01*
X155400595Y-96262619D01*
X155329643Y-96191666D01*
X155187738Y-96120714D01*
X154903929Y-96120714D01*
X154762024Y-96191666D01*
X154691071Y-96262619D01*
X154620119Y-96404523D01*
X158006548Y-97539762D02*
X158006548Y-98391190D01*
X158006548Y-97965476D02*
X156516548Y-97965476D01*
X156729405Y-98107381D01*
X156871310Y-98249286D01*
X156942262Y-98391190D01*
X158006548Y-96830238D02*
X158006548Y-96546428D01*
X157935595Y-96404523D01*
X157864643Y-96333571D01*
X157651786Y-96191666D01*
X157367976Y-96120714D01*
X156800357Y-96120714D01*
X156658452Y-96191666D01*
X156587500Y-96262619D01*
X156516548Y-96404523D01*
X156516548Y-96688333D01*
X156587500Y-96830238D01*
X156658452Y-96901190D01*
X156800357Y-96972142D01*
X157155119Y-96972142D01*
X157297024Y-96901190D01*
X157367976Y-96830238D01*
X157438929Y-96688333D01*
X157438929Y-96404523D01*
X157367976Y-96262619D01*
X157297024Y-96191666D01*
X157155119Y-96120714D01*
X159193452Y-98391190D02*
X159122500Y-98320238D01*
X159051548Y-98178333D01*
X159051548Y-97823571D01*
X159122500Y-97681667D01*
X159193452Y-97610714D01*
X159335357Y-97539762D01*
X159477262Y-97539762D01*
X159690119Y-97610714D01*
X160541548Y-98462143D01*
X160541548Y-97539762D01*
X159051548Y-96617381D02*
X159051548Y-96475476D01*
X159122500Y-96333571D01*
X159193452Y-96262619D01*
X159335357Y-96191666D01*
X159619167Y-96120714D01*
X159973929Y-96120714D01*
X160257738Y-96191666D01*
X160399643Y-96262619D01*
X160470595Y-96333571D01*
X160541548Y-96475476D01*
X160541548Y-96617381D01*
X160470595Y-96759285D01*
X160399643Y-96830238D01*
X160257738Y-96901190D01*
X159973929Y-96972142D01*
X159619167Y-96972142D01*
X159335357Y-96901190D01*
X159193452Y-96830238D01*
X159122500Y-96759285D01*
X159051548Y-96617381D01*
X161728452Y-98391190D02*
X161657500Y-98320238D01*
X161586548Y-98178333D01*
X161586548Y-97823571D01*
X161657500Y-97681667D01*
X161728452Y-97610714D01*
X161870357Y-97539762D01*
X162012262Y-97539762D01*
X162225119Y-97610714D01*
X163076548Y-98462143D01*
X163076548Y-97539762D01*
X163076548Y-96120714D02*
X163076548Y-96972142D01*
X163076548Y-96546428D02*
X161586548Y-96546428D01*
X161799405Y-96688333D01*
X161941310Y-96830238D01*
X162012262Y-96972142D01*
X164263452Y-98391190D02*
X164192500Y-98320238D01*
X164121548Y-98178333D01*
X164121548Y-97823571D01*
X164192500Y-97681667D01*
X164263452Y-97610714D01*
X164405357Y-97539762D01*
X164547262Y-97539762D01*
X164760119Y-97610714D01*
X165611548Y-98462143D01*
X165611548Y-97539762D01*
X164263452Y-96972142D02*
X164192500Y-96901190D01*
X164121548Y-96759285D01*
X164121548Y-96404523D01*
X164192500Y-96262619D01*
X164263452Y-96191666D01*
X164405357Y-96120714D01*
X164547262Y-96120714D01*
X164760119Y-96191666D01*
X165611548Y-97043095D01*
X165611548Y-96120714D01*
X166798452Y-98391190D02*
X166727500Y-98320238D01*
X166656548Y-98178333D01*
X166656548Y-97823571D01*
X166727500Y-97681667D01*
X166798452Y-97610714D01*
X166940357Y-97539762D01*
X167082262Y-97539762D01*
X167295119Y-97610714D01*
X168146548Y-98462143D01*
X168146548Y-97539762D01*
X166656548Y-97043095D02*
X166656548Y-96120714D01*
X167224167Y-96617381D01*
X167224167Y-96404523D01*
X167295119Y-96262619D01*
X167366071Y-96191666D01*
X167507976Y-96120714D01*
X167862738Y-96120714D01*
X168004643Y-96191666D01*
X168075595Y-96262619D01*
X168146548Y-96404523D01*
X168146548Y-96830238D01*
X168075595Y-96972142D01*
X168004643Y-97043095D01*
X169333452Y-98391190D02*
X169262500Y-98320238D01*
X169191548Y-98178333D01*
X169191548Y-97823571D01*
X169262500Y-97681667D01*
X169333452Y-97610714D01*
X169475357Y-97539762D01*
X169617262Y-97539762D01*
X169830119Y-97610714D01*
X170681548Y-98462143D01*
X170681548Y-97539762D01*
X169688214Y-96262619D02*
X170681548Y-96262619D01*
X169120595Y-96617381D02*
X170184881Y-96972142D01*
X170184881Y-96049762D01*
X171868452Y-98391190D02*
X171797500Y-98320238D01*
X171726548Y-98178333D01*
X171726548Y-97823571D01*
X171797500Y-97681667D01*
X171868452Y-97610714D01*
X172010357Y-97539762D01*
X172152262Y-97539762D01*
X172365119Y-97610714D01*
X173216548Y-98462143D01*
X173216548Y-97539762D01*
X171726548Y-96191666D02*
X171726548Y-96901190D01*
X172436071Y-96972142D01*
X172365119Y-96901190D01*
X172294167Y-96759285D01*
X172294167Y-96404523D01*
X172365119Y-96262619D01*
X172436071Y-96191666D01*
X172577976Y-96120714D01*
X172932738Y-96120714D01*
X173074643Y-96191666D01*
X173145595Y-96262619D01*
X173216548Y-96404523D01*
X173216548Y-96759285D01*
X173145595Y-96901190D01*
X173074643Y-96972142D01*
X174403452Y-98391190D02*
X174332500Y-98320238D01*
X174261548Y-98178333D01*
X174261548Y-97823571D01*
X174332500Y-97681667D01*
X174403452Y-97610714D01*
X174545357Y-97539762D01*
X174687262Y-97539762D01*
X174900119Y-97610714D01*
X175751548Y-98462143D01*
X175751548Y-97539762D01*
X174261548Y-96262619D02*
X174261548Y-96546428D01*
X174332500Y-96688333D01*
X174403452Y-96759285D01*
X174616310Y-96901190D01*
X174900119Y-96972142D01*
X175467738Y-96972142D01*
X175609643Y-96901190D01*
X175680595Y-96830238D01*
X175751548Y-96688333D01*
X175751548Y-96404523D01*
X175680595Y-96262619D01*
X175609643Y-96191666D01*
X175467738Y-96120714D01*
X175112976Y-96120714D01*
X174971071Y-96191666D01*
X174900119Y-96262619D01*
X174829167Y-96404523D01*
X174829167Y-96688333D01*
X174900119Y-96830238D01*
X174971071Y-96901190D01*
X175112976Y-96972142D01*
X176938452Y-98391190D02*
X176867500Y-98320238D01*
X176796548Y-98178333D01*
X176796548Y-97823571D01*
X176867500Y-97681667D01*
X176938452Y-97610714D01*
X177080357Y-97539762D01*
X177222262Y-97539762D01*
X177435119Y-97610714D01*
X178286548Y-98462143D01*
X178286548Y-97539762D01*
X176796548Y-97043095D02*
X176796548Y-96049762D01*
X178286548Y-96688333D01*
X179473452Y-98391190D02*
X179402500Y-98320238D01*
X179331548Y-98178333D01*
X179331548Y-97823571D01*
X179402500Y-97681667D01*
X179473452Y-97610714D01*
X179615357Y-97539762D01*
X179757262Y-97539762D01*
X179970119Y-97610714D01*
X180821548Y-98462143D01*
X180821548Y-97539762D01*
X179970119Y-96688333D02*
X179899167Y-96830238D01*
X179828214Y-96901190D01*
X179686310Y-96972142D01*
X179615357Y-96972142D01*
X179473452Y-96901190D01*
X179402500Y-96830238D01*
X179331548Y-96688333D01*
X179331548Y-96404523D01*
X179402500Y-96262619D01*
X179473452Y-96191666D01*
X179615357Y-96120714D01*
X179686310Y-96120714D01*
X179828214Y-96191666D01*
X179899167Y-96262619D01*
X179970119Y-96404523D01*
X179970119Y-96688333D01*
X180041071Y-96830238D01*
X180112024Y-96901190D01*
X180253929Y-96972142D01*
X180537738Y-96972142D01*
X180679643Y-96901190D01*
X180750595Y-96830238D01*
X180821548Y-96688333D01*
X180821548Y-96404523D01*
X180750595Y-96262619D01*
X180679643Y-96191666D01*
X180537738Y-96120714D01*
X180253929Y-96120714D01*
X180112024Y-96191666D01*
X180041071Y-96262619D01*
X179970119Y-96404523D01*
X182008452Y-98391190D02*
X181937500Y-98320238D01*
X181866548Y-98178333D01*
X181866548Y-97823571D01*
X181937500Y-97681667D01*
X182008452Y-97610714D01*
X182150357Y-97539762D01*
X182292262Y-97539762D01*
X182505119Y-97610714D01*
X183356548Y-98462143D01*
X183356548Y-97539762D01*
X183356548Y-96830238D02*
X183356548Y-96546428D01*
X183285595Y-96404523D01*
X183214643Y-96333571D01*
X183001786Y-96191666D01*
X182717976Y-96120714D01*
X182150357Y-96120714D01*
X182008452Y-96191666D01*
X181937500Y-96262619D01*
X181866548Y-96404523D01*
X181866548Y-96688333D01*
X181937500Y-96830238D01*
X182008452Y-96901190D01*
X182150357Y-96972142D01*
X182505119Y-96972142D01*
X182647024Y-96901190D01*
X182717976Y-96830238D01*
X182788929Y-96688333D01*
X182788929Y-96404523D01*
X182717976Y-96262619D01*
X182647024Y-96191666D01*
X182505119Y-96120714D01*
X184401548Y-98462143D02*
X184401548Y-97539762D01*
X184969167Y-98036429D01*
X184969167Y-97823571D01*
X185040119Y-97681667D01*
X185111071Y-97610714D01*
X185252976Y-97539762D01*
X185607738Y-97539762D01*
X185749643Y-97610714D01*
X185820595Y-97681667D01*
X185891548Y-97823571D01*
X185891548Y-98249286D01*
X185820595Y-98391190D01*
X185749643Y-98462143D01*
X184401548Y-96617381D02*
X184401548Y-96475476D01*
X184472500Y-96333571D01*
X184543452Y-96262619D01*
X184685357Y-96191666D01*
X184969167Y-96120714D01*
X185323929Y-96120714D01*
X185607738Y-96191666D01*
X185749643Y-96262619D01*
X185820595Y-96333571D01*
X185891548Y-96475476D01*
X185891548Y-96617381D01*
X185820595Y-96759285D01*
X185749643Y-96830238D01*
X185607738Y-96901190D01*
X185323929Y-96972142D01*
X184969167Y-96972142D01*
X184685357Y-96901190D01*
X184543452Y-96830238D01*
X184472500Y-96759285D01*
X184401548Y-96617381D01*
X186936548Y-98462143D02*
X186936548Y-97539762D01*
X187504167Y-98036429D01*
X187504167Y-97823571D01*
X187575119Y-97681667D01*
X187646071Y-97610714D01*
X187787976Y-97539762D01*
X188142738Y-97539762D01*
X188284643Y-97610714D01*
X188355595Y-97681667D01*
X188426548Y-97823571D01*
X188426548Y-98249286D01*
X188355595Y-98391190D01*
X188284643Y-98462143D01*
X188426548Y-96120714D02*
X188426548Y-96972142D01*
X188426548Y-96546428D02*
X186936548Y-96546428D01*
X187149405Y-96688333D01*
X187291310Y-96830238D01*
X187362262Y-96972142D01*
X189471548Y-98462143D02*
X189471548Y-97539762D01*
X190039167Y-98036429D01*
X190039167Y-97823571D01*
X190110119Y-97681667D01*
X190181071Y-97610714D01*
X190322976Y-97539762D01*
X190677738Y-97539762D01*
X190819643Y-97610714D01*
X190890595Y-97681667D01*
X190961548Y-97823571D01*
X190961548Y-98249286D01*
X190890595Y-98391190D01*
X190819643Y-98462143D01*
X189613452Y-96972142D02*
X189542500Y-96901190D01*
X189471548Y-96759285D01*
X189471548Y-96404523D01*
X189542500Y-96262619D01*
X189613452Y-96191666D01*
X189755357Y-96120714D01*
X189897262Y-96120714D01*
X190110119Y-96191666D01*
X190961548Y-97043095D01*
X190961548Y-96120714D01*
X153011548Y-81408810D02*
X153011548Y-82260238D01*
X153011548Y-81834524D02*
X151521548Y-81834524D01*
X151734405Y-81976429D01*
X151876310Y-82118334D01*
X151947262Y-82260238D01*
X154198452Y-82260238D02*
X154127500Y-82189286D01*
X154056548Y-82047381D01*
X154056548Y-81692619D01*
X154127500Y-81550715D01*
X154198452Y-81479762D01*
X154340357Y-81408810D01*
X154482262Y-81408810D01*
X154695119Y-81479762D01*
X155546548Y-82331191D01*
X155546548Y-81408810D01*
X156591548Y-82331191D02*
X156591548Y-81408810D01*
X157159167Y-81905477D01*
X157159167Y-81692619D01*
X157230119Y-81550715D01*
X157301071Y-81479762D01*
X157442976Y-81408810D01*
X157797738Y-81408810D01*
X157939643Y-81479762D01*
X158010595Y-81550715D01*
X158081548Y-81692619D01*
X158081548Y-82118334D01*
X158010595Y-82260238D01*
X157939643Y-82331191D01*
X159623214Y-81550715D02*
X160616548Y-81550715D01*
X159055595Y-81905477D02*
X160119881Y-82260238D01*
X160119881Y-81337858D01*
X161661548Y-81479762D02*
X161661548Y-82189286D01*
X162371071Y-82260238D01*
X162300119Y-82189286D01*
X162229167Y-82047381D01*
X162229167Y-81692619D01*
X162300119Y-81550715D01*
X162371071Y-81479762D01*
X162512976Y-81408810D01*
X162867738Y-81408810D01*
X163009643Y-81479762D01*
X163080595Y-81550715D01*
X163151548Y-81692619D01*
X163151548Y-82047381D01*
X163080595Y-82189286D01*
X163009643Y-82260238D01*
X164196548Y-81550715D02*
X164196548Y-81834524D01*
X164267500Y-81976429D01*
X164338452Y-82047381D01*
X164551310Y-82189286D01*
X164835119Y-82260238D01*
X165402738Y-82260238D01*
X165544643Y-82189286D01*
X165615595Y-82118334D01*
X165686548Y-81976429D01*
X165686548Y-81692619D01*
X165615595Y-81550715D01*
X165544643Y-81479762D01*
X165402738Y-81408810D01*
X165047976Y-81408810D01*
X164906071Y-81479762D01*
X164835119Y-81550715D01*
X164764167Y-81692619D01*
X164764167Y-81976429D01*
X164835119Y-82118334D01*
X164906071Y-82189286D01*
X165047976Y-82260238D01*
X166731548Y-82331191D02*
X166731548Y-81337858D01*
X168221548Y-81976429D01*
X169905119Y-81976429D02*
X169834167Y-82118334D01*
X169763214Y-82189286D01*
X169621310Y-82260238D01*
X169550357Y-82260238D01*
X169408452Y-82189286D01*
X169337500Y-82118334D01*
X169266548Y-81976429D01*
X169266548Y-81692619D01*
X169337500Y-81550715D01*
X169408452Y-81479762D01*
X169550357Y-81408810D01*
X169621310Y-81408810D01*
X169763214Y-81479762D01*
X169834167Y-81550715D01*
X169905119Y-81692619D01*
X169905119Y-81976429D01*
X169976071Y-82118334D01*
X170047024Y-82189286D01*
X170188929Y-82260238D01*
X170472738Y-82260238D01*
X170614643Y-82189286D01*
X170685595Y-82118334D01*
X170756548Y-81976429D01*
X170756548Y-81692619D01*
X170685595Y-81550715D01*
X170614643Y-81479762D01*
X170472738Y-81408810D01*
X170188929Y-81408810D01*
X170047024Y-81479762D01*
X169976071Y-81550715D01*
X169905119Y-81692619D01*
X173291548Y-82118334D02*
X173291548Y-81834524D01*
X173220595Y-81692619D01*
X173149643Y-81621667D01*
X172936786Y-81479762D01*
X172652976Y-81408810D01*
X172085357Y-81408810D01*
X171943452Y-81479762D01*
X171872500Y-81550715D01*
X171801548Y-81692619D01*
X171801548Y-81976429D01*
X171872500Y-82118334D01*
X171943452Y-82189286D01*
X172085357Y-82260238D01*
X172440119Y-82260238D01*
X172582024Y-82189286D01*
X172652976Y-82118334D01*
X172723929Y-81976429D01*
X172723929Y-81692619D01*
X172652976Y-81550715D01*
X172582024Y-81479762D01*
X172440119Y-81408810D01*
X175826548Y-82827858D02*
X175826548Y-83679286D01*
X175826548Y-83253572D02*
X174336548Y-83253572D01*
X174549405Y-83395477D01*
X174691310Y-83537382D01*
X174762262Y-83679286D01*
X174336548Y-81905477D02*
X174336548Y-81763572D01*
X174407500Y-81621667D01*
X174478452Y-81550715D01*
X174620357Y-81479762D01*
X174904167Y-81408810D01*
X175258929Y-81408810D01*
X175542738Y-81479762D01*
X175684643Y-81550715D01*
X175755595Y-81621667D01*
X175826548Y-81763572D01*
X175826548Y-81905477D01*
X175755595Y-82047381D01*
X175684643Y-82118334D01*
X175542738Y-82189286D01*
X175258929Y-82260238D01*
X174904167Y-82260238D01*
X174620357Y-82189286D01*
X174478452Y-82118334D01*
X174407500Y-82047381D01*
X174336548Y-81905477D01*
X178361548Y-82827858D02*
X178361548Y-83679286D01*
X178361548Y-83253572D02*
X176871548Y-83253572D01*
X177084405Y-83395477D01*
X177226310Y-83537382D01*
X177297262Y-83679286D01*
X178361548Y-81408810D02*
X178361548Y-82260238D01*
X178361548Y-81834524D02*
X176871548Y-81834524D01*
X177084405Y-81976429D01*
X177226310Y-82118334D01*
X177297262Y-82260238D01*
X180896548Y-82827858D02*
X180896548Y-83679286D01*
X180896548Y-83253572D02*
X179406548Y-83253572D01*
X179619405Y-83395477D01*
X179761310Y-83537382D01*
X179832262Y-83679286D01*
X179548452Y-82260238D02*
X179477500Y-82189286D01*
X179406548Y-82047381D01*
X179406548Y-81692619D01*
X179477500Y-81550715D01*
X179548452Y-81479762D01*
X179690357Y-81408810D01*
X179832262Y-81408810D01*
X180045119Y-81479762D01*
X180896548Y-82331191D01*
X180896548Y-81408810D01*
X183431548Y-82827858D02*
X183431548Y-83679286D01*
X183431548Y-83253572D02*
X181941548Y-83253572D01*
X182154405Y-83395477D01*
X182296310Y-83537382D01*
X182367262Y-83679286D01*
X181941548Y-82331191D02*
X181941548Y-81408810D01*
X182509167Y-81905477D01*
X182509167Y-81692619D01*
X182580119Y-81550715D01*
X182651071Y-81479762D01*
X182792976Y-81408810D01*
X183147738Y-81408810D01*
X183289643Y-81479762D01*
X183360595Y-81550715D01*
X183431548Y-81692619D01*
X183431548Y-82118334D01*
X183360595Y-82260238D01*
X183289643Y-82331191D01*
X185966548Y-82827858D02*
X185966548Y-83679286D01*
X185966548Y-83253572D02*
X184476548Y-83253572D01*
X184689405Y-83395477D01*
X184831310Y-83537382D01*
X184902262Y-83679286D01*
X184973214Y-81550715D02*
X185966548Y-81550715D01*
X184405595Y-81905477D02*
X185469881Y-82260238D01*
X185469881Y-81337858D01*
X188501548Y-82827858D02*
X188501548Y-83679286D01*
X188501548Y-83253572D02*
X187011548Y-83253572D01*
X187224405Y-83395477D01*
X187366310Y-83537382D01*
X187437262Y-83679286D01*
X187011548Y-81479762D02*
X187011548Y-82189286D01*
X187721071Y-82260238D01*
X187650119Y-82189286D01*
X187579167Y-82047381D01*
X187579167Y-81692619D01*
X187650119Y-81550715D01*
X187721071Y-81479762D01*
X187862976Y-81408810D01*
X188217738Y-81408810D01*
X188359643Y-81479762D01*
X188430595Y-81550715D01*
X188501548Y-81692619D01*
X188501548Y-82047381D01*
X188430595Y-82189286D01*
X188359643Y-82260238D01*
X191036548Y-82827858D02*
X191036548Y-83679286D01*
X191036548Y-83253572D02*
X189546548Y-83253572D01*
X189759405Y-83395477D01*
X189901310Y-83537382D01*
X189972262Y-83679286D01*
X189546548Y-81550715D02*
X189546548Y-81834524D01*
X189617500Y-81976429D01*
X189688452Y-82047381D01*
X189901310Y-82189286D01*
X190185119Y-82260238D01*
X190752738Y-82260238D01*
X190894643Y-82189286D01*
X190965595Y-82118334D01*
X191036548Y-81976429D01*
X191036548Y-81692619D01*
X190965595Y-81550715D01*
X190894643Y-81479762D01*
X190752738Y-81408810D01*
X190397976Y-81408810D01*
X190256071Y-81479762D01*
X190185119Y-81550715D01*
X190114167Y-81692619D01*
X190114167Y-81976429D01*
X190185119Y-82118334D01*
X190256071Y-82189286D01*
X190397976Y-82260238D01*
X145683333Y-76684048D02*
X146150000Y-78174048D01*
X146616667Y-76684048D01*
X147883333Y-78032143D02*
X147816667Y-78103095D01*
X147616667Y-78174048D01*
X147483333Y-78174048D01*
X147283333Y-78103095D01*
X147150000Y-77961190D01*
X147083333Y-77819286D01*
X147016667Y-77535476D01*
X147016667Y-77322619D01*
X147083333Y-77038810D01*
X147150000Y-76896905D01*
X147283333Y-76755000D01*
X147483333Y-76684048D01*
X147616667Y-76684048D01*
X147816667Y-76755000D01*
X147883333Y-76825952D01*
X149283333Y-78032143D02*
X149216667Y-78103095D01*
X149016667Y-78174048D01*
X148883333Y-78174048D01*
X148683333Y-78103095D01*
X148550000Y-77961190D01*
X148483333Y-77819286D01*
X148416667Y-77535476D01*
X148416667Y-77322619D01*
X148483333Y-77038810D01*
X148550000Y-76896905D01*
X148683333Y-76755000D01*
X148883333Y-76684048D01*
X149016667Y-76684048D01*
X149216667Y-76755000D01*
X149283333Y-76825952D01*
X146616667Y-79290000D02*
X146483333Y-79219048D01*
X146283333Y-79219048D01*
X146083333Y-79290000D01*
X145950000Y-79431905D01*
X145883333Y-79573810D01*
X145816667Y-79857619D01*
X145816667Y-80070476D01*
X145883333Y-80354286D01*
X145950000Y-80496190D01*
X146083333Y-80638095D01*
X146283333Y-80709048D01*
X146416667Y-80709048D01*
X146616667Y-80638095D01*
X146683333Y-80567143D01*
X146683333Y-80070476D01*
X146416667Y-80070476D01*
X147283333Y-80709048D02*
X147283333Y-79219048D01*
X148083333Y-80709048D01*
X148083333Y-79219048D01*
X148750000Y-80709048D02*
X148750000Y-79219048D01*
X149083334Y-79219048D01*
X149283334Y-79290000D01*
X149416667Y-79431905D01*
X149483334Y-79573810D01*
X149550000Y-79857619D01*
X149550000Y-80070476D01*
X149483334Y-80354286D01*
X149416667Y-80496190D01*
X149283334Y-80638095D01*
X149083334Y-80709048D01*
X148750000Y-80709048D01*
X145816667Y-82818333D02*
X146483333Y-82818333D01*
X145683333Y-83244048D02*
X146150000Y-81754048D01*
X146616667Y-83244048D01*
X147350000Y-81754048D02*
X147483333Y-81754048D01*
X147616667Y-81825000D01*
X147683333Y-81895952D01*
X147750000Y-82037857D01*
X147816667Y-82321667D01*
X147816667Y-82676429D01*
X147750000Y-82960238D01*
X147683333Y-83102143D01*
X147616667Y-83173095D01*
X147483333Y-83244048D01*
X147350000Y-83244048D01*
X147216667Y-83173095D01*
X147150000Y-83102143D01*
X147083333Y-82960238D01*
X147016667Y-82676429D01*
X147016667Y-82321667D01*
X147083333Y-82037857D01*
X147150000Y-81895952D01*
X147216667Y-81825000D01*
X147350000Y-81754048D01*
X145816667Y-85353333D02*
X146483333Y-85353333D01*
X145683333Y-85779048D02*
X146150000Y-84289048D01*
X146616667Y-85779048D01*
X147816667Y-85779048D02*
X147016667Y-85779048D01*
X147416667Y-85779048D02*
X147416667Y-84289048D01*
X147283333Y-84501905D01*
X147150000Y-84643810D01*
X147016667Y-84714762D01*
X145816667Y-87888333D02*
X146483333Y-87888333D01*
X145683333Y-88314048D02*
X146150000Y-86824048D01*
X146616667Y-88314048D01*
X147016667Y-86965952D02*
X147083333Y-86895000D01*
X147216667Y-86824048D01*
X147550000Y-86824048D01*
X147683333Y-86895000D01*
X147750000Y-86965952D01*
X147816667Y-87107857D01*
X147816667Y-87249762D01*
X147750000Y-87462619D01*
X146950000Y-88314048D01*
X147816667Y-88314048D01*
X145816667Y-90423333D02*
X146483333Y-90423333D01*
X145683333Y-90849048D02*
X146150000Y-89359048D01*
X146616667Y-90849048D01*
X146950000Y-89359048D02*
X147816667Y-89359048D01*
X147350000Y-89926667D01*
X147550000Y-89926667D01*
X147683333Y-89997619D01*
X147750000Y-90068571D01*
X147816667Y-90210476D01*
X147816667Y-90565238D01*
X147750000Y-90707143D01*
X147683333Y-90778095D01*
X147550000Y-90849048D01*
X147150000Y-90849048D01*
X147016667Y-90778095D01*
X146950000Y-90707143D01*
X145816667Y-92958333D02*
X146483333Y-92958333D01*
X145683333Y-93384048D02*
X146150000Y-91894048D01*
X146616667Y-93384048D01*
X147683333Y-92390714D02*
X147683333Y-93384048D01*
X147350000Y-91823095D02*
X147016667Y-92887381D01*
X147883333Y-92887381D01*
X146683333Y-95777143D02*
X146616667Y-95848095D01*
X146416667Y-95919048D01*
X146283333Y-95919048D01*
X146083333Y-95848095D01*
X145950000Y-95706190D01*
X145883333Y-95564286D01*
X145816667Y-95280476D01*
X145816667Y-95067619D01*
X145883333Y-94783810D01*
X145950000Y-94641905D01*
X146083333Y-94500000D01*
X146283333Y-94429048D01*
X146416667Y-94429048D01*
X146616667Y-94500000D01*
X146683333Y-94570952D01*
X147216667Y-95848095D02*
X147416667Y-95919048D01*
X147750000Y-95919048D01*
X147883333Y-95848095D01*
X147950000Y-95777143D01*
X148016667Y-95635238D01*
X148016667Y-95493333D01*
X147950000Y-95351429D01*
X147883333Y-95280476D01*
X147750000Y-95209524D01*
X147483333Y-95138571D01*
X147350000Y-95067619D01*
X147283333Y-94996667D01*
X147216667Y-94854762D01*
X147216667Y-94712857D01*
X147283333Y-94570952D01*
X147350000Y-94500000D01*
X147483333Y-94429048D01*
X147816667Y-94429048D01*
X148016667Y-94500000D01*
X145750000Y-96964048D02*
X146083333Y-98454048D01*
X146350000Y-97389762D01*
X146616667Y-98454048D01*
X146950000Y-96964048D01*
X148283333Y-98454048D02*
X147816667Y-97744524D01*
X147483333Y-98454048D02*
X147483333Y-96964048D01*
X148016667Y-96964048D01*
X148150000Y-97035000D01*
X148216667Y-97105952D01*
X148283333Y-97247857D01*
X148283333Y-97460714D01*
X148216667Y-97602619D01*
X148150000Y-97673571D01*
X148016667Y-97744524D01*
X147483333Y-97744524D01*
X145883333Y-100208571D02*
X146350000Y-100208571D01*
X146550000Y-100989048D02*
X145883333Y-100989048D01*
X145883333Y-99499048D01*
X146550000Y-99499048D01*
X147150000Y-100989048D02*
X147150000Y-99499048D01*
X147950000Y-100989048D01*
X147950000Y-99499048D01*
X145883333Y-103524048D02*
X145883333Y-102034048D01*
X146816667Y-102034048D02*
X147083334Y-102034048D01*
X147216667Y-102105000D01*
X147350000Y-102246905D01*
X147416667Y-102530714D01*
X147416667Y-103027381D01*
X147350000Y-103311190D01*
X147216667Y-103453095D01*
X147083334Y-103524048D01*
X146816667Y-103524048D01*
X146683334Y-103453095D01*
X146550000Y-103311190D01*
X146483334Y-103027381D01*
X146483334Y-102530714D01*
X146550000Y-102246905D01*
X146683334Y-102105000D01*
X146816667Y-102034048D01*
D13*
X160650000Y-85700000D02*
X159650000Y-85700000D01*
X159650000Y-87400000D02*
X160650000Y-87400000D01*
X156000000Y-87400000D02*
X157000000Y-87400000D01*
X157000000Y-85700000D02*
X156000000Y-85700000D01*
D14*
X142870000Y-103905000D02*
X145530000Y-103905000D01*
X142870000Y-78445000D02*
X142870000Y-103905000D01*
X145530000Y-78445000D02*
X145530000Y-103905000D01*
X142870000Y-78445000D02*
X145530000Y-78445000D01*
X142870000Y-77175000D02*
X142870000Y-75845000D01*
X142870000Y-75845000D02*
X144200000Y-75845000D01*
D13*
X173775000Y-86215000D02*
X173250000Y-86215000D01*
X173775000Y-93465000D02*
X173250000Y-93465000D01*
X166525000Y-93465000D02*
X167050000Y-93465000D01*
X166525000Y-86215000D02*
X167050000Y-86215000D01*
X173775000Y-86215000D02*
X173775000Y-86740000D01*
X166525000Y-86215000D02*
X166525000Y-86740000D01*
X166525000Y-93465000D02*
X166525000Y-92940000D01*
X173775000Y-93465000D02*
X173775000Y-92940000D01*
X173250000Y-86215000D02*
X173250000Y-84840000D01*
D14*
X191770000Y-81010000D02*
X191770000Y-78350000D01*
X153610000Y-81010000D02*
X191770000Y-81010000D01*
X153610000Y-78350000D02*
X191770000Y-78350000D01*
X153610000Y-81010000D02*
X153610000Y-78350000D01*
X152340000Y-81010000D02*
X151010000Y-81010000D01*
X151010000Y-81010000D02*
X151010000Y-79680000D01*
X191770000Y-101330000D02*
X191770000Y-98670000D01*
X153610000Y-101330000D02*
X191770000Y-101330000D01*
X153610000Y-98670000D02*
X191770000Y-98670000D01*
X153610000Y-101330000D02*
X153610000Y-98670000D01*
X152340000Y-101330000D02*
X151010000Y-101330000D01*
X151010000Y-101330000D02*
X151010000Y-100000000D01*
D15*
G36*
X176930836Y-91279099D02*
X176955441Y-91189661D01*
X176994124Y-91106214D01*
X177044984Y-91033709D01*
X177055909Y-91021533D01*
X177100443Y-90973923D01*
X176941462Y-90973923D01*
X176941462Y-90846923D01*
X178125981Y-90847067D01*
X178307579Y-90847080D01*
X178470723Y-90847102D01*
X178616494Y-90847181D01*
X178745976Y-90847364D01*
X178860253Y-90847698D01*
X178960408Y-90848231D01*
X179047524Y-90849011D01*
X179122683Y-90850083D01*
X179186970Y-90851496D01*
X179241468Y-90853297D01*
X179287260Y-90855534D01*
X179325428Y-90858252D01*
X179357057Y-90861500D01*
X179383229Y-90865326D01*
X179405028Y-90869775D01*
X179423537Y-90874896D01*
X179439839Y-90880736D01*
X179455018Y-90887342D01*
X179470156Y-90894761D01*
X179486337Y-90903041D01*
X179493656Y-90906762D01*
X179549399Y-90941983D01*
X179606122Y-90990018D01*
X179658236Y-91045278D01*
X179700154Y-91102176D01*
X179714699Y-91127805D01*
X179751551Y-91221459D01*
X179770608Y-91319476D01*
X179771470Y-91418534D01*
X179759064Y-91495161D01*
X179727497Y-91585257D01*
X179679379Y-91667869D01*
X179616981Y-91740754D01*
X179542575Y-91801672D01*
X179458433Y-91848380D01*
X179371658Y-91877522D01*
X179334832Y-91885243D01*
X179301812Y-91890533D01*
X179283635Y-91892086D01*
X179269094Y-91891288D01*
X179261057Y-91885722D01*
X179257597Y-91870933D01*
X179256785Y-91842463D01*
X179256769Y-91829989D01*
X179256769Y-91767748D01*
X179308040Y-91760946D01*
X179384612Y-91741311D01*
X179457161Y-91704593D01*
X179522424Y-91653232D01*
X179577138Y-91589668D01*
X179609128Y-91535781D01*
X179624666Y-91502870D01*
X179634472Y-91476358D01*
X179639843Y-91449787D01*
X179642075Y-91416700D01*
X179642465Y-91370640D01*
X179642464Y-91369782D01*
X179641507Y-91319429D01*
X179638274Y-91282668D01*
X179631879Y-91253603D01*
X179621433Y-91226338D01*
X179620603Y-91224511D01*
X179574037Y-91144023D01*
X179514927Y-91077911D01*
X179444236Y-91027048D01*
X179364948Y-90992931D01*
X179345780Y-90987470D01*
X179325668Y-90983156D01*
X179302112Y-90979856D01*
X179272607Y-90977438D01*
X179234652Y-90975771D01*
X179185743Y-90974720D01*
X179123376Y-90974154D01*
X179045051Y-90973940D01*
X179005878Y-90973923D01*
X178707882Y-90973923D01*
X178750789Y-91021646D01*
X178809702Y-91101332D01*
X178852080Y-91189661D01*
X178877230Y-91283926D01*
X178884456Y-91381421D01*
X178873063Y-91479441D01*
X178870830Y-91489350D01*
X178839490Y-91580967D01*
X178791628Y-91664814D01*
X178729453Y-91738684D01*
X178655173Y-91800367D01*
X178570998Y-91847655D01*
X178482658Y-91877522D01*
X178456736Y-91881185D01*
X178413649Y-91884370D01*
X178355764Y-91887077D01*
X178285451Y-91889307D01*
X178205075Y-91891061D01*
X178117007Y-91892339D01*
X178023612Y-91893142D01*
X177927259Y-91893470D01*
X177830315Y-91893325D01*
X177735149Y-91892707D01*
X177644127Y-91891616D01*
X177559619Y-91890053D01*
X177483991Y-91888019D01*
X177419612Y-91885514D01*
X177368849Y-91882540D01*
X177346885Y-91880366D01*
X177346885Y-91760346D01*
X178460577Y-91760346D01*
X178526429Y-91729152D01*
X178598182Y-91685278D01*
X178660094Y-91627697D01*
X178709237Y-91559889D01*
X178742685Y-91485338D01*
X178748555Y-91464867D01*
X178752587Y-91437272D01*
X178754749Y-91397974D01*
X178754652Y-91354750D01*
X178754401Y-91347991D01*
X178750533Y-91298180D01*
X178742405Y-91258274D01*
X178727815Y-91218749D01*
X178721123Y-91203985D01*
X178676698Y-91131421D01*
X178617228Y-91068992D01*
X178545942Y-91019914D01*
X178526429Y-91010002D01*
X178460577Y-90978807D01*
X177346885Y-90978807D01*
X177281033Y-91010002D01*
X177206093Y-91056067D01*
X177142561Y-91116886D01*
X177093208Y-91189688D01*
X177085002Y-91206032D01*
X177070380Y-91238588D01*
X177061196Y-91265644D01*
X177056204Y-91293726D01*
X177054159Y-91329363D01*
X177053808Y-91369577D01*
X177054347Y-91416507D01*
X177056795Y-91450438D01*
X177062397Y-91477898D01*
X177072398Y-91505414D01*
X177085002Y-91533121D01*
X177131067Y-91608061D01*
X177191887Y-91671593D01*
X177264688Y-91720946D01*
X177281033Y-91729152D01*
X177346885Y-91760346D01*
X177346885Y-91880366D01*
X177334069Y-91879096D01*
X177323469Y-91877211D01*
X177231722Y-91845928D01*
X177148646Y-91798545D01*
X177075943Y-91737213D01*
X177015314Y-91664085D01*
X176968459Y-91581312D01*
X176937081Y-91491048D01*
X176922881Y-91395444D01*
X176922212Y-91369577D01*
X176930836Y-91279099D01*
X176930836Y-91279099D01*
G37*
X176930836Y-91279099D02*
X176955441Y-91189661D01*
X176994124Y-91106214D01*
X177044984Y-91033709D01*
X177055909Y-91021533D01*
X177100443Y-90973923D01*
X176941462Y-90973923D01*
X176941462Y-90846923D01*
X178125981Y-90847067D01*
X178307579Y-90847080D01*
X178470723Y-90847102D01*
X178616494Y-90847181D01*
X178745976Y-90847364D01*
X178860253Y-90847698D01*
X178960408Y-90848231D01*
X179047524Y-90849011D01*
X179122683Y-90850083D01*
X179186970Y-90851496D01*
X179241468Y-90853297D01*
X179287260Y-90855534D01*
X179325428Y-90858252D01*
X179357057Y-90861500D01*
X179383229Y-90865326D01*
X179405028Y-90869775D01*
X179423537Y-90874896D01*
X179439839Y-90880736D01*
X179455018Y-90887342D01*
X179470156Y-90894761D01*
X179486337Y-90903041D01*
X179493656Y-90906762D01*
X179549399Y-90941983D01*
X179606122Y-90990018D01*
X179658236Y-91045278D01*
X179700154Y-91102176D01*
X179714699Y-91127805D01*
X179751551Y-91221459D01*
X179770608Y-91319476D01*
X179771470Y-91418534D01*
X179759064Y-91495161D01*
X179727497Y-91585257D01*
X179679379Y-91667869D01*
X179616981Y-91740754D01*
X179542575Y-91801672D01*
X179458433Y-91848380D01*
X179371658Y-91877522D01*
X179334832Y-91885243D01*
X179301812Y-91890533D01*
X179283635Y-91892086D01*
X179269094Y-91891288D01*
X179261057Y-91885722D01*
X179257597Y-91870933D01*
X179256785Y-91842463D01*
X179256769Y-91829989D01*
X179256769Y-91767748D01*
X179308040Y-91760946D01*
X179384612Y-91741311D01*
X179457161Y-91704593D01*
X179522424Y-91653232D01*
X179577138Y-91589668D01*
X179609128Y-91535781D01*
X179624666Y-91502870D01*
X179634472Y-91476358D01*
X179639843Y-91449787D01*
X179642075Y-91416700D01*
X179642465Y-91370640D01*
X179642464Y-91369782D01*
X179641507Y-91319429D01*
X179638274Y-91282668D01*
X179631879Y-91253603D01*
X179621433Y-91226338D01*
X179620603Y-91224511D01*
X179574037Y-91144023D01*
X179514927Y-91077911D01*
X179444236Y-91027048D01*
X179364948Y-90992931D01*
X179345780Y-90987470D01*
X179325668Y-90983156D01*
X179302112Y-90979856D01*
X179272607Y-90977438D01*
X179234652Y-90975771D01*
X179185743Y-90974720D01*
X179123376Y-90974154D01*
X179045051Y-90973940D01*
X179005878Y-90973923D01*
X178707882Y-90973923D01*
X178750789Y-91021646D01*
X178809702Y-91101332D01*
X178852080Y-91189661D01*
X178877230Y-91283926D01*
X178884456Y-91381421D01*
X178873063Y-91479441D01*
X178870830Y-91489350D01*
X178839490Y-91580967D01*
X178791628Y-91664814D01*
X178729453Y-91738684D01*
X178655173Y-91800367D01*
X178570998Y-91847655D01*
X178482658Y-91877522D01*
X178456736Y-91881185D01*
X178413649Y-91884370D01*
X178355764Y-91887077D01*
X178285451Y-91889307D01*
X178205075Y-91891061D01*
X178117007Y-91892339D01*
X178023612Y-91893142D01*
X177927259Y-91893470D01*
X177830315Y-91893325D01*
X177735149Y-91892707D01*
X177644127Y-91891616D01*
X177559619Y-91890053D01*
X177483991Y-91888019D01*
X177419612Y-91885514D01*
X177368849Y-91882540D01*
X177346885Y-91880366D01*
X177346885Y-91760346D01*
X178460577Y-91760346D01*
X178526429Y-91729152D01*
X178598182Y-91685278D01*
X178660094Y-91627697D01*
X178709237Y-91559889D01*
X178742685Y-91485338D01*
X178748555Y-91464867D01*
X178752587Y-91437272D01*
X178754749Y-91397974D01*
X178754652Y-91354750D01*
X178754401Y-91347991D01*
X178750533Y-91298180D01*
X178742405Y-91258274D01*
X178727815Y-91218749D01*
X178721123Y-91203985D01*
X178676698Y-91131421D01*
X178617228Y-91068992D01*
X178545942Y-91019914D01*
X178526429Y-91010002D01*
X178460577Y-90978807D01*
X177346885Y-90978807D01*
X177281033Y-91010002D01*
X177206093Y-91056067D01*
X177142561Y-91116886D01*
X177093208Y-91189688D01*
X177085002Y-91206032D01*
X177070380Y-91238588D01*
X177061196Y-91265644D01*
X177056204Y-91293726D01*
X177054159Y-91329363D01*
X177053808Y-91369577D01*
X177054347Y-91416507D01*
X177056795Y-91450438D01*
X177062397Y-91477898D01*
X177072398Y-91505414D01*
X177085002Y-91533121D01*
X177131067Y-91608061D01*
X177191887Y-91671593D01*
X177264688Y-91720946D01*
X177281033Y-91729152D01*
X177346885Y-91760346D01*
X177346885Y-91880366D01*
X177334069Y-91879096D01*
X177323469Y-91877211D01*
X177231722Y-91845928D01*
X177148646Y-91798545D01*
X177075943Y-91737213D01*
X177015314Y-91664085D01*
X176968459Y-91581312D01*
X176937081Y-91491048D01*
X176922881Y-91395444D01*
X176922212Y-91369577D01*
X176930836Y-91279099D01*
G36*
X176931322Y-92573378D02*
X176957432Y-92483195D01*
X176998715Y-92400093D01*
X177053341Y-92325827D01*
X177119482Y-92262152D01*
X177195310Y-92210825D01*
X177278996Y-92173600D01*
X177368710Y-92152234D01*
X177462626Y-92148482D01*
X177464116Y-92148573D01*
X177541694Y-92161194D01*
X177608892Y-92189383D01*
X177662451Y-92228684D01*
X177680990Y-92246292D01*
X177698148Y-92264976D01*
X177714662Y-92286317D01*
X177731269Y-92311891D01*
X177748706Y-92343280D01*
X177767712Y-92382060D01*
X177789023Y-92429811D01*
X177813378Y-92488112D01*
X177841513Y-92558542D01*
X177874167Y-92642679D01*
X177912076Y-92742103D01*
X177953398Y-92851536D01*
X177975007Y-92909436D01*
X177994047Y-92961425D01*
X178009497Y-93004630D01*
X178020334Y-93036182D01*
X178025537Y-93053211D01*
X178025846Y-93055060D01*
X178032013Y-93058882D01*
X178051442Y-93061581D01*
X178085525Y-93063205D01*
X178135657Y-93063806D01*
X178203229Y-93063433D01*
X178243212Y-93062908D01*
X178460577Y-93059654D01*
X178526429Y-93028459D01*
X178601369Y-92982394D01*
X178664901Y-92921575D01*
X178714254Y-92848773D01*
X178722460Y-92832429D01*
X178737081Y-92799873D01*
X178746266Y-92772818D01*
X178751258Y-92744735D01*
X178753303Y-92709098D01*
X178753654Y-92668884D01*
X178753115Y-92621954D01*
X178750667Y-92588023D01*
X178745065Y-92560564D01*
X178735064Y-92533047D01*
X178722460Y-92505340D01*
X178679363Y-92434751D01*
X178623057Y-92374037D01*
X178556877Y-92325711D01*
X178484156Y-92292286D01*
X178420152Y-92277524D01*
X178367769Y-92270979D01*
X178367769Y-92208605D01*
X178368258Y-92174814D01*
X178370821Y-92156116D01*
X178377101Y-92148073D01*
X178388741Y-92146244D01*
X178390859Y-92146231D01*
X178443801Y-92151751D01*
X178505617Y-92167091D01*
X178569498Y-92190420D01*
X178590700Y-92199952D01*
X178673297Y-92249478D01*
X178743935Y-92312864D01*
X178801487Y-92387706D01*
X178844821Y-92471600D01*
X178872810Y-92562143D01*
X178884323Y-92656931D01*
X178878230Y-92753560D01*
X178870064Y-92794468D01*
X178838568Y-92884278D01*
X178790507Y-92966751D01*
X178728188Y-93039610D01*
X178653919Y-93100578D01*
X178570006Y-93147378D01*
X178482658Y-93176830D01*
X178456941Y-93180450D01*
X178414056Y-93183604D01*
X178356369Y-93186291D01*
X178286246Y-93188512D01*
X178206051Y-93190265D01*
X178118152Y-93191552D01*
X178024912Y-93192372D01*
X177928698Y-93192726D01*
X177831874Y-93192613D01*
X177761823Y-93192186D01*
X177761823Y-93064126D01*
X177808984Y-93064069D01*
X177842854Y-93063380D01*
X177865516Y-93061943D01*
X177879052Y-93059645D01*
X177885544Y-93056371D01*
X177887074Y-93052006D01*
X177886277Y-93048142D01*
X177881583Y-93034863D01*
X177870862Y-93005671D01*
X177854995Y-92962929D01*
X177834864Y-92909002D01*
X177811351Y-92846251D01*
X177785335Y-92777042D01*
X177772347Y-92742566D01*
X177744552Y-92669575D01*
X177717777Y-92600647D01*
X177693088Y-92538421D01*
X177671549Y-92485536D01*
X177654227Y-92444631D01*
X177642187Y-92418344D01*
X177639061Y-92412466D01*
X177598552Y-92352881D01*
X177556159Y-92311228D01*
X177509135Y-92285916D01*
X177454733Y-92275360D01*
X177403843Y-92276490D01*
X177322368Y-92293614D01*
X177246549Y-92328126D01*
X177179063Y-92378107D01*
X177122586Y-92441634D01*
X177085002Y-92505340D01*
X177070380Y-92537896D01*
X177061196Y-92564951D01*
X177056204Y-92593034D01*
X177054159Y-92628671D01*
X177053808Y-92668884D01*
X177054347Y-92715815D01*
X177056795Y-92749746D01*
X177062397Y-92777205D01*
X177072398Y-92804722D01*
X177085002Y-92832429D01*
X177131067Y-92907369D01*
X177191887Y-92970901D01*
X177264688Y-93020254D01*
X177281033Y-93028459D01*
X177346885Y-93059654D01*
X177619303Y-93062796D01*
X177699290Y-93063663D01*
X177761823Y-93064126D01*
X177761823Y-93192186D01*
X177736807Y-93192033D01*
X177645862Y-93190986D01*
X177561405Y-93189473D01*
X177485800Y-93187493D01*
X177421413Y-93185046D01*
X177370610Y-93182133D01*
X177335757Y-93178753D01*
X177324804Y-93176830D01*
X177232359Y-93145404D01*
X177148808Y-93097957D01*
X177075818Y-93036594D01*
X177015059Y-92963417D01*
X176968197Y-92880534D01*
X176936901Y-92790047D01*
X176922840Y-92694061D01*
X176922212Y-92668884D01*
X176931322Y-92573378D01*
X176931322Y-92573378D01*
G37*
X176931322Y-92573378D02*
X176957432Y-92483195D01*
X176998715Y-92400093D01*
X177053341Y-92325827D01*
X177119482Y-92262152D01*
X177195310Y-92210825D01*
X177278996Y-92173600D01*
X177368710Y-92152234D01*
X177462626Y-92148482D01*
X177464116Y-92148573D01*
X177541694Y-92161194D01*
X177608892Y-92189383D01*
X177662451Y-92228684D01*
X177680990Y-92246292D01*
X177698148Y-92264976D01*
X177714662Y-92286317D01*
X177731269Y-92311891D01*
X177748706Y-92343280D01*
X177767712Y-92382060D01*
X177789023Y-92429811D01*
X177813378Y-92488112D01*
X177841513Y-92558542D01*
X177874167Y-92642679D01*
X177912076Y-92742103D01*
X177953398Y-92851536D01*
X177975007Y-92909436D01*
X177994047Y-92961425D01*
X178009497Y-93004630D01*
X178020334Y-93036182D01*
X178025537Y-93053211D01*
X178025846Y-93055060D01*
X178032013Y-93058882D01*
X178051442Y-93061581D01*
X178085525Y-93063205D01*
X178135657Y-93063806D01*
X178203229Y-93063433D01*
X178243212Y-93062908D01*
X178460577Y-93059654D01*
X178526429Y-93028459D01*
X178601369Y-92982394D01*
X178664901Y-92921575D01*
X178714254Y-92848773D01*
X178722460Y-92832429D01*
X178737081Y-92799873D01*
X178746266Y-92772818D01*
X178751258Y-92744735D01*
X178753303Y-92709098D01*
X178753654Y-92668884D01*
X178753115Y-92621954D01*
X178750667Y-92588023D01*
X178745065Y-92560564D01*
X178735064Y-92533047D01*
X178722460Y-92505340D01*
X178679363Y-92434751D01*
X178623057Y-92374037D01*
X178556877Y-92325711D01*
X178484156Y-92292286D01*
X178420152Y-92277524D01*
X178367769Y-92270979D01*
X178367769Y-92208605D01*
X178368258Y-92174814D01*
X178370821Y-92156116D01*
X178377101Y-92148073D01*
X178388741Y-92146244D01*
X178390859Y-92146231D01*
X178443801Y-92151751D01*
X178505617Y-92167091D01*
X178569498Y-92190420D01*
X178590700Y-92199952D01*
X178673297Y-92249478D01*
X178743935Y-92312864D01*
X178801487Y-92387706D01*
X178844821Y-92471600D01*
X178872810Y-92562143D01*
X178884323Y-92656931D01*
X178878230Y-92753560D01*
X178870064Y-92794468D01*
X178838568Y-92884278D01*
X178790507Y-92966751D01*
X178728188Y-93039610D01*
X178653919Y-93100578D01*
X178570006Y-93147378D01*
X178482658Y-93176830D01*
X178456941Y-93180450D01*
X178414056Y-93183604D01*
X178356369Y-93186291D01*
X178286246Y-93188512D01*
X178206051Y-93190265D01*
X178118152Y-93191552D01*
X178024912Y-93192372D01*
X177928698Y-93192726D01*
X177831874Y-93192613D01*
X177761823Y-93192186D01*
X177761823Y-93064126D01*
X177808984Y-93064069D01*
X177842854Y-93063380D01*
X177865516Y-93061943D01*
X177879052Y-93059645D01*
X177885544Y-93056371D01*
X177887074Y-93052006D01*
X177886277Y-93048142D01*
X177881583Y-93034863D01*
X177870862Y-93005671D01*
X177854995Y-92962929D01*
X177834864Y-92909002D01*
X177811351Y-92846251D01*
X177785335Y-92777042D01*
X177772347Y-92742566D01*
X177744552Y-92669575D01*
X177717777Y-92600647D01*
X177693088Y-92538421D01*
X177671549Y-92485536D01*
X177654227Y-92444631D01*
X177642187Y-92418344D01*
X177639061Y-92412466D01*
X177598552Y-92352881D01*
X177556159Y-92311228D01*
X177509135Y-92285916D01*
X177454733Y-92275360D01*
X177403843Y-92276490D01*
X177322368Y-92293614D01*
X177246549Y-92328126D01*
X177179063Y-92378107D01*
X177122586Y-92441634D01*
X177085002Y-92505340D01*
X177070380Y-92537896D01*
X177061196Y-92564951D01*
X177056204Y-92593034D01*
X177054159Y-92628671D01*
X177053808Y-92668884D01*
X177054347Y-92715815D01*
X177056795Y-92749746D01*
X177062397Y-92777205D01*
X177072398Y-92804722D01*
X177085002Y-92832429D01*
X177131067Y-92907369D01*
X177191887Y-92970901D01*
X177264688Y-93020254D01*
X177281033Y-93028459D01*
X177346885Y-93059654D01*
X177619303Y-93062796D01*
X177699290Y-93063663D01*
X177761823Y-93064126D01*
X177761823Y-93192186D01*
X177736807Y-93192033D01*
X177645862Y-93190986D01*
X177561405Y-93189473D01*
X177485800Y-93187493D01*
X177421413Y-93185046D01*
X177370610Y-93182133D01*
X177335757Y-93178753D01*
X177324804Y-93176830D01*
X177232359Y-93145404D01*
X177148808Y-93097957D01*
X177075818Y-93036594D01*
X177015059Y-92963417D01*
X176968197Y-92880534D01*
X176936901Y-92790047D01*
X176922840Y-92694061D01*
X176922212Y-92668884D01*
X176931322Y-92573378D01*
G36*
X176924318Y-89980064D02*
X176940098Y-89893788D01*
X176970988Y-89811600D01*
X177016709Y-89735706D01*
X177076983Y-89668313D01*
X177151529Y-89611625D01*
X177183209Y-89593524D01*
X177205346Y-89581975D01*
X177225810Y-89571879D01*
X177246018Y-89563139D01*
X177267387Y-89555657D01*
X177291332Y-89549334D01*
X177319270Y-89544072D01*
X177352618Y-89539773D01*
X177392792Y-89536340D01*
X177441209Y-89533673D01*
X177499284Y-89531675D01*
X177568435Y-89530249D01*
X177650078Y-89529295D01*
X177745630Y-89528715D01*
X177856506Y-89528413D01*
X177984124Y-89528289D01*
X178125981Y-89528246D01*
X178866000Y-89528077D01*
X178866000Y-89655077D01*
X178707882Y-89655077D01*
X178750789Y-89702800D01*
X178809062Y-89781795D01*
X178851290Y-89869867D01*
X178876711Y-89964006D01*
X178884561Y-90061201D01*
X178874080Y-90158442D01*
X178870368Y-90174979D01*
X178838278Y-90266158D01*
X178788016Y-90350807D01*
X178730242Y-90418087D01*
X178665186Y-90475128D01*
X178596952Y-90517966D01*
X178522420Y-90547687D01*
X178438471Y-90565381D01*
X178341987Y-90572136D01*
X178312096Y-90571941D01*
X178312096Y-90446120D01*
X178362155Y-90444416D01*
X178412195Y-90441410D01*
X178449451Y-90436659D01*
X178480675Y-90428738D01*
X178512619Y-90416221D01*
X178527260Y-90409538D01*
X178598318Y-90366330D01*
X178659900Y-90309108D01*
X178708970Y-90241489D01*
X178742492Y-90167087D01*
X178748555Y-90146020D01*
X178752587Y-90118426D01*
X178754749Y-90079128D01*
X178754652Y-90035904D01*
X178754401Y-90029145D01*
X178750533Y-89979334D01*
X178742405Y-89939428D01*
X178727815Y-89899903D01*
X178721123Y-89885139D01*
X178676698Y-89812574D01*
X178617228Y-89750145D01*
X178545942Y-89701068D01*
X178526429Y-89691156D01*
X178460577Y-89659961D01*
X178132005Y-89656935D01*
X177803433Y-89653908D01*
X177837321Y-89744858D01*
X177877998Y-89853329D01*
X177916356Y-89954239D01*
X177951744Y-90045944D01*
X177983512Y-90126798D01*
X178011009Y-90195157D01*
X178033586Y-90249377D01*
X178050592Y-90287813D01*
X178057691Y-90302309D01*
X178081190Y-90340100D01*
X178110095Y-90377268D01*
X178128759Y-90396805D01*
X178154576Y-90417606D01*
X178182077Y-90432174D01*
X178215003Y-90441274D01*
X178257096Y-90445668D01*
X178312096Y-90446120D01*
X178312096Y-90571941D01*
X178289616Y-90571793D01*
X178236589Y-90569973D01*
X178198163Y-90567294D01*
X178169401Y-90562910D01*
X178145367Y-90555978D01*
X178121122Y-90545654D01*
X178112553Y-90541516D01*
X178048420Y-90499408D01*
X177991379Y-90440108D01*
X177942750Y-90365089D01*
X177928227Y-90335962D01*
X177913953Y-90303510D01*
X177894406Y-90256541D01*
X177871111Y-90198855D01*
X177845594Y-90134252D01*
X177819380Y-90066533D01*
X177805920Y-90031192D01*
X177780388Y-89963777D01*
X177755379Y-89897802D01*
X177732301Y-89836974D01*
X177712559Y-89784999D01*
X177697561Y-89745584D01*
X177691914Y-89730788D01*
X177662965Y-89655077D01*
X177524073Y-89655077D01*
X177440857Y-89656834D01*
X177373159Y-89662570D01*
X177317238Y-89672977D01*
X177269350Y-89688749D01*
X177226217Y-89710310D01*
X177158573Y-89760347D01*
X177106903Y-89821526D01*
X177071657Y-89893126D01*
X177053283Y-89974427D01*
X177051785Y-89990256D01*
X177054657Y-90074953D01*
X177075137Y-90155026D01*
X177111447Y-90228282D01*
X177161808Y-90292525D01*
X177224443Y-90345564D01*
X177297572Y-90385203D01*
X177379418Y-90409250D01*
X177393289Y-90411516D01*
X177439693Y-90418274D01*
X177439693Y-90481175D01*
X177439325Y-90515083D01*
X177436955Y-90533888D01*
X177430686Y-90542022D01*
X177418619Y-90543920D01*
X177412827Y-90543932D01*
X177344545Y-90535706D01*
X177270967Y-90513245D01*
X177197217Y-90478845D01*
X177128415Y-90434802D01*
X177081824Y-90395562D01*
X177017872Y-90321933D01*
X176970425Y-90241363D01*
X176939202Y-90156057D01*
X176923926Y-90068223D01*
X176924318Y-89980064D01*
X176924318Y-89980064D01*
G37*
X176924318Y-89980064D02*
X176940098Y-89893788D01*
X176970988Y-89811600D01*
X177016709Y-89735706D01*
X177076983Y-89668313D01*
X177151529Y-89611625D01*
X177183209Y-89593524D01*
X177205346Y-89581975D01*
X177225810Y-89571879D01*
X177246018Y-89563139D01*
X177267387Y-89555657D01*
X177291332Y-89549334D01*
X177319270Y-89544072D01*
X177352618Y-89539773D01*
X177392792Y-89536340D01*
X177441209Y-89533673D01*
X177499284Y-89531675D01*
X177568435Y-89530249D01*
X177650078Y-89529295D01*
X177745630Y-89528715D01*
X177856506Y-89528413D01*
X177984124Y-89528289D01*
X178125981Y-89528246D01*
X178866000Y-89528077D01*
X178866000Y-89655077D01*
X178707882Y-89655077D01*
X178750789Y-89702800D01*
X178809062Y-89781795D01*
X178851290Y-89869867D01*
X178876711Y-89964006D01*
X178884561Y-90061201D01*
X178874080Y-90158442D01*
X178870368Y-90174979D01*
X178838278Y-90266158D01*
X178788016Y-90350807D01*
X178730242Y-90418087D01*
X178665186Y-90475128D01*
X178596952Y-90517966D01*
X178522420Y-90547687D01*
X178438471Y-90565381D01*
X178341987Y-90572136D01*
X178312096Y-90571941D01*
X178312096Y-90446120D01*
X178362155Y-90444416D01*
X178412195Y-90441410D01*
X178449451Y-90436659D01*
X178480675Y-90428738D01*
X178512619Y-90416221D01*
X178527260Y-90409538D01*
X178598318Y-90366330D01*
X178659900Y-90309108D01*
X178708970Y-90241489D01*
X178742492Y-90167087D01*
X178748555Y-90146020D01*
X178752587Y-90118426D01*
X178754749Y-90079128D01*
X178754652Y-90035904D01*
X178754401Y-90029145D01*
X178750533Y-89979334D01*
X178742405Y-89939428D01*
X178727815Y-89899903D01*
X178721123Y-89885139D01*
X178676698Y-89812574D01*
X178617228Y-89750145D01*
X178545942Y-89701068D01*
X178526429Y-89691156D01*
X178460577Y-89659961D01*
X178132005Y-89656935D01*
X177803433Y-89653908D01*
X177837321Y-89744858D01*
X177877998Y-89853329D01*
X177916356Y-89954239D01*
X177951744Y-90045944D01*
X177983512Y-90126798D01*
X178011009Y-90195157D01*
X178033586Y-90249377D01*
X178050592Y-90287813D01*
X178057691Y-90302309D01*
X178081190Y-90340100D01*
X178110095Y-90377268D01*
X178128759Y-90396805D01*
X178154576Y-90417606D01*
X178182077Y-90432174D01*
X178215003Y-90441274D01*
X178257096Y-90445668D01*
X178312096Y-90446120D01*
X178312096Y-90571941D01*
X178289616Y-90571793D01*
X178236589Y-90569973D01*
X178198163Y-90567294D01*
X178169401Y-90562910D01*
X178145367Y-90555978D01*
X178121122Y-90545654D01*
X178112553Y-90541516D01*
X178048420Y-90499408D01*
X177991379Y-90440108D01*
X177942750Y-90365089D01*
X177928227Y-90335962D01*
X177913953Y-90303510D01*
X177894406Y-90256541D01*
X177871111Y-90198855D01*
X177845594Y-90134252D01*
X177819380Y-90066533D01*
X177805920Y-90031192D01*
X177780388Y-89963777D01*
X177755379Y-89897802D01*
X177732301Y-89836974D01*
X177712559Y-89784999D01*
X177697561Y-89745584D01*
X177691914Y-89730788D01*
X177662965Y-89655077D01*
X177524073Y-89655077D01*
X177440857Y-89656834D01*
X177373159Y-89662570D01*
X177317238Y-89672977D01*
X177269350Y-89688749D01*
X177226217Y-89710310D01*
X177158573Y-89760347D01*
X177106903Y-89821526D01*
X177071657Y-89893126D01*
X177053283Y-89974427D01*
X177051785Y-89990256D01*
X177054657Y-90074953D01*
X177075137Y-90155026D01*
X177111447Y-90228282D01*
X177161808Y-90292525D01*
X177224443Y-90345564D01*
X177297572Y-90385203D01*
X177379418Y-90409250D01*
X177393289Y-90411516D01*
X177439693Y-90418274D01*
X177439693Y-90481175D01*
X177439325Y-90515083D01*
X177436955Y-90533888D01*
X177430686Y-90542022D01*
X177418619Y-90543920D01*
X177412827Y-90543932D01*
X177344545Y-90535706D01*
X177270967Y-90513245D01*
X177197217Y-90478845D01*
X177128415Y-90434802D01*
X177081824Y-90395562D01*
X177017872Y-90321933D01*
X176970425Y-90241363D01*
X176939202Y-90156057D01*
X176923926Y-90068223D01*
X176924318Y-89980064D01*
G36*
X177300481Y-87280915D02*
X177485413Y-87280781D01*
X177654933Y-87280470D01*
X177808615Y-87279983D01*
X177946034Y-87279326D01*
X178066766Y-87278502D01*
X178170385Y-87277515D01*
X178256466Y-87276369D01*
X178324585Y-87275068D01*
X178374315Y-87273615D01*
X178405232Y-87272015D01*
X178415495Y-87270799D01*
X178496272Y-87242537D01*
X178571041Y-87197834D01*
X178636966Y-87139528D01*
X178691209Y-87070454D01*
X178730935Y-86993451D01*
X178748178Y-86938139D01*
X178758131Y-86853493D01*
X178750147Y-86769775D01*
X178725774Y-86689383D01*
X178686558Y-86614717D01*
X178634045Y-86548177D01*
X178569783Y-86492161D01*
X178495318Y-86449069D01*
X178415495Y-86422046D01*
X178398106Y-86420344D01*
X178361603Y-86418787D01*
X178306412Y-86417379D01*
X178232959Y-86416123D01*
X178141668Y-86415023D01*
X178032965Y-86414084D01*
X177907273Y-86413308D01*
X177765020Y-86412701D01*
X177606629Y-86412266D01*
X177432525Y-86412006D01*
X177300481Y-86411931D01*
X176228308Y-86411692D01*
X176228308Y-86284285D01*
X177329789Y-86286931D01*
X178431269Y-86289577D01*
X178503375Y-86315908D01*
X178599466Y-86360786D01*
X178684626Y-86420511D01*
X178757110Y-86493337D01*
X178815171Y-86577521D01*
X178856067Y-86668400D01*
X178870433Y-86725176D01*
X178879265Y-86792017D01*
X178882184Y-86861473D01*
X178878814Y-86926095D01*
X178871323Y-86969355D01*
X178835760Y-87071889D01*
X178784489Y-87163014D01*
X178718061Y-87242040D01*
X178637030Y-87308281D01*
X178566621Y-87349348D01*
X178549005Y-87358213D01*
X178532832Y-87366135D01*
X178516962Y-87373167D01*
X178500251Y-87379362D01*
X178481558Y-87384774D01*
X178459740Y-87389455D01*
X178433657Y-87393458D01*
X178402164Y-87396838D01*
X178364122Y-87399646D01*
X178318387Y-87401937D01*
X178263817Y-87403762D01*
X178199271Y-87405176D01*
X178123607Y-87406230D01*
X178035681Y-87406980D01*
X177934353Y-87407477D01*
X177818481Y-87407774D01*
X177686921Y-87407925D01*
X177538533Y-87407984D01*
X177372173Y-87408002D01*
X177305366Y-87408009D01*
X176228308Y-87408154D01*
X176228308Y-87281154D01*
X177300481Y-87280915D01*
X177300481Y-87280915D01*
G37*
X177300481Y-87280915D02*
X177485413Y-87280781D01*
X177654933Y-87280470D01*
X177808615Y-87279983D01*
X177946034Y-87279326D01*
X178066766Y-87278502D01*
X178170385Y-87277515D01*
X178256466Y-87276369D01*
X178324585Y-87275068D01*
X178374315Y-87273615D01*
X178405232Y-87272015D01*
X178415495Y-87270799D01*
X178496272Y-87242537D01*
X178571041Y-87197834D01*
X178636966Y-87139528D01*
X178691209Y-87070454D01*
X178730935Y-86993451D01*
X178748178Y-86938139D01*
X178758131Y-86853493D01*
X178750147Y-86769775D01*
X178725774Y-86689383D01*
X178686558Y-86614717D01*
X178634045Y-86548177D01*
X178569783Y-86492161D01*
X178495318Y-86449069D01*
X178415495Y-86422046D01*
X178398106Y-86420344D01*
X178361603Y-86418787D01*
X178306412Y-86417379D01*
X178232959Y-86416123D01*
X178141668Y-86415023D01*
X178032965Y-86414084D01*
X177907273Y-86413308D01*
X177765020Y-86412701D01*
X177606629Y-86412266D01*
X177432525Y-86412006D01*
X177300481Y-86411931D01*
X176228308Y-86411692D01*
X176228308Y-86284285D01*
X177329789Y-86286931D01*
X178431269Y-86289577D01*
X178503375Y-86315908D01*
X178599466Y-86360786D01*
X178684626Y-86420511D01*
X178757110Y-86493337D01*
X178815171Y-86577521D01*
X178856067Y-86668400D01*
X178870433Y-86725176D01*
X178879265Y-86792017D01*
X178882184Y-86861473D01*
X178878814Y-86926095D01*
X178871323Y-86969355D01*
X178835760Y-87071889D01*
X178784489Y-87163014D01*
X178718061Y-87242040D01*
X178637030Y-87308281D01*
X178566621Y-87349348D01*
X178549005Y-87358213D01*
X178532832Y-87366135D01*
X178516962Y-87373167D01*
X178500251Y-87379362D01*
X178481558Y-87384774D01*
X178459740Y-87389455D01*
X178433657Y-87393458D01*
X178402164Y-87396838D01*
X178364122Y-87399646D01*
X178318387Y-87401937D01*
X178263817Y-87403762D01*
X178199271Y-87405176D01*
X178123607Y-87406230D01*
X178035681Y-87406980D01*
X177934353Y-87407477D01*
X177818481Y-87407774D01*
X177686921Y-87407925D01*
X177538533Y-87407984D01*
X177372173Y-87408002D01*
X177305366Y-87408009D01*
X176228308Y-87408154D01*
X176228308Y-87281154D01*
X177300481Y-87280915D01*
G36*
X178866000Y-93474846D02*
X178866000Y-93601764D01*
X177737253Y-93604247D01*
X176608507Y-93606731D01*
X177490580Y-93927777D01*
X177616338Y-93973592D01*
X177736897Y-94017598D01*
X177850989Y-94059326D01*
X177957343Y-94098309D01*
X178054692Y-94134078D01*
X178141767Y-94166166D01*
X178217297Y-94194105D01*
X178280014Y-94217427D01*
X178328650Y-94235663D01*
X178361935Y-94248346D01*
X178378600Y-94255009D01*
X178380307Y-94255861D01*
X178380185Y-94262163D01*
X178375422Y-94262899D01*
X178364643Y-94266193D01*
X178336805Y-94275768D01*
X178293186Y-94291161D01*
X178235067Y-94311911D01*
X178163724Y-94337554D01*
X178080439Y-94367629D01*
X177986488Y-94401674D01*
X177883152Y-94439227D01*
X177771710Y-94479825D01*
X177653439Y-94523006D01*
X177529620Y-94568308D01*
X177485510Y-94584469D01*
X176608136Y-94906038D01*
X177737068Y-94908521D01*
X178866000Y-94911005D01*
X178866000Y-95037923D01*
X176227415Y-95037923D01*
X176230304Y-94973378D01*
X176233193Y-94908832D01*
X177102654Y-94588280D01*
X177227548Y-94542199D01*
X177347350Y-94497927D01*
X177460772Y-94455944D01*
X177566530Y-94416729D01*
X177663336Y-94380762D01*
X177749903Y-94348522D01*
X177824945Y-94320487D01*
X177887176Y-94297139D01*
X177935309Y-94278955D01*
X177968057Y-94266416D01*
X177984134Y-94260000D01*
X177985504Y-94259347D01*
X177979002Y-94254408D01*
X177954074Y-94242987D01*
X177910724Y-94225087D01*
X177848959Y-94200710D01*
X177768782Y-94169857D01*
X177670200Y-94132530D01*
X177553217Y-94088733D01*
X177417839Y-94038465D01*
X177264071Y-93981731D01*
X177116043Y-93927371D01*
X176233193Y-93603775D01*
X176230304Y-93539311D01*
X176227415Y-93474846D01*
X178866000Y-93474846D01*
X178866000Y-93474846D01*
G37*
X178866000Y-93474846D02*
X178866000Y-93601764D01*
X177737253Y-93604247D01*
X176608507Y-93606731D01*
X177490580Y-93927777D01*
X177616338Y-93973592D01*
X177736897Y-94017598D01*
X177850989Y-94059326D01*
X177957343Y-94098309D01*
X178054692Y-94134078D01*
X178141767Y-94166166D01*
X178217297Y-94194105D01*
X178280014Y-94217427D01*
X178328650Y-94235663D01*
X178361935Y-94248346D01*
X178378600Y-94255009D01*
X178380307Y-94255861D01*
X178380185Y-94262163D01*
X178375422Y-94262899D01*
X178364643Y-94266193D01*
X178336805Y-94275768D01*
X178293186Y-94291161D01*
X178235067Y-94311911D01*
X178163724Y-94337554D01*
X178080439Y-94367629D01*
X177986488Y-94401674D01*
X177883152Y-94439227D01*
X177771710Y-94479825D01*
X177653439Y-94523006D01*
X177529620Y-94568308D01*
X177485510Y-94584469D01*
X176608136Y-94906038D01*
X177737068Y-94908521D01*
X178866000Y-94911005D01*
X178866000Y-95037923D01*
X176227415Y-95037923D01*
X176230304Y-94973378D01*
X176233193Y-94908832D01*
X177102654Y-94588280D01*
X177227548Y-94542199D01*
X177347350Y-94497927D01*
X177460772Y-94455944D01*
X177566530Y-94416729D01*
X177663336Y-94380762D01*
X177749903Y-94348522D01*
X177824945Y-94320487D01*
X177887176Y-94297139D01*
X177935309Y-94278955D01*
X177968057Y-94266416D01*
X177984134Y-94260000D01*
X177985504Y-94259347D01*
X177979002Y-94254408D01*
X177954074Y-94242987D01*
X177910724Y-94225087D01*
X177848959Y-94200710D01*
X177768782Y-94169857D01*
X177670200Y-94132530D01*
X177553217Y-94088733D01*
X177417839Y-94038465D01*
X177264071Y-93981731D01*
X177116043Y-93927371D01*
X176233193Y-93603775D01*
X176230304Y-93539311D01*
X176227415Y-93474846D01*
X178866000Y-93474846D01*
G36*
X178866000Y-87691461D02*
X178866000Y-87818380D01*
X177737253Y-87820863D01*
X176608507Y-87823346D01*
X177490580Y-88144393D01*
X177616338Y-88190208D01*
X177736897Y-88234213D01*
X177850989Y-88275942D01*
X177957343Y-88314924D01*
X178054692Y-88350694D01*
X178141767Y-88382782D01*
X178217297Y-88410721D01*
X178280014Y-88434042D01*
X178328650Y-88452279D01*
X178361935Y-88464962D01*
X178378600Y-88471624D01*
X178380307Y-88472476D01*
X178380185Y-88478778D01*
X178375422Y-88479514D01*
X178364643Y-88482809D01*
X178336805Y-88492384D01*
X178293186Y-88507777D01*
X178235067Y-88528526D01*
X178163724Y-88554169D01*
X178080439Y-88584245D01*
X177986488Y-88618290D01*
X177883152Y-88655842D01*
X177771710Y-88696440D01*
X177653439Y-88739621D01*
X177529620Y-88784924D01*
X177485510Y-88801085D01*
X176608136Y-89122654D01*
X178866000Y-89127620D01*
X178866000Y-89254538D01*
X176227415Y-89254538D01*
X176233193Y-89125448D01*
X177102654Y-88804895D01*
X177227548Y-88758814D01*
X177347350Y-88714542D01*
X177460772Y-88672559D01*
X177566530Y-88633345D01*
X177663336Y-88597377D01*
X177749903Y-88565137D01*
X177824945Y-88537103D01*
X177887176Y-88513754D01*
X177935309Y-88495571D01*
X177968057Y-88483031D01*
X177984134Y-88476616D01*
X177985504Y-88475962D01*
X177979002Y-88471023D01*
X177954074Y-88459602D01*
X177910724Y-88441702D01*
X177848959Y-88417325D01*
X177768782Y-88386472D01*
X177670200Y-88349146D01*
X177553217Y-88305348D01*
X177417839Y-88255081D01*
X177264071Y-88198346D01*
X177116043Y-88143986D01*
X176233193Y-87820391D01*
X176227415Y-87691461D01*
X178866000Y-87691461D01*
X178866000Y-87691461D01*
G37*
X178866000Y-87691461D02*
X178866000Y-87818380D01*
X177737253Y-87820863D01*
X176608507Y-87823346D01*
X177490580Y-88144393D01*
X177616338Y-88190208D01*
X177736897Y-88234213D01*
X177850989Y-88275942D01*
X177957343Y-88314924D01*
X178054692Y-88350694D01*
X178141767Y-88382782D01*
X178217297Y-88410721D01*
X178280014Y-88434042D01*
X178328650Y-88452279D01*
X178361935Y-88464962D01*
X178378600Y-88471624D01*
X178380307Y-88472476D01*
X178380185Y-88478778D01*
X178375422Y-88479514D01*
X178364643Y-88482809D01*
X178336805Y-88492384D01*
X178293186Y-88507777D01*
X178235067Y-88528526D01*
X178163724Y-88554169D01*
X178080439Y-88584245D01*
X177986488Y-88618290D01*
X177883152Y-88655842D01*
X177771710Y-88696440D01*
X177653439Y-88739621D01*
X177529620Y-88784924D01*
X177485510Y-88801085D01*
X176608136Y-89122654D01*
X178866000Y-89127620D01*
X178866000Y-89254538D01*
X176227415Y-89254538D01*
X176233193Y-89125448D01*
X177102654Y-88804895D01*
X177227548Y-88758814D01*
X177347350Y-88714542D01*
X177460772Y-88672559D01*
X177566530Y-88633345D01*
X177663336Y-88597377D01*
X177749903Y-88565137D01*
X177824945Y-88537103D01*
X177887176Y-88513754D01*
X177935309Y-88495571D01*
X177968057Y-88483031D01*
X177984134Y-88476616D01*
X177985504Y-88475962D01*
X177979002Y-88471023D01*
X177954074Y-88459602D01*
X177910724Y-88441702D01*
X177848959Y-88417325D01*
X177768782Y-88386472D01*
X177670200Y-88349146D01*
X177553217Y-88305348D01*
X177417839Y-88255081D01*
X177264071Y-88198346D01*
X177116043Y-88143986D01*
X176233193Y-87820391D01*
X176227415Y-87691461D01*
X178866000Y-87691461D01*
G36*
X176362635Y-85814001D02*
X176400190Y-85799344D01*
X176453352Y-85778636D01*
X176519511Y-85752890D01*
X176596059Y-85723120D01*
X176680385Y-85690343D01*
X176769882Y-85655571D01*
X176861940Y-85619819D01*
X176924110Y-85595684D01*
X177010398Y-85562090D01*
X177090852Y-85530572D01*
X177163690Y-85501844D01*
X177227129Y-85476616D01*
X177279386Y-85455601D01*
X177318678Y-85439512D01*
X177343224Y-85429061D01*
X177351259Y-85425000D01*
X177342441Y-85420590D01*
X177317176Y-85409864D01*
X177277246Y-85393532D01*
X177224434Y-85372307D01*
X177160522Y-85346902D01*
X177087294Y-85318029D01*
X177006531Y-85286400D01*
X176924110Y-85254316D01*
X176831799Y-85218477D01*
X176740290Y-85182933D01*
X176652192Y-85148700D01*
X176570116Y-85116792D01*
X176496669Y-85088223D01*
X176434461Y-85064008D01*
X176386102Y-85045162D01*
X176362635Y-85035999D01*
X176228308Y-84983481D01*
X176228308Y-84910587D01*
X176229242Y-84871516D01*
X176232268Y-84849947D01*
X176237723Y-84843922D01*
X176239635Y-84844693D01*
X176250407Y-84849325D01*
X176277902Y-84860464D01*
X176320638Y-84877523D01*
X176377132Y-84899920D01*
X176445900Y-84927069D01*
X176525461Y-84958385D01*
X176614331Y-84993284D01*
X176711028Y-85031181D01*
X176814068Y-85071492D01*
X176895222Y-85103192D01*
X177539483Y-85354691D01*
X178197703Y-85096768D01*
X178305482Y-85054564D01*
X178407917Y-85014509D01*
X178503560Y-84977165D01*
X178590965Y-84943094D01*
X178668685Y-84912859D01*
X178735272Y-84887022D01*
X178789280Y-84866146D01*
X178829263Y-84850792D01*
X178853773Y-84841523D01*
X178861389Y-84838846D01*
X178863694Y-84847783D01*
X178864669Y-84871334D01*
X178864132Y-84904608D01*
X178863986Y-84908344D01*
X178861116Y-84977843D01*
X178296943Y-85198596D01*
X178197446Y-85237617D01*
X178103545Y-85274616D01*
X178016787Y-85308973D01*
X177938721Y-85340066D01*
X177870896Y-85367273D01*
X177814858Y-85389973D01*
X177772158Y-85407545D01*
X177744344Y-85419366D01*
X177732963Y-85424815D01*
X177732769Y-85425041D01*
X177741628Y-85429474D01*
X177767172Y-85440312D01*
X177807853Y-85456940D01*
X177862123Y-85478743D01*
X177928432Y-85505106D01*
X178005234Y-85535412D01*
X178090979Y-85569049D01*
X178184118Y-85605399D01*
X178283105Y-85643848D01*
X178299285Y-85650116D01*
X178865801Y-85869500D01*
X178865901Y-85939889D01*
X178866000Y-86010278D01*
X178804943Y-85987145D01*
X178785341Y-85979624D01*
X178749242Y-85965675D01*
X178698351Y-85945961D01*
X178634378Y-85921145D01*
X178559030Y-85891890D01*
X178474014Y-85858859D01*
X178381038Y-85822716D01*
X178281810Y-85784123D01*
X178178037Y-85743744D01*
X178141683Y-85729593D01*
X177539482Y-85495175D01*
X176886549Y-85748280D01*
X176779219Y-85789872D01*
X176677314Y-85829334D01*
X176582283Y-85866107D01*
X176495573Y-85899633D01*
X176418632Y-85929353D01*
X176352908Y-85954707D01*
X176299849Y-85975136D01*
X176260903Y-85990081D01*
X176237518Y-85998984D01*
X176230962Y-86001384D01*
X176229646Y-85992445D01*
X176228696Y-85968946D01*
X176228309Y-85935865D01*
X176228308Y-85933952D01*
X176228308Y-85866519D01*
X176362635Y-85814001D01*
X176362635Y-85814001D01*
G37*
X176362635Y-85814001D02*
X176400190Y-85799344D01*
X176453352Y-85778636D01*
X176519511Y-85752890D01*
X176596059Y-85723120D01*
X176680385Y-85690343D01*
X176769882Y-85655571D01*
X176861940Y-85619819D01*
X176924110Y-85595684D01*
X177010398Y-85562090D01*
X177090852Y-85530572D01*
X177163690Y-85501844D01*
X177227129Y-85476616D01*
X177279386Y-85455601D01*
X177318678Y-85439512D01*
X177343224Y-85429061D01*
X177351259Y-85425000D01*
X177342441Y-85420590D01*
X177317176Y-85409864D01*
X177277246Y-85393532D01*
X177224434Y-85372307D01*
X177160522Y-85346902D01*
X177087294Y-85318029D01*
X177006531Y-85286400D01*
X176924110Y-85254316D01*
X176831799Y-85218477D01*
X176740290Y-85182933D01*
X176652192Y-85148700D01*
X176570116Y-85116792D01*
X176496669Y-85088223D01*
X176434461Y-85064008D01*
X176386102Y-85045162D01*
X176362635Y-85035999D01*
X176228308Y-84983481D01*
X176228308Y-84910587D01*
X176229242Y-84871516D01*
X176232268Y-84849947D01*
X176237723Y-84843922D01*
X176239635Y-84844693D01*
X176250407Y-84849325D01*
X176277902Y-84860464D01*
X176320638Y-84877523D01*
X176377132Y-84899920D01*
X176445900Y-84927069D01*
X176525461Y-84958385D01*
X176614331Y-84993284D01*
X176711028Y-85031181D01*
X176814068Y-85071492D01*
X176895222Y-85103192D01*
X177539483Y-85354691D01*
X178197703Y-85096768D01*
X178305482Y-85054564D01*
X178407917Y-85014509D01*
X178503560Y-84977165D01*
X178590965Y-84943094D01*
X178668685Y-84912859D01*
X178735272Y-84887022D01*
X178789280Y-84866146D01*
X178829263Y-84850792D01*
X178853773Y-84841523D01*
X178861389Y-84838846D01*
X178863694Y-84847783D01*
X178864669Y-84871334D01*
X178864132Y-84904608D01*
X178863986Y-84908344D01*
X178861116Y-84977843D01*
X178296943Y-85198596D01*
X178197446Y-85237617D01*
X178103545Y-85274616D01*
X178016787Y-85308973D01*
X177938721Y-85340066D01*
X177870896Y-85367273D01*
X177814858Y-85389973D01*
X177772158Y-85407545D01*
X177744344Y-85419366D01*
X177732963Y-85424815D01*
X177732769Y-85425041D01*
X177741628Y-85429474D01*
X177767172Y-85440312D01*
X177807853Y-85456940D01*
X177862123Y-85478743D01*
X177928432Y-85505106D01*
X178005234Y-85535412D01*
X178090979Y-85569049D01*
X178184118Y-85605399D01*
X178283105Y-85643848D01*
X178299285Y-85650116D01*
X178865801Y-85869500D01*
X178865901Y-85939889D01*
X178866000Y-86010278D01*
X178804943Y-85987145D01*
X178785341Y-85979624D01*
X178749242Y-85965675D01*
X178698351Y-85945961D01*
X178634378Y-85921145D01*
X178559030Y-85891890D01*
X178474014Y-85858859D01*
X178381038Y-85822716D01*
X178281810Y-85784123D01*
X178178037Y-85743744D01*
X178141683Y-85729593D01*
X177539482Y-85495175D01*
X176886549Y-85748280D01*
X176779219Y-85789872D01*
X176677314Y-85829334D01*
X176582283Y-85866107D01*
X176495573Y-85899633D01*
X176418632Y-85929353D01*
X176352908Y-85954707D01*
X176299849Y-85975136D01*
X176260903Y-85990081D01*
X176237518Y-85998984D01*
X176230962Y-86001384D01*
X176229646Y-85992445D01*
X176228696Y-85968946D01*
X176228309Y-85935865D01*
X176228308Y-85933952D01*
X176228308Y-85866519D01*
X176362635Y-85814001D01*
D10*
G36*
X189389819Y-87725007D02*
X189466526Y-87725403D01*
X189535278Y-87726801D01*
X189546275Y-87727164D01*
X189695192Y-87732444D01*
X189719162Y-87860347D01*
X189737838Y-87959620D01*
X189754594Y-88047923D01*
X189769210Y-88124120D01*
X189781464Y-88187073D01*
X189791135Y-88235647D01*
X189798002Y-88268706D01*
X189801843Y-88285112D01*
X189801957Y-88285491D01*
X189811696Y-88299188D01*
X189833785Y-88314335D01*
X189869751Y-88331728D01*
X189921123Y-88352165D01*
X189950715Y-88362936D01*
X189994496Y-88379603D01*
X190045926Y-88400784D01*
X190096418Y-88422893D01*
X190115694Y-88431790D01*
X190167782Y-88455597D01*
X190207508Y-88471115D01*
X190238548Y-88478540D01*
X190264574Y-88478071D01*
X190289261Y-88469906D01*
X190316283Y-88454242D01*
X190332138Y-88443435D01*
X190423034Y-88380237D01*
X190503016Y-88325378D01*
X190571363Y-88279339D01*
X190627353Y-88242599D01*
X190670267Y-88215637D01*
X190699383Y-88198932D01*
X190701497Y-88197849D01*
X190749245Y-88173785D01*
X190948432Y-88370135D01*
X190998156Y-88419526D01*
X191043701Y-88465485D01*
X191083436Y-88506309D01*
X191115728Y-88540293D01*
X191138946Y-88565735D01*
X191151459Y-88580931D01*
X191153116Y-88583806D01*
X191154299Y-88592944D01*
X191151908Y-88604912D01*
X191144927Y-88621426D01*
X191132343Y-88644200D01*
X191113141Y-88674949D01*
X191086307Y-88715390D01*
X191050827Y-88767235D01*
X191009065Y-88827357D01*
X190975096Y-88876611D01*
X190943000Y-88924163D01*
X190914914Y-88966770D01*
X190892975Y-89001189D01*
X190879318Y-89024177D01*
X190878994Y-89024777D01*
X190853322Y-89072518D01*
X190874615Y-89110955D01*
X190894527Y-89147703D01*
X190914761Y-89186401D01*
X190933637Y-89223658D01*
X190949473Y-89256082D01*
X190960590Y-89280281D01*
X190965306Y-89292863D01*
X190965237Y-89293854D01*
X190953466Y-89300003D01*
X190926763Y-89312136D01*
X190887028Y-89329470D01*
X190836163Y-89351221D01*
X190776069Y-89376605D01*
X190708646Y-89404837D01*
X190635795Y-89435134D01*
X190559417Y-89466711D01*
X190481413Y-89498786D01*
X190403684Y-89530572D01*
X190328130Y-89561288D01*
X190256653Y-89590147D01*
X190191152Y-89616368D01*
X190133530Y-89639165D01*
X190085687Y-89657754D01*
X190053786Y-89669788D01*
X189980238Y-89696906D01*
X189936624Y-89633076D01*
X189875584Y-89553840D01*
X189807363Y-89483103D01*
X189734892Y-89423370D01*
X189661102Y-89377145D01*
X189610168Y-89354141D01*
X189577337Y-89344063D01*
X189534806Y-89333981D01*
X189490915Y-89325836D01*
X189484046Y-89324802D01*
X189380467Y-89318759D01*
X189278165Y-89330013D01*
X189179410Y-89357763D01*
X189086471Y-89401205D01*
X189001616Y-89459536D01*
X188940505Y-89517003D01*
X188878807Y-89596073D01*
X188830401Y-89684336D01*
X188796264Y-89778765D01*
X188777377Y-89876333D01*
X188774718Y-89974015D01*
X188778948Y-90016296D01*
X188802497Y-90124132D01*
X188840898Y-90222497D01*
X188893412Y-90310467D01*
X188959298Y-90387117D01*
X189037816Y-90451523D01*
X189128227Y-90502762D01*
X189187646Y-90526722D01*
X189269773Y-90548011D01*
X189359841Y-90558811D01*
X189450704Y-90558708D01*
X189535216Y-90547292D01*
X189537112Y-90546874D01*
X189632160Y-90516567D01*
X189721161Y-90469798D01*
X189802520Y-90407694D01*
X189874643Y-90331379D01*
X189909893Y-90283613D01*
X189933844Y-90249349D01*
X189955685Y-90220344D01*
X189972577Y-90200246D01*
X189980171Y-90193283D01*
X189984012Y-90190759D01*
X189987720Y-90188825D01*
X189992660Y-90187991D01*
X190000200Y-90188768D01*
X190011704Y-90191665D01*
X190028539Y-90197192D01*
X190052071Y-90205861D01*
X190083665Y-90218181D01*
X190124688Y-90234663D01*
X190176506Y-90255816D01*
X190240484Y-90282151D01*
X190317989Y-90314179D01*
X190410386Y-90352409D01*
X190449643Y-90368651D01*
X190551298Y-90410748D01*
X190637556Y-90446580D01*
X190709809Y-90476749D01*
X190769453Y-90501861D01*
X190817882Y-90522518D01*
X190856489Y-90539325D01*
X190886670Y-90552885D01*
X190909818Y-90563802D01*
X190927328Y-90572680D01*
X190940594Y-90580122D01*
X190946673Y-90583877D01*
X190967452Y-90597187D01*
X190912655Y-90699916D01*
X190891957Y-90739597D01*
X190874840Y-90774089D01*
X190862946Y-90799956D01*
X190857921Y-90813760D01*
X190857857Y-90814449D01*
X190862711Y-90825903D01*
X190876195Y-90849832D01*
X190896693Y-90883738D01*
X190922588Y-90925124D01*
X190952264Y-90971493D01*
X190984104Y-91020346D01*
X191016492Y-91069186D01*
X191047811Y-91115516D01*
X191076446Y-91156839D01*
X191100779Y-91190655D01*
X191105041Y-91196370D01*
X191129031Y-91230544D01*
X191146806Y-91260341D01*
X191156095Y-91281785D01*
X191156926Y-91287084D01*
X191152514Y-91298171D01*
X191138969Y-91317228D01*
X191115520Y-91345123D01*
X191081402Y-91382723D01*
X191035844Y-91430894D01*
X190978081Y-91490502D01*
X190963208Y-91505696D01*
X190913511Y-91555863D01*
X190867599Y-91601205D01*
X190827118Y-91640170D01*
X190793716Y-91671206D01*
X190769041Y-91692762D01*
X190754739Y-91703287D01*
X190752586Y-91704074D01*
X190725355Y-91703323D01*
X190702408Y-91695025D01*
X190678285Y-91678733D01*
X190659468Y-91665047D01*
X190628695Y-91643302D01*
X190588854Y-91615484D01*
X190542834Y-91583581D01*
X190493526Y-91549577D01*
X190443817Y-91515460D01*
X190396598Y-91483215D01*
X190354757Y-91454830D01*
X190321184Y-91432290D01*
X190298768Y-91417582D01*
X190294805Y-91415089D01*
X190262430Y-91395123D01*
X190080281Y-91466798D01*
X190023198Y-91489503D01*
X189968918Y-91511539D01*
X189920773Y-91531521D01*
X189882093Y-91548061D01*
X189856211Y-91559773D01*
X189852299Y-91561698D01*
X189837039Y-91569462D01*
X189824758Y-91576917D01*
X189814734Y-91586138D01*
X189806246Y-91599197D01*
X189798573Y-91618168D01*
X189790995Y-91645126D01*
X189782789Y-91682144D01*
X189773236Y-91731295D01*
X189761613Y-91794654D01*
X189751117Y-91852678D01*
X189739902Y-91913702D01*
X189728973Y-91971464D01*
X189718988Y-92022608D01*
X189710606Y-92063778D01*
X189704488Y-92091616D01*
X189702998Y-92097607D01*
X189690999Y-92142964D01*
X189391172Y-92145353D01*
X189091345Y-92147741D01*
X189072213Y-92054638D01*
X189064357Y-92015352D01*
X189054206Y-91963020D01*
X189042676Y-91902455D01*
X189030684Y-91838468D01*
X189019920Y-91780107D01*
X189009476Y-91723891D01*
X188999683Y-91672900D01*
X188991149Y-91630160D01*
X188984479Y-91598694D01*
X188980281Y-91581528D01*
X188979841Y-91580205D01*
X188975832Y-91573493D01*
X188967644Y-91566007D01*
X188953624Y-91556950D01*
X188932124Y-91545522D01*
X188901492Y-91530926D01*
X188860077Y-91512362D01*
X188806229Y-91489031D01*
X188738298Y-91460136D01*
X188686694Y-91438364D01*
X188641540Y-91419773D01*
X188601434Y-91404043D01*
X188569737Y-91392436D01*
X188549814Y-91386210D01*
X188545587Y-91385500D01*
X188532486Y-91390432D01*
X188508012Y-91403894D01*
X188475562Y-91423878D01*
X188438535Y-91448380D01*
X188435286Y-91450606D01*
X188337566Y-91517469D01*
X188254306Y-91573818D01*
X188185283Y-91619800D01*
X188130275Y-91655558D01*
X188089059Y-91681237D01*
X188061411Y-91696981D01*
X188047110Y-91702936D01*
X188046311Y-91703000D01*
X188035857Y-91696935D01*
X188014559Y-91680023D01*
X187984464Y-91654182D01*
X187947617Y-91621332D01*
X187906065Y-91583394D01*
X187861853Y-91542287D01*
X187817027Y-91499931D01*
X187773634Y-91458245D01*
X187733718Y-91419151D01*
X187699326Y-91384568D01*
X187672505Y-91356415D01*
X187655299Y-91336613D01*
X187653836Y-91334699D01*
X187638404Y-91309971D01*
X187629388Y-91287726D01*
X187628429Y-91281145D01*
X187633711Y-91265327D01*
X187647797Y-91239988D01*
X187668044Y-91209683D01*
X187676561Y-91198134D01*
X187701242Y-91164143D01*
X187731288Y-91120653D01*
X187762622Y-91073660D01*
X187787162Y-91035533D01*
X187815550Y-90991530D01*
X187845271Y-90947162D01*
X187872593Y-90907907D01*
X187891917Y-90881651D01*
X187921112Y-90842691D01*
X187940017Y-90814056D01*
X187950299Y-90792422D01*
X187953620Y-90774466D01*
X187952435Y-90760797D01*
X187947534Y-90745221D01*
X187936172Y-90715163D01*
X187919222Y-90672734D01*
X187897558Y-90620046D01*
X187872053Y-90559211D01*
X187843580Y-90492341D01*
X187813012Y-90421547D01*
X187795982Y-90382518D01*
X187783803Y-90354716D01*
X187501673Y-90303967D01*
X187424318Y-90289714D01*
X187355167Y-90276307D01*
X187296106Y-90264148D01*
X187249020Y-90253643D01*
X187215795Y-90245198D01*
X187198316Y-90239217D01*
X187197200Y-90238578D01*
X187174858Y-90223939D01*
X187174858Y-89939508D01*
X187175003Y-89856763D01*
X187175487Y-89790475D01*
X187176378Y-89738958D01*
X187177746Y-89700530D01*
X187179660Y-89673504D01*
X187182190Y-89656196D01*
X187185406Y-89646923D01*
X187187014Y-89644989D01*
X187202675Y-89638065D01*
X187234722Y-89629037D01*
X187281568Y-89618250D01*
X187341622Y-89606046D01*
X187413296Y-89592772D01*
X187485283Y-89580383D01*
X187540389Y-89570860D01*
X187600546Y-89559919D01*
X187657231Y-89549136D01*
X187690086Y-89542564D01*
X187724996Y-89535555D01*
X187751011Y-89529427D01*
X187770490Y-89521706D01*
X187785792Y-89509918D01*
X187799277Y-89491589D01*
X187813304Y-89464246D01*
X187830231Y-89425414D01*
X187852419Y-89372620D01*
X187852632Y-89372116D01*
X187872994Y-89323961D01*
X187894689Y-89272699D01*
X187914473Y-89225995D01*
X187923876Y-89203821D01*
X187938073Y-89167722D01*
X187948852Y-89135288D01*
X187954436Y-89112056D01*
X187954834Y-89107490D01*
X187948912Y-89087320D01*
X187931536Y-89055382D01*
X187903581Y-89013219D01*
X187893136Y-88998633D01*
X187853984Y-88943887D01*
X187812704Y-88884614D01*
X187771520Y-88824144D01*
X187732657Y-88765806D01*
X187698338Y-88712929D01*
X187670787Y-88668843D01*
X187655698Y-88643185D01*
X187626160Y-88590548D01*
X187647705Y-88566390D01*
X187678508Y-88532525D01*
X187715932Y-88492443D01*
X187757965Y-88448196D01*
X187802591Y-88401835D01*
X187847795Y-88355411D01*
X187891565Y-88310975D01*
X187931885Y-88270581D01*
X187966741Y-88236278D01*
X187994118Y-88210118D01*
X188012003Y-88194153D01*
X188016528Y-88190773D01*
X188032204Y-88182462D01*
X188047418Y-88178913D01*
X188064668Y-88181158D01*
X188086452Y-88190233D01*
X188115269Y-88207172D01*
X188153616Y-88233009D01*
X188202708Y-88267857D01*
X188279076Y-88322569D01*
X188342200Y-88367553D01*
X188393492Y-88403778D01*
X188434363Y-88432211D01*
X188466226Y-88453819D01*
X188490491Y-88469569D01*
X188508571Y-88480429D01*
X188521878Y-88487366D01*
X188525150Y-88488828D01*
X188542548Y-88495172D01*
X188557700Y-88496153D01*
X188576350Y-88490842D01*
X188604242Y-88478311D01*
X188611329Y-88474909D01*
X188641378Y-88461161D01*
X188683037Y-88443090D01*
X188731011Y-88422951D01*
X188780001Y-88402998D01*
X188784495Y-88401202D01*
X188851857Y-88373498D01*
X188903459Y-88350232D01*
X188940881Y-88330516D01*
X188965706Y-88313460D01*
X188979517Y-88298175D01*
X188983161Y-88289540D01*
X188986889Y-88272160D01*
X188993279Y-88240198D01*
X189001713Y-88196914D01*
X189011574Y-88145570D01*
X189022243Y-88089427D01*
X189033104Y-88031745D01*
X189043539Y-87975786D01*
X189052931Y-87924812D01*
X189060662Y-87882084D01*
X189065118Y-87856714D01*
X189072301Y-87818239D01*
X189079694Y-87784103D01*
X189085984Y-87760237D01*
X189087415Y-87756079D01*
X189096472Y-87732552D01*
X189246915Y-87727218D01*
X189313750Y-87725613D01*
X189389819Y-87725007D01*
X189389819Y-87725007D01*
X189389819Y-87725007D01*
G37*
X189389819Y-87725007D02*
X189466526Y-87725403D01*
X189535278Y-87726801D01*
X189546275Y-87727164D01*
X189695192Y-87732444D01*
X189719162Y-87860347D01*
X189737838Y-87959620D01*
X189754594Y-88047923D01*
X189769210Y-88124120D01*
X189781464Y-88187073D01*
X189791135Y-88235647D01*
X189798002Y-88268706D01*
X189801843Y-88285112D01*
X189801957Y-88285491D01*
X189811696Y-88299188D01*
X189833785Y-88314335D01*
X189869751Y-88331728D01*
X189921123Y-88352165D01*
X189950715Y-88362936D01*
X189994496Y-88379603D01*
X190045926Y-88400784D01*
X190096418Y-88422893D01*
X190115694Y-88431790D01*
X190167782Y-88455597D01*
X190207508Y-88471115D01*
X190238548Y-88478540D01*
X190264574Y-88478071D01*
X190289261Y-88469906D01*
X190316283Y-88454242D01*
X190332138Y-88443435D01*
X190423034Y-88380237D01*
X190503016Y-88325378D01*
X190571363Y-88279339D01*
X190627353Y-88242599D01*
X190670267Y-88215637D01*
X190699383Y-88198932D01*
X190701497Y-88197849D01*
X190749245Y-88173785D01*
X190948432Y-88370135D01*
X190998156Y-88419526D01*
X191043701Y-88465485D01*
X191083436Y-88506309D01*
X191115728Y-88540293D01*
X191138946Y-88565735D01*
X191151459Y-88580931D01*
X191153116Y-88583806D01*
X191154299Y-88592944D01*
X191151908Y-88604912D01*
X191144927Y-88621426D01*
X191132343Y-88644200D01*
X191113141Y-88674949D01*
X191086307Y-88715390D01*
X191050827Y-88767235D01*
X191009065Y-88827357D01*
X190975096Y-88876611D01*
X190943000Y-88924163D01*
X190914914Y-88966770D01*
X190892975Y-89001189D01*
X190879318Y-89024177D01*
X190878994Y-89024777D01*
X190853322Y-89072518D01*
X190874615Y-89110955D01*
X190894527Y-89147703D01*
X190914761Y-89186401D01*
X190933637Y-89223658D01*
X190949473Y-89256082D01*
X190960590Y-89280281D01*
X190965306Y-89292863D01*
X190965237Y-89293854D01*
X190953466Y-89300003D01*
X190926763Y-89312136D01*
X190887028Y-89329470D01*
X190836163Y-89351221D01*
X190776069Y-89376605D01*
X190708646Y-89404837D01*
X190635795Y-89435134D01*
X190559417Y-89466711D01*
X190481413Y-89498786D01*
X190403684Y-89530572D01*
X190328130Y-89561288D01*
X190256653Y-89590147D01*
X190191152Y-89616368D01*
X190133530Y-89639165D01*
X190085687Y-89657754D01*
X190053786Y-89669788D01*
X189980238Y-89696906D01*
X189936624Y-89633076D01*
X189875584Y-89553840D01*
X189807363Y-89483103D01*
X189734892Y-89423370D01*
X189661102Y-89377145D01*
X189610168Y-89354141D01*
X189577337Y-89344063D01*
X189534806Y-89333981D01*
X189490915Y-89325836D01*
X189484046Y-89324802D01*
X189380467Y-89318759D01*
X189278165Y-89330013D01*
X189179410Y-89357763D01*
X189086471Y-89401205D01*
X189001616Y-89459536D01*
X188940505Y-89517003D01*
X188878807Y-89596073D01*
X188830401Y-89684336D01*
X188796264Y-89778765D01*
X188777377Y-89876333D01*
X188774718Y-89974015D01*
X188778948Y-90016296D01*
X188802497Y-90124132D01*
X188840898Y-90222497D01*
X188893412Y-90310467D01*
X188959298Y-90387117D01*
X189037816Y-90451523D01*
X189128227Y-90502762D01*
X189187646Y-90526722D01*
X189269773Y-90548011D01*
X189359841Y-90558811D01*
X189450704Y-90558708D01*
X189535216Y-90547292D01*
X189537112Y-90546874D01*
X189632160Y-90516567D01*
X189721161Y-90469798D01*
X189802520Y-90407694D01*
X189874643Y-90331379D01*
X189909893Y-90283613D01*
X189933844Y-90249349D01*
X189955685Y-90220344D01*
X189972577Y-90200246D01*
X189980171Y-90193283D01*
X189984012Y-90190759D01*
X189987720Y-90188825D01*
X189992660Y-90187991D01*
X190000200Y-90188768D01*
X190011704Y-90191665D01*
X190028539Y-90197192D01*
X190052071Y-90205861D01*
X190083665Y-90218181D01*
X190124688Y-90234663D01*
X190176506Y-90255816D01*
X190240484Y-90282151D01*
X190317989Y-90314179D01*
X190410386Y-90352409D01*
X190449643Y-90368651D01*
X190551298Y-90410748D01*
X190637556Y-90446580D01*
X190709809Y-90476749D01*
X190769453Y-90501861D01*
X190817882Y-90522518D01*
X190856489Y-90539325D01*
X190886670Y-90552885D01*
X190909818Y-90563802D01*
X190927328Y-90572680D01*
X190940594Y-90580122D01*
X190946673Y-90583877D01*
X190967452Y-90597187D01*
X190912655Y-90699916D01*
X190891957Y-90739597D01*
X190874840Y-90774089D01*
X190862946Y-90799956D01*
X190857921Y-90813760D01*
X190857857Y-90814449D01*
X190862711Y-90825903D01*
X190876195Y-90849832D01*
X190896693Y-90883738D01*
X190922588Y-90925124D01*
X190952264Y-90971493D01*
X190984104Y-91020346D01*
X191016492Y-91069186D01*
X191047811Y-91115516D01*
X191076446Y-91156839D01*
X191100779Y-91190655D01*
X191105041Y-91196370D01*
X191129031Y-91230544D01*
X191146806Y-91260341D01*
X191156095Y-91281785D01*
X191156926Y-91287084D01*
X191152514Y-91298171D01*
X191138969Y-91317228D01*
X191115520Y-91345123D01*
X191081402Y-91382723D01*
X191035844Y-91430894D01*
X190978081Y-91490502D01*
X190963208Y-91505696D01*
X190913511Y-91555863D01*
X190867599Y-91601205D01*
X190827118Y-91640170D01*
X190793716Y-91671206D01*
X190769041Y-91692762D01*
X190754739Y-91703287D01*
X190752586Y-91704074D01*
X190725355Y-91703323D01*
X190702408Y-91695025D01*
X190678285Y-91678733D01*
X190659468Y-91665047D01*
X190628695Y-91643302D01*
X190588854Y-91615484D01*
X190542834Y-91583581D01*
X190493526Y-91549577D01*
X190443817Y-91515460D01*
X190396598Y-91483215D01*
X190354757Y-91454830D01*
X190321184Y-91432290D01*
X190298768Y-91417582D01*
X190294805Y-91415089D01*
X190262430Y-91395123D01*
X190080281Y-91466798D01*
X190023198Y-91489503D01*
X189968918Y-91511539D01*
X189920773Y-91531521D01*
X189882093Y-91548061D01*
X189856211Y-91559773D01*
X189852299Y-91561698D01*
X189837039Y-91569462D01*
X189824758Y-91576917D01*
X189814734Y-91586138D01*
X189806246Y-91599197D01*
X189798573Y-91618168D01*
X189790995Y-91645126D01*
X189782789Y-91682144D01*
X189773236Y-91731295D01*
X189761613Y-91794654D01*
X189751117Y-91852678D01*
X189739902Y-91913702D01*
X189728973Y-91971464D01*
X189718988Y-92022608D01*
X189710606Y-92063778D01*
X189704488Y-92091616D01*
X189702998Y-92097607D01*
X189690999Y-92142964D01*
X189391172Y-92145353D01*
X189091345Y-92147741D01*
X189072213Y-92054638D01*
X189064357Y-92015352D01*
X189054206Y-91963020D01*
X189042676Y-91902455D01*
X189030684Y-91838468D01*
X189019920Y-91780107D01*
X189009476Y-91723891D01*
X188999683Y-91672900D01*
X188991149Y-91630160D01*
X188984479Y-91598694D01*
X188980281Y-91581528D01*
X188979841Y-91580205D01*
X188975832Y-91573493D01*
X188967644Y-91566007D01*
X188953624Y-91556950D01*
X188932124Y-91545522D01*
X188901492Y-91530926D01*
X188860077Y-91512362D01*
X188806229Y-91489031D01*
X188738298Y-91460136D01*
X188686694Y-91438364D01*
X188641540Y-91419773D01*
X188601434Y-91404043D01*
X188569737Y-91392436D01*
X188549814Y-91386210D01*
X188545587Y-91385500D01*
X188532486Y-91390432D01*
X188508012Y-91403894D01*
X188475562Y-91423878D01*
X188438535Y-91448380D01*
X188435286Y-91450606D01*
X188337566Y-91517469D01*
X188254306Y-91573818D01*
X188185283Y-91619800D01*
X188130275Y-91655558D01*
X188089059Y-91681237D01*
X188061411Y-91696981D01*
X188047110Y-91702936D01*
X188046311Y-91703000D01*
X188035857Y-91696935D01*
X188014559Y-91680023D01*
X187984464Y-91654182D01*
X187947617Y-91621332D01*
X187906065Y-91583394D01*
X187861853Y-91542287D01*
X187817027Y-91499931D01*
X187773634Y-91458245D01*
X187733718Y-91419151D01*
X187699326Y-91384568D01*
X187672505Y-91356415D01*
X187655299Y-91336613D01*
X187653836Y-91334699D01*
X187638404Y-91309971D01*
X187629388Y-91287726D01*
X187628429Y-91281145D01*
X187633711Y-91265327D01*
X187647797Y-91239988D01*
X187668044Y-91209683D01*
X187676561Y-91198134D01*
X187701242Y-91164143D01*
X187731288Y-91120653D01*
X187762622Y-91073660D01*
X187787162Y-91035533D01*
X187815550Y-90991530D01*
X187845271Y-90947162D01*
X187872593Y-90907907D01*
X187891917Y-90881651D01*
X187921112Y-90842691D01*
X187940017Y-90814056D01*
X187950299Y-90792422D01*
X187953620Y-90774466D01*
X187952435Y-90760797D01*
X187947534Y-90745221D01*
X187936172Y-90715163D01*
X187919222Y-90672734D01*
X187897558Y-90620046D01*
X187872053Y-90559211D01*
X187843580Y-90492341D01*
X187813012Y-90421547D01*
X187795982Y-90382518D01*
X187783803Y-90354716D01*
X187501673Y-90303967D01*
X187424318Y-90289714D01*
X187355167Y-90276307D01*
X187296106Y-90264148D01*
X187249020Y-90253643D01*
X187215795Y-90245198D01*
X187198316Y-90239217D01*
X187197200Y-90238578D01*
X187174858Y-90223939D01*
X187174858Y-89939508D01*
X187175003Y-89856763D01*
X187175487Y-89790475D01*
X187176378Y-89738958D01*
X187177746Y-89700530D01*
X187179660Y-89673504D01*
X187182190Y-89656196D01*
X187185406Y-89646923D01*
X187187014Y-89644989D01*
X187202675Y-89638065D01*
X187234722Y-89629037D01*
X187281568Y-89618250D01*
X187341622Y-89606046D01*
X187413296Y-89592772D01*
X187485283Y-89580383D01*
X187540389Y-89570860D01*
X187600546Y-89559919D01*
X187657231Y-89549136D01*
X187690086Y-89542564D01*
X187724996Y-89535555D01*
X187751011Y-89529427D01*
X187770490Y-89521706D01*
X187785792Y-89509918D01*
X187799277Y-89491589D01*
X187813304Y-89464246D01*
X187830231Y-89425414D01*
X187852419Y-89372620D01*
X187852632Y-89372116D01*
X187872994Y-89323961D01*
X187894689Y-89272699D01*
X187914473Y-89225995D01*
X187923876Y-89203821D01*
X187938073Y-89167722D01*
X187948852Y-89135288D01*
X187954436Y-89112056D01*
X187954834Y-89107490D01*
X187948912Y-89087320D01*
X187931536Y-89055382D01*
X187903581Y-89013219D01*
X187893136Y-88998633D01*
X187853984Y-88943887D01*
X187812704Y-88884614D01*
X187771520Y-88824144D01*
X187732657Y-88765806D01*
X187698338Y-88712929D01*
X187670787Y-88668843D01*
X187655698Y-88643185D01*
X187626160Y-88590548D01*
X187647705Y-88566390D01*
X187678508Y-88532525D01*
X187715932Y-88492443D01*
X187757965Y-88448196D01*
X187802591Y-88401835D01*
X187847795Y-88355411D01*
X187891565Y-88310975D01*
X187931885Y-88270581D01*
X187966741Y-88236278D01*
X187994118Y-88210118D01*
X188012003Y-88194153D01*
X188016528Y-88190773D01*
X188032204Y-88182462D01*
X188047418Y-88178913D01*
X188064668Y-88181158D01*
X188086452Y-88190233D01*
X188115269Y-88207172D01*
X188153616Y-88233009D01*
X188202708Y-88267857D01*
X188279076Y-88322569D01*
X188342200Y-88367553D01*
X188393492Y-88403778D01*
X188434363Y-88432211D01*
X188466226Y-88453819D01*
X188490491Y-88469569D01*
X188508571Y-88480429D01*
X188521878Y-88487366D01*
X188525150Y-88488828D01*
X188542548Y-88495172D01*
X188557700Y-88496153D01*
X188576350Y-88490842D01*
X188604242Y-88478311D01*
X188611329Y-88474909D01*
X188641378Y-88461161D01*
X188683037Y-88443090D01*
X188731011Y-88422951D01*
X188780001Y-88402998D01*
X188784495Y-88401202D01*
X188851857Y-88373498D01*
X188903459Y-88350232D01*
X188940881Y-88330516D01*
X188965706Y-88313460D01*
X188979517Y-88298175D01*
X188983161Y-88289540D01*
X188986889Y-88272160D01*
X188993279Y-88240198D01*
X189001713Y-88196914D01*
X189011574Y-88145570D01*
X189022243Y-88089427D01*
X189033104Y-88031745D01*
X189043539Y-87975786D01*
X189052931Y-87924812D01*
X189060662Y-87882084D01*
X189065118Y-87856714D01*
X189072301Y-87818239D01*
X189079694Y-87784103D01*
X189085984Y-87760237D01*
X189087415Y-87756079D01*
X189096472Y-87732552D01*
X189246915Y-87727218D01*
X189313750Y-87725613D01*
X189389819Y-87725007D01*
X189389819Y-87725007D01*
D15*
G36*
X185367192Y-88121845D02*
X185463553Y-88076728D01*
X185557171Y-88013016D01*
X185617970Y-87960297D01*
X185699523Y-87872427D01*
X185763270Y-87779179D01*
X185809712Y-87679381D01*
X185839350Y-87571863D01*
X185852686Y-87455453D01*
X185853589Y-87409963D01*
X185844638Y-87289748D01*
X185818532Y-87177103D01*
X185775046Y-87071465D01*
X185713956Y-86972275D01*
X185645767Y-86890204D01*
X185623473Y-86866211D01*
X185607620Y-86848650D01*
X185601268Y-86840921D01*
X185601295Y-86840815D01*
X185616758Y-86844380D01*
X185645795Y-86854109D01*
X185684775Y-86868552D01*
X185730067Y-86886262D01*
X185778039Y-86905790D01*
X185825060Y-86925688D01*
X185867498Y-86944505D01*
X185900417Y-86960140D01*
X186025998Y-87027805D01*
X186138909Y-87099674D01*
X186244944Y-87179870D01*
X186349896Y-87272512D01*
X186379779Y-87301148D01*
X186508808Y-87439521D01*
X186622101Y-87587727D01*
X186719265Y-87744825D01*
X186799904Y-87909873D01*
X186863624Y-88081932D01*
X186910031Y-88260060D01*
X186938729Y-88443316D01*
X186949324Y-88630759D01*
X186949327Y-88659279D01*
X186947963Y-88718237D01*
X186944961Y-88780595D01*
X186940761Y-88839000D01*
X186935803Y-88886102D01*
X186935692Y-88886926D01*
X186901236Y-89074376D01*
X186849435Y-89254766D01*
X186780590Y-89427499D01*
X186695002Y-89591976D01*
X186592972Y-89747597D01*
X186474801Y-89893765D01*
X186379779Y-89992927D01*
X186274424Y-90089504D01*
X186169644Y-90172527D01*
X186059618Y-90246136D01*
X185938522Y-90314471D01*
X185899742Y-90334273D01*
X185863547Y-90351355D01*
X185818934Y-90370869D01*
X185769431Y-90391448D01*
X185718564Y-90411722D01*
X185669862Y-90430322D01*
X185626851Y-90445879D01*
X185593060Y-90457024D01*
X185572016Y-90462388D01*
X185568934Y-90462667D01*
X185572687Y-90456455D01*
X185587298Y-90439615D01*
X185610341Y-90414844D01*
X185634554Y-90389760D01*
X185696884Y-90321484D01*
X185745242Y-90256890D01*
X185782440Y-90191151D01*
X185811287Y-90119439D01*
X185830635Y-90052978D01*
X185850595Y-89951010D01*
X185856283Y-89855168D01*
X185847884Y-89759535D01*
X185840943Y-89721563D01*
X185824458Y-89649431D01*
X185806875Y-89590417D01*
X185785997Y-89538855D01*
X185759629Y-89489081D01*
X185736244Y-89451526D01*
X185675182Y-89370893D01*
X185602672Y-89296704D01*
X185522747Y-89232390D01*
X185439438Y-89181380D01*
X185394197Y-89160467D01*
X185342836Y-89139592D01*
X185400068Y-89097926D01*
X185473031Y-89033546D01*
X185534465Y-88956217D01*
X185582022Y-88869410D01*
X185611147Y-88785559D01*
X185621843Y-88723286D01*
X185625746Y-88652048D01*
X185622861Y-88580230D01*
X185613194Y-88516215D01*
X185610977Y-88507096D01*
X185582385Y-88427005D01*
X185540059Y-88349051D01*
X185487072Y-88277388D01*
X185426494Y-88216168D01*
X185361397Y-88169543D01*
X185361195Y-88169427D01*
X185312791Y-88141783D01*
X185367192Y-88121845D01*
X185367192Y-88121845D01*
G37*
X185367192Y-88121845D02*
X185463553Y-88076728D01*
X185557171Y-88013016D01*
X185617970Y-87960297D01*
X185699523Y-87872427D01*
X185763270Y-87779179D01*
X185809712Y-87679381D01*
X185839350Y-87571863D01*
X185852686Y-87455453D01*
X185853589Y-87409963D01*
X185844638Y-87289748D01*
X185818532Y-87177103D01*
X185775046Y-87071465D01*
X185713956Y-86972275D01*
X185645767Y-86890204D01*
X185623473Y-86866211D01*
X185607620Y-86848650D01*
X185601268Y-86840921D01*
X185601295Y-86840815D01*
X185616758Y-86844380D01*
X185645795Y-86854109D01*
X185684775Y-86868552D01*
X185730067Y-86886262D01*
X185778039Y-86905790D01*
X185825060Y-86925688D01*
X185867498Y-86944505D01*
X185900417Y-86960140D01*
X186025998Y-87027805D01*
X186138909Y-87099674D01*
X186244944Y-87179870D01*
X186349896Y-87272512D01*
X186379779Y-87301148D01*
X186508808Y-87439521D01*
X186622101Y-87587727D01*
X186719265Y-87744825D01*
X186799904Y-87909873D01*
X186863624Y-88081932D01*
X186910031Y-88260060D01*
X186938729Y-88443316D01*
X186949324Y-88630759D01*
X186949327Y-88659279D01*
X186947963Y-88718237D01*
X186944961Y-88780595D01*
X186940761Y-88839000D01*
X186935803Y-88886102D01*
X186935692Y-88886926D01*
X186901236Y-89074376D01*
X186849435Y-89254766D01*
X186780590Y-89427499D01*
X186695002Y-89591976D01*
X186592972Y-89747597D01*
X186474801Y-89893765D01*
X186379779Y-89992927D01*
X186274424Y-90089504D01*
X186169644Y-90172527D01*
X186059618Y-90246136D01*
X185938522Y-90314471D01*
X185899742Y-90334273D01*
X185863547Y-90351355D01*
X185818934Y-90370869D01*
X185769431Y-90391448D01*
X185718564Y-90411722D01*
X185669862Y-90430322D01*
X185626851Y-90445879D01*
X185593060Y-90457024D01*
X185572016Y-90462388D01*
X185568934Y-90462667D01*
X185572687Y-90456455D01*
X185587298Y-90439615D01*
X185610341Y-90414844D01*
X185634554Y-90389760D01*
X185696884Y-90321484D01*
X185745242Y-90256890D01*
X185782440Y-90191151D01*
X185811287Y-90119439D01*
X185830635Y-90052978D01*
X185850595Y-89951010D01*
X185856283Y-89855168D01*
X185847884Y-89759535D01*
X185840943Y-89721563D01*
X185824458Y-89649431D01*
X185806875Y-89590417D01*
X185785997Y-89538855D01*
X185759629Y-89489081D01*
X185736244Y-89451526D01*
X185675182Y-89370893D01*
X185602672Y-89296704D01*
X185522747Y-89232390D01*
X185439438Y-89181380D01*
X185394197Y-89160467D01*
X185342836Y-89139592D01*
X185400068Y-89097926D01*
X185473031Y-89033546D01*
X185534465Y-88956217D01*
X185582022Y-88869410D01*
X185611147Y-88785559D01*
X185621843Y-88723286D01*
X185625746Y-88652048D01*
X185622861Y-88580230D01*
X185613194Y-88516215D01*
X185610977Y-88507096D01*
X185582385Y-88427005D01*
X185540059Y-88349051D01*
X185487072Y-88277388D01*
X185426494Y-88216168D01*
X185361397Y-88169543D01*
X185361195Y-88169427D01*
X185312791Y-88141783D01*
X185367192Y-88121845D01*
G36*
X184483301Y-92236906D02*
X184490468Y-92170983D01*
X184504249Y-92112885D01*
X184525909Y-92057344D01*
X184556715Y-91999089D01*
X184558161Y-91996618D01*
X184591845Y-91947850D01*
X184636307Y-91895617D01*
X184686490Y-91845052D01*
X184737335Y-91801290D01*
X184779451Y-91771983D01*
X184870203Y-91728463D01*
X184968962Y-91699733D01*
X185071433Y-91686482D01*
X185173319Y-91689402D01*
X185232304Y-91699185D01*
X185331313Y-91730592D01*
X185423195Y-91778216D01*
X185506029Y-91840194D01*
X185577896Y-91914663D01*
X185636874Y-91999758D01*
X185681044Y-92093618D01*
X185699374Y-92152327D01*
X185713569Y-92234591D01*
X185717107Y-92323236D01*
X185709990Y-92410059D01*
X185699285Y-92463039D01*
X185663862Y-92561820D01*
X185612165Y-92652727D01*
X185545773Y-92733828D01*
X185466264Y-92803189D01*
X185376598Y-92858184D01*
X185310613Y-92887652D01*
X185247403Y-92906927D01*
X185180327Y-92917469D01*
X185102743Y-92920738D01*
X185092333Y-92920711D01*
X184985649Y-92912232D01*
X184887925Y-92887782D01*
X184797450Y-92846641D01*
X184712513Y-92788088D01*
X184656285Y-92737203D01*
X184592105Y-92664470D01*
X184542498Y-92587107D01*
X184506157Y-92506347D01*
X184496093Y-92477783D01*
X184489234Y-92451529D01*
X184484955Y-92422762D01*
X184482633Y-92386660D01*
X184481641Y-92338399D01*
X184481483Y-92315926D01*
X184483301Y-92236906D01*
X184483301Y-92236906D01*
G37*
X184483301Y-92236906D02*
X184490468Y-92170983D01*
X184504249Y-92112885D01*
X184525909Y-92057344D01*
X184556715Y-91999089D01*
X184558161Y-91996618D01*
X184591845Y-91947850D01*
X184636307Y-91895617D01*
X184686490Y-91845052D01*
X184737335Y-91801290D01*
X184779451Y-91771983D01*
X184870203Y-91728463D01*
X184968962Y-91699733D01*
X185071433Y-91686482D01*
X185173319Y-91689402D01*
X185232304Y-91699185D01*
X185331313Y-91730592D01*
X185423195Y-91778216D01*
X185506029Y-91840194D01*
X185577896Y-91914663D01*
X185636874Y-91999758D01*
X185681044Y-92093618D01*
X185699374Y-92152327D01*
X185713569Y-92234591D01*
X185717107Y-92323236D01*
X185709990Y-92410059D01*
X185699285Y-92463039D01*
X185663862Y-92561820D01*
X185612165Y-92652727D01*
X185545773Y-92733828D01*
X185466264Y-92803189D01*
X185376598Y-92858184D01*
X185310613Y-92887652D01*
X185247403Y-92906927D01*
X185180327Y-92917469D01*
X185102743Y-92920738D01*
X185092333Y-92920711D01*
X184985649Y-92912232D01*
X184887925Y-92887782D01*
X184797450Y-92846641D01*
X184712513Y-92788088D01*
X184656285Y-92737203D01*
X184592105Y-92664470D01*
X184542498Y-92587107D01*
X184506157Y-92506347D01*
X184496093Y-92477783D01*
X184489234Y-92451529D01*
X184484955Y-92422762D01*
X184482633Y-92386660D01*
X184481641Y-92338399D01*
X184481483Y-92315926D01*
X184483301Y-92236906D01*
G36*
X184483301Y-89790980D02*
X184490468Y-89725057D01*
X184504249Y-89666959D01*
X184525909Y-89611418D01*
X184556715Y-89553163D01*
X184558161Y-89550693D01*
X184591845Y-89501924D01*
X184636307Y-89449691D01*
X184686490Y-89399126D01*
X184737335Y-89355364D01*
X184779451Y-89326057D01*
X184870203Y-89282537D01*
X184968962Y-89253807D01*
X185071433Y-89240556D01*
X185173319Y-89243476D01*
X185232304Y-89253259D01*
X185331313Y-89284666D01*
X185423195Y-89332290D01*
X185506029Y-89394268D01*
X185577896Y-89468737D01*
X185636874Y-89553833D01*
X185681044Y-89647692D01*
X185699374Y-89706401D01*
X185713569Y-89788665D01*
X185717107Y-89877310D01*
X185709990Y-89964133D01*
X185699285Y-90017113D01*
X185663862Y-90115894D01*
X185612165Y-90206801D01*
X185545773Y-90287902D01*
X185466264Y-90357263D01*
X185376598Y-90412258D01*
X185310613Y-90441726D01*
X185247403Y-90461001D01*
X185180327Y-90471543D01*
X185102743Y-90474813D01*
X185092333Y-90474785D01*
X184985649Y-90466306D01*
X184887925Y-90441856D01*
X184797450Y-90400715D01*
X184712513Y-90342162D01*
X184656285Y-90291277D01*
X184592105Y-90218544D01*
X184542498Y-90141181D01*
X184506157Y-90060421D01*
X184496093Y-90031857D01*
X184489234Y-90005603D01*
X184484955Y-89976836D01*
X184482633Y-89940734D01*
X184481641Y-89892473D01*
X184481483Y-89870000D01*
X184483301Y-89790980D01*
X184483301Y-89790980D01*
G37*
X184483301Y-89790980D02*
X184490468Y-89725057D01*
X184504249Y-89666959D01*
X184525909Y-89611418D01*
X184556715Y-89553163D01*
X184558161Y-89550693D01*
X184591845Y-89501924D01*
X184636307Y-89449691D01*
X184686490Y-89399126D01*
X184737335Y-89355364D01*
X184779451Y-89326057D01*
X184870203Y-89282537D01*
X184968962Y-89253807D01*
X185071433Y-89240556D01*
X185173319Y-89243476D01*
X185232304Y-89253259D01*
X185331313Y-89284666D01*
X185423195Y-89332290D01*
X185506029Y-89394268D01*
X185577896Y-89468737D01*
X185636874Y-89553833D01*
X185681044Y-89647692D01*
X185699374Y-89706401D01*
X185713569Y-89788665D01*
X185717107Y-89877310D01*
X185709990Y-89964133D01*
X185699285Y-90017113D01*
X185663862Y-90115894D01*
X185612165Y-90206801D01*
X185545773Y-90287902D01*
X185466264Y-90357263D01*
X185376598Y-90412258D01*
X185310613Y-90441726D01*
X185247403Y-90461001D01*
X185180327Y-90471543D01*
X185102743Y-90474813D01*
X185092333Y-90474785D01*
X184985649Y-90466306D01*
X184887925Y-90441856D01*
X184797450Y-90400715D01*
X184712513Y-90342162D01*
X184656285Y-90291277D01*
X184592105Y-90218544D01*
X184542498Y-90141181D01*
X184506157Y-90060421D01*
X184496093Y-90031857D01*
X184489234Y-90005603D01*
X184484955Y-89976836D01*
X184482633Y-89940734D01*
X184481641Y-89892473D01*
X184481483Y-89870000D01*
X184483301Y-89790980D01*
G36*
X184483301Y-87345055D02*
X184490468Y-87279131D01*
X184504249Y-87221033D01*
X184525909Y-87165492D01*
X184556715Y-87107237D01*
X184558161Y-87104767D01*
X184591845Y-87055998D01*
X184636307Y-87003765D01*
X184686490Y-86953200D01*
X184737335Y-86909438D01*
X184779451Y-86880131D01*
X184870203Y-86836611D01*
X184968962Y-86807881D01*
X185071433Y-86794630D01*
X185173319Y-86797550D01*
X185232304Y-86807333D01*
X185331313Y-86838740D01*
X185423195Y-86886364D01*
X185506029Y-86948342D01*
X185577896Y-87022811D01*
X185636874Y-87107907D01*
X185681044Y-87201767D01*
X185699374Y-87260475D01*
X185713569Y-87342739D01*
X185717107Y-87431384D01*
X185709990Y-87518207D01*
X185699285Y-87571187D01*
X185663862Y-87669968D01*
X185612165Y-87760876D01*
X185545773Y-87841976D01*
X185466264Y-87911337D01*
X185376598Y-87966332D01*
X185310613Y-87995801D01*
X185247403Y-88015075D01*
X185180327Y-88025617D01*
X185102743Y-88028887D01*
X185092333Y-88028859D01*
X184985649Y-88020381D01*
X184887925Y-87995930D01*
X184797450Y-87954789D01*
X184712513Y-87896236D01*
X184656285Y-87845351D01*
X184592105Y-87772618D01*
X184542498Y-87695255D01*
X184506157Y-87614495D01*
X184496093Y-87585931D01*
X184489234Y-87559677D01*
X184484955Y-87530910D01*
X184482633Y-87494808D01*
X184481641Y-87446547D01*
X184481483Y-87424075D01*
X184483301Y-87345055D01*
X184483301Y-87345055D01*
G37*
X184483301Y-87345055D02*
X184490468Y-87279131D01*
X184504249Y-87221033D01*
X184525909Y-87165492D01*
X184556715Y-87107237D01*
X184558161Y-87104767D01*
X184591845Y-87055998D01*
X184636307Y-87003765D01*
X184686490Y-86953200D01*
X184737335Y-86909438D01*
X184779451Y-86880131D01*
X184870203Y-86836611D01*
X184968962Y-86807881D01*
X185071433Y-86794630D01*
X185173319Y-86797550D01*
X185232304Y-86807333D01*
X185331313Y-86838740D01*
X185423195Y-86886364D01*
X185506029Y-86948342D01*
X185577896Y-87022811D01*
X185636874Y-87107907D01*
X185681044Y-87201767D01*
X185699374Y-87260475D01*
X185713569Y-87342739D01*
X185717107Y-87431384D01*
X185709990Y-87518207D01*
X185699285Y-87571187D01*
X185663862Y-87669968D01*
X185612165Y-87760876D01*
X185545773Y-87841976D01*
X185466264Y-87911337D01*
X185376598Y-87966332D01*
X185310613Y-87995801D01*
X185247403Y-88015075D01*
X185180327Y-88025617D01*
X185102743Y-88028887D01*
X185092333Y-88028859D01*
X184985649Y-88020381D01*
X184887925Y-87995930D01*
X184797450Y-87954789D01*
X184712513Y-87896236D01*
X184656285Y-87845351D01*
X184592105Y-87772618D01*
X184542498Y-87695255D01*
X184506157Y-87614495D01*
X184496093Y-87585931D01*
X184489234Y-87559677D01*
X184484955Y-87530910D01*
X184482633Y-87494808D01*
X184481641Y-87446547D01*
X184481483Y-87424075D01*
X184483301Y-87345055D01*
G36*
X183201391Y-90859368D02*
X183231828Y-90681809D01*
X183279201Y-90507156D01*
X183343380Y-90336683D01*
X183424239Y-90171661D01*
X183521649Y-90013365D01*
X183581073Y-89931149D01*
X183617660Y-89886579D01*
X183664753Y-89834168D01*
X183718307Y-89778003D01*
X183774278Y-89722171D01*
X183828619Y-89670758D01*
X183877287Y-89627851D01*
X183897592Y-89611362D01*
X184033766Y-89514013D01*
X184177579Y-89428196D01*
X184324975Y-89356101D01*
X184471898Y-89299915D01*
X184479313Y-89297513D01*
X184538738Y-89278417D01*
X184581300Y-89265327D01*
X184608153Y-89258833D01*
X184620449Y-89259519D01*
X184619342Y-89267974D01*
X184605986Y-89284784D01*
X184581535Y-89310536D01*
X184556111Y-89336584D01*
X184490462Y-89410197D01*
X184439774Y-89482024D01*
X184401316Y-89556678D01*
X184372353Y-89638769D01*
X184368222Y-89653630D01*
X184344667Y-89769805D01*
X184338307Y-89881538D01*
X184349255Y-89992277D01*
X184377625Y-90105469D01*
X184383745Y-90123910D01*
X184420305Y-90205858D01*
X184472427Y-90287396D01*
X184537066Y-90365315D01*
X184611178Y-90436407D01*
X184691720Y-90497465D01*
X184775646Y-90545279D01*
X184789717Y-90551722D01*
X184837773Y-90572930D01*
X184805127Y-90589463D01*
X184731132Y-90636741D01*
X184663557Y-90698977D01*
X184605177Y-90772673D01*
X184558765Y-90854329D01*
X184527235Y-90939935D01*
X184518130Y-90990117D01*
X184513580Y-91051248D01*
X184513586Y-91116023D01*
X184518147Y-91177136D01*
X184527235Y-91227177D01*
X184554245Y-91301863D01*
X184593404Y-91375070D01*
X184641850Y-91443143D01*
X184696721Y-91502426D01*
X184755156Y-91549264D01*
X184798351Y-91573467D01*
X184816615Y-91583372D01*
X184824222Y-91590764D01*
X184824222Y-91590769D01*
X184816446Y-91597529D01*
X184796496Y-91608827D01*
X184779537Y-91617127D01*
X184700748Y-91661566D01*
X184622157Y-91720222D01*
X184548193Y-91788977D01*
X184483284Y-91863715D01*
X184431858Y-91940320D01*
X184431837Y-91940356D01*
X184397361Y-92013605D01*
X184369071Y-92098688D01*
X184348778Y-92189145D01*
X184338590Y-92273593D01*
X184336866Y-92327312D01*
X184339895Y-92376149D01*
X184348445Y-92429761D01*
X184352640Y-92450295D01*
X184380946Y-92555849D01*
X184419244Y-92648373D01*
X184469831Y-92732004D01*
X184535003Y-92810882D01*
X184575023Y-92851019D01*
X184602124Y-92876812D01*
X184620323Y-92895261D01*
X184628295Y-92906622D01*
X184624717Y-92911152D01*
X184608265Y-92909108D01*
X184577613Y-92900747D01*
X184531439Y-92886327D01*
X184479313Y-92869599D01*
X184313466Y-92806653D01*
X184152942Y-92726370D01*
X183999574Y-92629900D01*
X183855193Y-92518394D01*
X183723243Y-92394669D01*
X183629393Y-92292307D01*
X183548901Y-92191729D01*
X183477805Y-92087366D01*
X183412143Y-91973652D01*
X183381578Y-91914483D01*
X183307715Y-91746214D01*
X183251556Y-91573214D01*
X183212972Y-91396756D01*
X183191835Y-91218114D01*
X183188017Y-91038561D01*
X183201391Y-90859368D01*
X183201391Y-90859368D01*
G37*
X183201391Y-90859368D02*
X183231828Y-90681809D01*
X183279201Y-90507156D01*
X183343380Y-90336683D01*
X183424239Y-90171661D01*
X183521649Y-90013365D01*
X183581073Y-89931149D01*
X183617660Y-89886579D01*
X183664753Y-89834168D01*
X183718307Y-89778003D01*
X183774278Y-89722171D01*
X183828619Y-89670758D01*
X183877287Y-89627851D01*
X183897592Y-89611362D01*
X184033766Y-89514013D01*
X184177579Y-89428196D01*
X184324975Y-89356101D01*
X184471898Y-89299915D01*
X184479313Y-89297513D01*
X184538738Y-89278417D01*
X184581300Y-89265327D01*
X184608153Y-89258833D01*
X184620449Y-89259519D01*
X184619342Y-89267974D01*
X184605986Y-89284784D01*
X184581535Y-89310536D01*
X184556111Y-89336584D01*
X184490462Y-89410197D01*
X184439774Y-89482024D01*
X184401316Y-89556678D01*
X184372353Y-89638769D01*
X184368222Y-89653630D01*
X184344667Y-89769805D01*
X184338307Y-89881538D01*
X184349255Y-89992277D01*
X184377625Y-90105469D01*
X184383745Y-90123910D01*
X184420305Y-90205858D01*
X184472427Y-90287396D01*
X184537066Y-90365315D01*
X184611178Y-90436407D01*
X184691720Y-90497465D01*
X184775646Y-90545279D01*
X184789717Y-90551722D01*
X184837773Y-90572930D01*
X184805127Y-90589463D01*
X184731132Y-90636741D01*
X184663557Y-90698977D01*
X184605177Y-90772673D01*
X184558765Y-90854329D01*
X184527235Y-90939935D01*
X184518130Y-90990117D01*
X184513580Y-91051248D01*
X184513586Y-91116023D01*
X184518147Y-91177136D01*
X184527235Y-91227177D01*
X184554245Y-91301863D01*
X184593404Y-91375070D01*
X184641850Y-91443143D01*
X184696721Y-91502426D01*
X184755156Y-91549264D01*
X184798351Y-91573467D01*
X184816615Y-91583372D01*
X184824222Y-91590764D01*
X184824222Y-91590769D01*
X184816446Y-91597529D01*
X184796496Y-91608827D01*
X184779537Y-91617127D01*
X184700748Y-91661566D01*
X184622157Y-91720222D01*
X184548193Y-91788977D01*
X184483284Y-91863715D01*
X184431858Y-91940320D01*
X184431837Y-91940356D01*
X184397361Y-92013605D01*
X184369071Y-92098688D01*
X184348778Y-92189145D01*
X184338590Y-92273593D01*
X184336866Y-92327312D01*
X184339895Y-92376149D01*
X184348445Y-92429761D01*
X184352640Y-92450295D01*
X184380946Y-92555849D01*
X184419244Y-92648373D01*
X184469831Y-92732004D01*
X184535003Y-92810882D01*
X184575023Y-92851019D01*
X184602124Y-92876812D01*
X184620323Y-92895261D01*
X184628295Y-92906622D01*
X184624717Y-92911152D01*
X184608265Y-92909108D01*
X184577613Y-92900747D01*
X184531439Y-92886327D01*
X184479313Y-92869599D01*
X184313466Y-92806653D01*
X184152942Y-92726370D01*
X183999574Y-92629900D01*
X183855193Y-92518394D01*
X183723243Y-92394669D01*
X183629393Y-92292307D01*
X183548901Y-92191729D01*
X183477805Y-92087366D01*
X183412143Y-91973652D01*
X183381578Y-91914483D01*
X183307715Y-91746214D01*
X183251556Y-91573214D01*
X183212972Y-91396756D01*
X183191835Y-91218114D01*
X183188017Y-91038561D01*
X183201391Y-90859368D01*
D13*
X162808334Y-86882143D02*
X162760715Y-86929762D01*
X162617858Y-86977381D01*
X162522620Y-86977381D01*
X162379762Y-86929762D01*
X162284524Y-86834524D01*
X162236905Y-86739286D01*
X162189286Y-86548810D01*
X162189286Y-86405952D01*
X162236905Y-86215476D01*
X162284524Y-86120238D01*
X162379762Y-86025000D01*
X162522620Y-85977381D01*
X162617858Y-85977381D01*
X162760715Y-86025000D01*
X162808334Y-86072619D01*
X163760715Y-86977381D02*
X163189286Y-86977381D01*
X163475000Y-86977381D02*
X163475000Y-85977381D01*
X163379762Y-86120238D01*
X163284524Y-86215476D01*
X163189286Y-86263095D01*
X153558334Y-86932143D02*
X153510715Y-86979762D01*
X153367858Y-87027381D01*
X153272620Y-87027381D01*
X153129762Y-86979762D01*
X153034524Y-86884524D01*
X152986905Y-86789286D01*
X152939286Y-86598810D01*
X152939286Y-86455952D01*
X152986905Y-86265476D01*
X153034524Y-86170238D01*
X153129762Y-86075000D01*
X153272620Y-86027381D01*
X153367858Y-86027381D01*
X153510715Y-86075000D01*
X153558334Y-86122619D01*
X153939286Y-86122619D02*
X153986905Y-86075000D01*
X154082143Y-86027381D01*
X154320239Y-86027381D01*
X154415477Y-86075000D01*
X154463096Y-86122619D01*
X154510715Y-86217857D01*
X154510715Y-86313095D01*
X154463096Y-86455952D01*
X153891667Y-87027381D01*
X154510715Y-87027381D01*
X143866667Y-74297381D02*
X143866667Y-75011667D01*
X143819047Y-75154524D01*
X143723809Y-75249762D01*
X143580952Y-75297381D01*
X143485714Y-75297381D01*
X144295238Y-74392619D02*
X144342857Y-74345000D01*
X144438095Y-74297381D01*
X144676191Y-74297381D01*
X144771429Y-74345000D01*
X144819048Y-74392619D01*
X144866667Y-74487857D01*
X144866667Y-74583095D01*
X144819048Y-74725952D01*
X144247619Y-75297381D01*
X144866667Y-75297381D01*
X171713095Y-86852381D02*
X171713095Y-87661905D01*
X171760714Y-87757143D01*
X171808333Y-87804762D01*
X171903571Y-87852381D01*
X172094048Y-87852381D01*
X172189286Y-87804762D01*
X172236905Y-87757143D01*
X172284524Y-87661905D01*
X172284524Y-86852381D01*
X173284524Y-87852381D02*
X172713095Y-87852381D01*
X172998809Y-87852381D02*
X172998809Y-86852381D01*
X172903571Y-86995238D01*
X172808333Y-87090476D01*
X172713095Y-87138095D01*
M02*
