G04 #@! TF.FileFunction,Copper,L2,Bot,Signal*
%FSLAX46Y46*%
G04 Gerber Fmt 4.6, Leading zero omitted, Abs format (unit mm)*
G04 Created by KiCad (PCBNEW 4.0.4-stable) date 05/29/18 15:17:11*
%MOMM*%
%LPD*%
G01*
G04 APERTURE LIST*
%ADD10C,0.100000*%
%ADD11R,1.700000X1.700000*%
%ADD12O,1.700000X1.700000*%
%ADD13C,0.600000*%
%ADD14C,0.250000*%
%ADD15C,0.254000*%
G04 APERTURE END LIST*
D10*
D11*
X144200000Y-77175000D03*
D12*
X144200000Y-79715000D03*
X144200000Y-82255000D03*
X144200000Y-84795000D03*
X144200000Y-87335000D03*
X144200000Y-89875000D03*
X144200000Y-92415000D03*
X144200000Y-94955000D03*
X144200000Y-97495000D03*
X144200000Y-100035000D03*
X144200000Y-102575000D03*
D11*
X152340000Y-79680000D03*
D12*
X154880000Y-79680000D03*
X157420000Y-79680000D03*
X159960000Y-79680000D03*
X162500000Y-79680000D03*
X165040000Y-79680000D03*
X167580000Y-79680000D03*
X170120000Y-79680000D03*
X172660000Y-79680000D03*
X175200000Y-79680000D03*
X177740000Y-79680000D03*
X180280000Y-79680000D03*
X182820000Y-79680000D03*
X185360000Y-79680000D03*
X187900000Y-79680000D03*
X190440000Y-79680000D03*
D11*
X152340000Y-100000000D03*
D12*
X154880000Y-100000000D03*
X157420000Y-100000000D03*
X159960000Y-100000000D03*
X162500000Y-100000000D03*
X165040000Y-100000000D03*
X167580000Y-100000000D03*
X170120000Y-100000000D03*
X172660000Y-100000000D03*
X175200000Y-100000000D03*
X177740000Y-100000000D03*
X180280000Y-100000000D03*
X182820000Y-100000000D03*
X185360000Y-100000000D03*
X187900000Y-100000000D03*
X190440000Y-100000000D03*
D13*
X183050000Y-89825000D03*
X162925000Y-85275000D03*
X153900000Y-86525000D03*
X167525000Y-91425000D03*
X163900000Y-92275000D03*
D14*
X168800000Y-91425000D02*
X170400000Y-89825000D01*
X170400000Y-89825000D02*
X183050000Y-89825000D01*
X167525000Y-91425000D02*
X168800000Y-91425000D01*
X163900000Y-92275000D02*
X164025000Y-92400000D01*
X164025000Y-92400000D02*
X164200000Y-92400000D01*
D15*
G36*
X150840241Y-78634760D02*
X150938308Y-78700286D01*
X150947949Y-78706728D01*
X151075000Y-78732000D01*
X151176440Y-78732000D01*
X151156594Y-78830000D01*
X151156594Y-80530000D01*
X151179395Y-80651179D01*
X151251012Y-80762474D01*
X151360286Y-80837138D01*
X151490000Y-80863406D01*
X153190000Y-80863406D01*
X153311179Y-80840605D01*
X153422474Y-80768988D01*
X153497138Y-80659714D01*
X153523406Y-80530000D01*
X153523406Y-78830000D01*
X153504966Y-78732000D01*
X154186435Y-78732000D01*
X154047735Y-78824676D01*
X153792594Y-79206523D01*
X153703000Y-79656941D01*
X153703000Y-79703059D01*
X153792594Y-80153477D01*
X154047735Y-80535324D01*
X154429582Y-80790465D01*
X154880000Y-80880059D01*
X155330418Y-80790465D01*
X155712265Y-80535324D01*
X155967406Y-80153477D01*
X156057000Y-79703059D01*
X156057000Y-79656941D01*
X155967406Y-79206523D01*
X155712265Y-78824676D01*
X155573565Y-78732000D01*
X156726435Y-78732000D01*
X156587735Y-78824676D01*
X156332594Y-79206523D01*
X156243000Y-79656941D01*
X156243000Y-79703059D01*
X156332594Y-80153477D01*
X156587735Y-80535324D01*
X156969582Y-80790465D01*
X157420000Y-80880059D01*
X157870418Y-80790465D01*
X158252265Y-80535324D01*
X158507406Y-80153477D01*
X158597000Y-79703059D01*
X158597000Y-79656941D01*
X158507406Y-79206523D01*
X158252265Y-78824676D01*
X158113565Y-78732000D01*
X159266435Y-78732000D01*
X159127735Y-78824676D01*
X158872594Y-79206523D01*
X158783000Y-79656941D01*
X158783000Y-79703059D01*
X158872594Y-80153477D01*
X159127735Y-80535324D01*
X159509582Y-80790465D01*
X159960000Y-80880059D01*
X160410418Y-80790465D01*
X160792265Y-80535324D01*
X161047406Y-80153477D01*
X161137000Y-79703059D01*
X161137000Y-79656941D01*
X161047406Y-79206523D01*
X160792265Y-78824676D01*
X160653565Y-78732000D01*
X161806435Y-78732000D01*
X161667735Y-78824676D01*
X161412594Y-79206523D01*
X161323000Y-79656941D01*
X161323000Y-79703059D01*
X161412594Y-80153477D01*
X161667735Y-80535324D01*
X162049582Y-80790465D01*
X162500000Y-80880059D01*
X162950418Y-80790465D01*
X163332265Y-80535324D01*
X163587406Y-80153477D01*
X163677000Y-79703059D01*
X163677000Y-79656941D01*
X163587406Y-79206523D01*
X163332265Y-78824676D01*
X163193565Y-78732000D01*
X164346435Y-78732000D01*
X164207735Y-78824676D01*
X163952594Y-79206523D01*
X163863000Y-79656941D01*
X163863000Y-79703059D01*
X163952594Y-80153477D01*
X164207735Y-80535324D01*
X164589582Y-80790465D01*
X165040000Y-80880059D01*
X165490418Y-80790465D01*
X165872265Y-80535324D01*
X166127406Y-80153477D01*
X166217000Y-79703059D01*
X166217000Y-79656941D01*
X166127406Y-79206523D01*
X165872265Y-78824676D01*
X165733565Y-78732000D01*
X166886435Y-78732000D01*
X166747735Y-78824676D01*
X166492594Y-79206523D01*
X166403000Y-79656941D01*
X166403000Y-79703059D01*
X166492594Y-80153477D01*
X166747735Y-80535324D01*
X167129582Y-80790465D01*
X167580000Y-80880059D01*
X168030418Y-80790465D01*
X168412265Y-80535324D01*
X168667406Y-80153477D01*
X168757000Y-79703059D01*
X168757000Y-79656941D01*
X168667406Y-79206523D01*
X168412265Y-78824676D01*
X168273565Y-78732000D01*
X169426435Y-78732000D01*
X169287735Y-78824676D01*
X169032594Y-79206523D01*
X168943000Y-79656941D01*
X168943000Y-79703059D01*
X169032594Y-80153477D01*
X169287735Y-80535324D01*
X169669582Y-80790465D01*
X170120000Y-80880059D01*
X170570418Y-80790465D01*
X170952265Y-80535324D01*
X171207406Y-80153477D01*
X171297000Y-79703059D01*
X171297000Y-79656941D01*
X171207406Y-79206523D01*
X170952265Y-78824676D01*
X170813565Y-78732000D01*
X171966435Y-78732000D01*
X171827735Y-78824676D01*
X171572594Y-79206523D01*
X171483000Y-79656941D01*
X171483000Y-79703059D01*
X171572594Y-80153477D01*
X171827735Y-80535324D01*
X172209582Y-80790465D01*
X172660000Y-80880059D01*
X173110418Y-80790465D01*
X173492265Y-80535324D01*
X173747406Y-80153477D01*
X173837000Y-79703059D01*
X173837000Y-79656941D01*
X173747406Y-79206523D01*
X173492265Y-78824676D01*
X173353565Y-78732000D01*
X174506435Y-78732000D01*
X174367735Y-78824676D01*
X174112594Y-79206523D01*
X174023000Y-79656941D01*
X174023000Y-79703059D01*
X174112594Y-80153477D01*
X174367735Y-80535324D01*
X174749582Y-80790465D01*
X175200000Y-80880059D01*
X175650418Y-80790465D01*
X176032265Y-80535324D01*
X176287406Y-80153477D01*
X176377000Y-79703059D01*
X176377000Y-79656941D01*
X176287406Y-79206523D01*
X176032265Y-78824676D01*
X175893565Y-78732000D01*
X177046435Y-78732000D01*
X176907735Y-78824676D01*
X176652594Y-79206523D01*
X176563000Y-79656941D01*
X176563000Y-79703059D01*
X176652594Y-80153477D01*
X176907735Y-80535324D01*
X177289582Y-80790465D01*
X177740000Y-80880059D01*
X178190418Y-80790465D01*
X178572265Y-80535324D01*
X178827406Y-80153477D01*
X178917000Y-79703059D01*
X178917000Y-79656941D01*
X178827406Y-79206523D01*
X178572265Y-78824676D01*
X178433565Y-78732000D01*
X179586435Y-78732000D01*
X179447735Y-78824676D01*
X179192594Y-79206523D01*
X179103000Y-79656941D01*
X179103000Y-79703059D01*
X179192594Y-80153477D01*
X179447735Y-80535324D01*
X179829582Y-80790465D01*
X180280000Y-80880059D01*
X180730418Y-80790465D01*
X181112265Y-80535324D01*
X181367406Y-80153477D01*
X181457000Y-79703059D01*
X181457000Y-79656941D01*
X181367406Y-79206523D01*
X181112265Y-78824676D01*
X180973565Y-78732000D01*
X182126435Y-78732000D01*
X181987735Y-78824676D01*
X181732594Y-79206523D01*
X181643000Y-79656941D01*
X181643000Y-79703059D01*
X181732594Y-80153477D01*
X181987735Y-80535324D01*
X182369582Y-80790465D01*
X182820000Y-80880059D01*
X183270418Y-80790465D01*
X183652265Y-80535324D01*
X183907406Y-80153477D01*
X183997000Y-79703059D01*
X183997000Y-79656941D01*
X183907406Y-79206523D01*
X183652265Y-78824676D01*
X183513565Y-78732000D01*
X184666435Y-78732000D01*
X184527735Y-78824676D01*
X184272594Y-79206523D01*
X184183000Y-79656941D01*
X184183000Y-79703059D01*
X184272594Y-80153477D01*
X184527735Y-80535324D01*
X184909582Y-80790465D01*
X185360000Y-80880059D01*
X185810418Y-80790465D01*
X186192265Y-80535324D01*
X186447406Y-80153477D01*
X186537000Y-79703059D01*
X186537000Y-79656941D01*
X186447406Y-79206523D01*
X186192265Y-78824676D01*
X186053565Y-78732000D01*
X187206435Y-78732000D01*
X187067735Y-78824676D01*
X186812594Y-79206523D01*
X186723000Y-79656941D01*
X186723000Y-79703059D01*
X186812594Y-80153477D01*
X187067735Y-80535324D01*
X187449582Y-80790465D01*
X187900000Y-80880059D01*
X188350418Y-80790465D01*
X188732265Y-80535324D01*
X188987406Y-80153477D01*
X189077000Y-79703059D01*
X189077000Y-79656941D01*
X188987406Y-79206523D01*
X188732265Y-78824676D01*
X188593565Y-78732000D01*
X189746435Y-78732000D01*
X189607735Y-78824676D01*
X189352594Y-79206523D01*
X189263000Y-79656941D01*
X189263000Y-79703059D01*
X189352594Y-80153477D01*
X189607735Y-80535324D01*
X189989582Y-80790465D01*
X190440000Y-80880059D01*
X190890418Y-80790465D01*
X191272265Y-80535324D01*
X191368000Y-80392046D01*
X191368000Y-99287954D01*
X191272265Y-99144676D01*
X190890418Y-98889535D01*
X190440000Y-98799941D01*
X189989582Y-98889535D01*
X189607735Y-99144676D01*
X189352594Y-99526523D01*
X189263000Y-99976941D01*
X189263000Y-100023059D01*
X189352594Y-100473477D01*
X189607735Y-100855324D01*
X189813783Y-100993000D01*
X188526217Y-100993000D01*
X188732265Y-100855324D01*
X188987406Y-100473477D01*
X189077000Y-100023059D01*
X189077000Y-99976941D01*
X188987406Y-99526523D01*
X188732265Y-99144676D01*
X188350418Y-98889535D01*
X187900000Y-98799941D01*
X187449582Y-98889535D01*
X187067735Y-99144676D01*
X186812594Y-99526523D01*
X186723000Y-99976941D01*
X186723000Y-100023059D01*
X186812594Y-100473477D01*
X187067735Y-100855324D01*
X187273783Y-100993000D01*
X185986217Y-100993000D01*
X186192265Y-100855324D01*
X186447406Y-100473477D01*
X186537000Y-100023059D01*
X186537000Y-99976941D01*
X186447406Y-99526523D01*
X186192265Y-99144676D01*
X185810418Y-98889535D01*
X185360000Y-98799941D01*
X184909582Y-98889535D01*
X184527735Y-99144676D01*
X184272594Y-99526523D01*
X184183000Y-99976941D01*
X184183000Y-100023059D01*
X184272594Y-100473477D01*
X184527735Y-100855324D01*
X184733783Y-100993000D01*
X183446217Y-100993000D01*
X183652265Y-100855324D01*
X183907406Y-100473477D01*
X183997000Y-100023059D01*
X183997000Y-99976941D01*
X183907406Y-99526523D01*
X183652265Y-99144676D01*
X183270418Y-98889535D01*
X182820000Y-98799941D01*
X182369582Y-98889535D01*
X181987735Y-99144676D01*
X181732594Y-99526523D01*
X181643000Y-99976941D01*
X181643000Y-100023059D01*
X181732594Y-100473477D01*
X181987735Y-100855324D01*
X182193783Y-100993000D01*
X180906217Y-100993000D01*
X181112265Y-100855324D01*
X181367406Y-100473477D01*
X181457000Y-100023059D01*
X181457000Y-99976941D01*
X181367406Y-99526523D01*
X181112265Y-99144676D01*
X180730418Y-98889535D01*
X180280000Y-98799941D01*
X179829582Y-98889535D01*
X179447735Y-99144676D01*
X179192594Y-99526523D01*
X179103000Y-99976941D01*
X179103000Y-100023059D01*
X179192594Y-100473477D01*
X179447735Y-100855324D01*
X179653783Y-100993000D01*
X178366217Y-100993000D01*
X178572265Y-100855324D01*
X178827406Y-100473477D01*
X178917000Y-100023059D01*
X178917000Y-99976941D01*
X178827406Y-99526523D01*
X178572265Y-99144676D01*
X178190418Y-98889535D01*
X177740000Y-98799941D01*
X177289582Y-98889535D01*
X176907735Y-99144676D01*
X176652594Y-99526523D01*
X176563000Y-99976941D01*
X176563000Y-100023059D01*
X176652594Y-100473477D01*
X176907735Y-100855324D01*
X177113783Y-100993000D01*
X175826217Y-100993000D01*
X176032265Y-100855324D01*
X176287406Y-100473477D01*
X176377000Y-100023059D01*
X176377000Y-99976941D01*
X176287406Y-99526523D01*
X176032265Y-99144676D01*
X175650418Y-98889535D01*
X175200000Y-98799941D01*
X174749582Y-98889535D01*
X174367735Y-99144676D01*
X174112594Y-99526523D01*
X174023000Y-99976941D01*
X174023000Y-100023059D01*
X174112594Y-100473477D01*
X174367735Y-100855324D01*
X174573783Y-100993000D01*
X173286217Y-100993000D01*
X173492265Y-100855324D01*
X173747406Y-100473477D01*
X173837000Y-100023059D01*
X173837000Y-99976941D01*
X173747406Y-99526523D01*
X173492265Y-99144676D01*
X173110418Y-98889535D01*
X172660000Y-98799941D01*
X172209582Y-98889535D01*
X171827735Y-99144676D01*
X171572594Y-99526523D01*
X171483000Y-99976941D01*
X171483000Y-100023059D01*
X171572594Y-100473477D01*
X171827735Y-100855324D01*
X172033783Y-100993000D01*
X170746217Y-100993000D01*
X170952265Y-100855324D01*
X171207406Y-100473477D01*
X171297000Y-100023059D01*
X171297000Y-99976941D01*
X171207406Y-99526523D01*
X170952265Y-99144676D01*
X170570418Y-98889535D01*
X170120000Y-98799941D01*
X169669582Y-98889535D01*
X169287735Y-99144676D01*
X169032594Y-99526523D01*
X168943000Y-99976941D01*
X168943000Y-100023059D01*
X169032594Y-100473477D01*
X169287735Y-100855324D01*
X169493783Y-100993000D01*
X168206217Y-100993000D01*
X168412265Y-100855324D01*
X168667406Y-100473477D01*
X168757000Y-100023059D01*
X168757000Y-99976941D01*
X168667406Y-99526523D01*
X168412265Y-99144676D01*
X168030418Y-98889535D01*
X167580000Y-98799941D01*
X167129582Y-98889535D01*
X166747735Y-99144676D01*
X166492594Y-99526523D01*
X166403000Y-99976941D01*
X166403000Y-100023059D01*
X166492594Y-100473477D01*
X166747735Y-100855324D01*
X166953783Y-100993000D01*
X165666217Y-100993000D01*
X165872265Y-100855324D01*
X166127406Y-100473477D01*
X166217000Y-100023059D01*
X166217000Y-99976941D01*
X166127406Y-99526523D01*
X165872265Y-99144676D01*
X165490418Y-98889535D01*
X165040000Y-98799941D01*
X164589582Y-98889535D01*
X164207735Y-99144676D01*
X163952594Y-99526523D01*
X163863000Y-99976941D01*
X163863000Y-100023059D01*
X163952594Y-100473477D01*
X164207735Y-100855324D01*
X164413783Y-100993000D01*
X163126217Y-100993000D01*
X163332265Y-100855324D01*
X163587406Y-100473477D01*
X163677000Y-100023059D01*
X163677000Y-99976941D01*
X163587406Y-99526523D01*
X163332265Y-99144676D01*
X162950418Y-98889535D01*
X162500000Y-98799941D01*
X162049582Y-98889535D01*
X161667735Y-99144676D01*
X161412594Y-99526523D01*
X161323000Y-99976941D01*
X161323000Y-100023059D01*
X161412594Y-100473477D01*
X161667735Y-100855324D01*
X161873783Y-100993000D01*
X160586217Y-100993000D01*
X160792265Y-100855324D01*
X161047406Y-100473477D01*
X161137000Y-100023059D01*
X161137000Y-99976941D01*
X161047406Y-99526523D01*
X160792265Y-99144676D01*
X160410418Y-98889535D01*
X159960000Y-98799941D01*
X159509582Y-98889535D01*
X159127735Y-99144676D01*
X158872594Y-99526523D01*
X158783000Y-99976941D01*
X158783000Y-100023059D01*
X158872594Y-100473477D01*
X159127735Y-100855324D01*
X159333783Y-100993000D01*
X158046217Y-100993000D01*
X158252265Y-100855324D01*
X158507406Y-100473477D01*
X158597000Y-100023059D01*
X158597000Y-99976941D01*
X158507406Y-99526523D01*
X158252265Y-99144676D01*
X157870418Y-98889535D01*
X157420000Y-98799941D01*
X156969582Y-98889535D01*
X156587735Y-99144676D01*
X156332594Y-99526523D01*
X156243000Y-99976941D01*
X156243000Y-100023059D01*
X156332594Y-100473477D01*
X156587735Y-100855324D01*
X156793783Y-100993000D01*
X155506217Y-100993000D01*
X155712265Y-100855324D01*
X155967406Y-100473477D01*
X156057000Y-100023059D01*
X156057000Y-99976941D01*
X155967406Y-99526523D01*
X155712265Y-99144676D01*
X155330418Y-98889535D01*
X154880000Y-98799941D01*
X154429582Y-98889535D01*
X154047735Y-99144676D01*
X153792594Y-99526523D01*
X153703000Y-99976941D01*
X153703000Y-100023059D01*
X153792594Y-100473477D01*
X154047735Y-100855324D01*
X154253783Y-100993000D01*
X153488060Y-100993000D01*
X153497138Y-100979714D01*
X153523406Y-100850000D01*
X153523406Y-99150000D01*
X153500605Y-99028821D01*
X153428988Y-98917526D01*
X153319714Y-98842862D01*
X153190000Y-98816594D01*
X151490000Y-98816594D01*
X151368821Y-98839395D01*
X151257526Y-98911012D01*
X151182862Y-99020286D01*
X151156594Y-99150000D01*
X151156594Y-100850000D01*
X151179395Y-100971179D01*
X151193437Y-100993000D01*
X151050000Y-100993000D01*
X150922949Y-101018272D01*
X150815241Y-101090240D01*
X148362482Y-103543000D01*
X144852181Y-103543000D01*
X145055324Y-103407265D01*
X145310465Y-103025418D01*
X145400059Y-102575000D01*
X145310465Y-102124582D01*
X145055324Y-101742735D01*
X144673477Y-101487594D01*
X144223059Y-101398000D01*
X144176941Y-101398000D01*
X143726523Y-101487594D01*
X143344676Y-101742735D01*
X143232000Y-101911367D01*
X143232000Y-100698633D01*
X143344676Y-100867265D01*
X143726523Y-101122406D01*
X144176941Y-101212000D01*
X144223059Y-101212000D01*
X144673477Y-101122406D01*
X145055324Y-100867265D01*
X145310465Y-100485418D01*
X145400059Y-100035000D01*
X145310465Y-99584582D01*
X145055324Y-99202735D01*
X144673477Y-98947594D01*
X144223059Y-98858000D01*
X144176941Y-98858000D01*
X143726523Y-98947594D01*
X143344676Y-99202735D01*
X143232000Y-99371367D01*
X143232000Y-98158633D01*
X143344676Y-98327265D01*
X143726523Y-98582406D01*
X144176941Y-98672000D01*
X144223059Y-98672000D01*
X144673477Y-98582406D01*
X145055324Y-98327265D01*
X145310465Y-97945418D01*
X145400059Y-97495000D01*
X145310465Y-97044582D01*
X145055324Y-96662735D01*
X144673477Y-96407594D01*
X144223059Y-96318000D01*
X144176941Y-96318000D01*
X143726523Y-96407594D01*
X143344676Y-96662735D01*
X143232000Y-96831367D01*
X143232000Y-95618633D01*
X143344676Y-95787265D01*
X143726523Y-96042406D01*
X144176941Y-96132000D01*
X144223059Y-96132000D01*
X144673477Y-96042406D01*
X145055324Y-95787265D01*
X145310465Y-95405418D01*
X145400059Y-94955000D01*
X145310465Y-94504582D01*
X145055324Y-94122735D01*
X144673477Y-93867594D01*
X144223059Y-93778000D01*
X144176941Y-93778000D01*
X143726523Y-93867594D01*
X143344676Y-94122735D01*
X143232000Y-94291367D01*
X143232000Y-93078633D01*
X143344676Y-93247265D01*
X143726523Y-93502406D01*
X144176941Y-93592000D01*
X144223059Y-93592000D01*
X144673477Y-93502406D01*
X145055324Y-93247265D01*
X145310465Y-92865418D01*
X145400059Y-92415000D01*
X145310465Y-91964582D01*
X145055324Y-91582735D01*
X144673477Y-91327594D01*
X144223059Y-91238000D01*
X144176941Y-91238000D01*
X143726523Y-91327594D01*
X143344676Y-91582735D01*
X143232000Y-91751367D01*
X143232000Y-90538633D01*
X143344676Y-90707265D01*
X143726523Y-90962406D01*
X144176941Y-91052000D01*
X144223059Y-91052000D01*
X144673477Y-90962406D01*
X145055324Y-90707265D01*
X145310465Y-90325418D01*
X145400059Y-89875000D01*
X145310465Y-89424582D01*
X145055324Y-89042735D01*
X144673477Y-88787594D01*
X144223059Y-88698000D01*
X144176941Y-88698000D01*
X143726523Y-88787594D01*
X143344676Y-89042735D01*
X143232000Y-89211367D01*
X143232000Y-87998633D01*
X143344676Y-88167265D01*
X143726523Y-88422406D01*
X144176941Y-88512000D01*
X144223059Y-88512000D01*
X144673477Y-88422406D01*
X145055324Y-88167265D01*
X145310465Y-87785418D01*
X145400059Y-87335000D01*
X145310465Y-86884582D01*
X145055324Y-86502735D01*
X144673477Y-86247594D01*
X144223059Y-86158000D01*
X144176941Y-86158000D01*
X143726523Y-86247594D01*
X143344676Y-86502735D01*
X143232000Y-86671367D01*
X143232000Y-85458633D01*
X143344676Y-85627265D01*
X143726523Y-85882406D01*
X144176941Y-85972000D01*
X144223059Y-85972000D01*
X144673477Y-85882406D01*
X145055324Y-85627265D01*
X145310465Y-85245418D01*
X145400059Y-84795000D01*
X145310465Y-84344582D01*
X145055324Y-83962735D01*
X144673477Y-83707594D01*
X144223059Y-83618000D01*
X144176941Y-83618000D01*
X143726523Y-83707594D01*
X143344676Y-83962735D01*
X143232000Y-84131367D01*
X143232000Y-82918633D01*
X143344676Y-83087265D01*
X143726523Y-83342406D01*
X144176941Y-83432000D01*
X144223059Y-83432000D01*
X144673477Y-83342406D01*
X145055324Y-83087265D01*
X145310465Y-82705418D01*
X145400059Y-82255000D01*
X145310465Y-81804582D01*
X145055324Y-81422735D01*
X144673477Y-81167594D01*
X144574965Y-81147999D01*
X145081358Y-80910183D01*
X145471645Y-80481924D01*
X145641476Y-80071890D01*
X145520155Y-79842000D01*
X144327000Y-79842000D01*
X144327000Y-79862000D01*
X144073000Y-79862000D01*
X144073000Y-79842000D01*
X144053000Y-79842000D01*
X144053000Y-79588000D01*
X144073000Y-79588000D01*
X144073000Y-79568000D01*
X144327000Y-79568000D01*
X144327000Y-79588000D01*
X145520155Y-79588000D01*
X145641476Y-79358110D01*
X145471645Y-78948076D01*
X145081358Y-78519817D01*
X144737657Y-78358406D01*
X145050000Y-78358406D01*
X145171179Y-78335605D01*
X145282474Y-78263988D01*
X145357138Y-78154714D01*
X145383406Y-78025000D01*
X145383406Y-76325000D01*
X145365907Y-76232000D01*
X148437482Y-76232000D01*
X150840241Y-78634760D01*
X150840241Y-78634760D01*
G37*
X150840241Y-78634760D02*
X150938308Y-78700286D01*
X150947949Y-78706728D01*
X151075000Y-78732000D01*
X151176440Y-78732000D01*
X151156594Y-78830000D01*
X151156594Y-80530000D01*
X151179395Y-80651179D01*
X151251012Y-80762474D01*
X151360286Y-80837138D01*
X151490000Y-80863406D01*
X153190000Y-80863406D01*
X153311179Y-80840605D01*
X153422474Y-80768988D01*
X153497138Y-80659714D01*
X153523406Y-80530000D01*
X153523406Y-78830000D01*
X153504966Y-78732000D01*
X154186435Y-78732000D01*
X154047735Y-78824676D01*
X153792594Y-79206523D01*
X153703000Y-79656941D01*
X153703000Y-79703059D01*
X153792594Y-80153477D01*
X154047735Y-80535324D01*
X154429582Y-80790465D01*
X154880000Y-80880059D01*
X155330418Y-80790465D01*
X155712265Y-80535324D01*
X155967406Y-80153477D01*
X156057000Y-79703059D01*
X156057000Y-79656941D01*
X155967406Y-79206523D01*
X155712265Y-78824676D01*
X155573565Y-78732000D01*
X156726435Y-78732000D01*
X156587735Y-78824676D01*
X156332594Y-79206523D01*
X156243000Y-79656941D01*
X156243000Y-79703059D01*
X156332594Y-80153477D01*
X156587735Y-80535324D01*
X156969582Y-80790465D01*
X157420000Y-80880059D01*
X157870418Y-80790465D01*
X158252265Y-80535324D01*
X158507406Y-80153477D01*
X158597000Y-79703059D01*
X158597000Y-79656941D01*
X158507406Y-79206523D01*
X158252265Y-78824676D01*
X158113565Y-78732000D01*
X159266435Y-78732000D01*
X159127735Y-78824676D01*
X158872594Y-79206523D01*
X158783000Y-79656941D01*
X158783000Y-79703059D01*
X158872594Y-80153477D01*
X159127735Y-80535324D01*
X159509582Y-80790465D01*
X159960000Y-80880059D01*
X160410418Y-80790465D01*
X160792265Y-80535324D01*
X161047406Y-80153477D01*
X161137000Y-79703059D01*
X161137000Y-79656941D01*
X161047406Y-79206523D01*
X160792265Y-78824676D01*
X160653565Y-78732000D01*
X161806435Y-78732000D01*
X161667735Y-78824676D01*
X161412594Y-79206523D01*
X161323000Y-79656941D01*
X161323000Y-79703059D01*
X161412594Y-80153477D01*
X161667735Y-80535324D01*
X162049582Y-80790465D01*
X162500000Y-80880059D01*
X162950418Y-80790465D01*
X163332265Y-80535324D01*
X163587406Y-80153477D01*
X163677000Y-79703059D01*
X163677000Y-79656941D01*
X163587406Y-79206523D01*
X163332265Y-78824676D01*
X163193565Y-78732000D01*
X164346435Y-78732000D01*
X164207735Y-78824676D01*
X163952594Y-79206523D01*
X163863000Y-79656941D01*
X163863000Y-79703059D01*
X163952594Y-80153477D01*
X164207735Y-80535324D01*
X164589582Y-80790465D01*
X165040000Y-80880059D01*
X165490418Y-80790465D01*
X165872265Y-80535324D01*
X166127406Y-80153477D01*
X166217000Y-79703059D01*
X166217000Y-79656941D01*
X166127406Y-79206523D01*
X165872265Y-78824676D01*
X165733565Y-78732000D01*
X166886435Y-78732000D01*
X166747735Y-78824676D01*
X166492594Y-79206523D01*
X166403000Y-79656941D01*
X166403000Y-79703059D01*
X166492594Y-80153477D01*
X166747735Y-80535324D01*
X167129582Y-80790465D01*
X167580000Y-80880059D01*
X168030418Y-80790465D01*
X168412265Y-80535324D01*
X168667406Y-80153477D01*
X168757000Y-79703059D01*
X168757000Y-79656941D01*
X168667406Y-79206523D01*
X168412265Y-78824676D01*
X168273565Y-78732000D01*
X169426435Y-78732000D01*
X169287735Y-78824676D01*
X169032594Y-79206523D01*
X168943000Y-79656941D01*
X168943000Y-79703059D01*
X169032594Y-80153477D01*
X169287735Y-80535324D01*
X169669582Y-80790465D01*
X170120000Y-80880059D01*
X170570418Y-80790465D01*
X170952265Y-80535324D01*
X171207406Y-80153477D01*
X171297000Y-79703059D01*
X171297000Y-79656941D01*
X171207406Y-79206523D01*
X170952265Y-78824676D01*
X170813565Y-78732000D01*
X171966435Y-78732000D01*
X171827735Y-78824676D01*
X171572594Y-79206523D01*
X171483000Y-79656941D01*
X171483000Y-79703059D01*
X171572594Y-80153477D01*
X171827735Y-80535324D01*
X172209582Y-80790465D01*
X172660000Y-80880059D01*
X173110418Y-80790465D01*
X173492265Y-80535324D01*
X173747406Y-80153477D01*
X173837000Y-79703059D01*
X173837000Y-79656941D01*
X173747406Y-79206523D01*
X173492265Y-78824676D01*
X173353565Y-78732000D01*
X174506435Y-78732000D01*
X174367735Y-78824676D01*
X174112594Y-79206523D01*
X174023000Y-79656941D01*
X174023000Y-79703059D01*
X174112594Y-80153477D01*
X174367735Y-80535324D01*
X174749582Y-80790465D01*
X175200000Y-80880059D01*
X175650418Y-80790465D01*
X176032265Y-80535324D01*
X176287406Y-80153477D01*
X176377000Y-79703059D01*
X176377000Y-79656941D01*
X176287406Y-79206523D01*
X176032265Y-78824676D01*
X175893565Y-78732000D01*
X177046435Y-78732000D01*
X176907735Y-78824676D01*
X176652594Y-79206523D01*
X176563000Y-79656941D01*
X176563000Y-79703059D01*
X176652594Y-80153477D01*
X176907735Y-80535324D01*
X177289582Y-80790465D01*
X177740000Y-80880059D01*
X178190418Y-80790465D01*
X178572265Y-80535324D01*
X178827406Y-80153477D01*
X178917000Y-79703059D01*
X178917000Y-79656941D01*
X178827406Y-79206523D01*
X178572265Y-78824676D01*
X178433565Y-78732000D01*
X179586435Y-78732000D01*
X179447735Y-78824676D01*
X179192594Y-79206523D01*
X179103000Y-79656941D01*
X179103000Y-79703059D01*
X179192594Y-80153477D01*
X179447735Y-80535324D01*
X179829582Y-80790465D01*
X180280000Y-80880059D01*
X180730418Y-80790465D01*
X181112265Y-80535324D01*
X181367406Y-80153477D01*
X181457000Y-79703059D01*
X181457000Y-79656941D01*
X181367406Y-79206523D01*
X181112265Y-78824676D01*
X180973565Y-78732000D01*
X182126435Y-78732000D01*
X181987735Y-78824676D01*
X181732594Y-79206523D01*
X181643000Y-79656941D01*
X181643000Y-79703059D01*
X181732594Y-80153477D01*
X181987735Y-80535324D01*
X182369582Y-80790465D01*
X182820000Y-80880059D01*
X183270418Y-80790465D01*
X183652265Y-80535324D01*
X183907406Y-80153477D01*
X183997000Y-79703059D01*
X183997000Y-79656941D01*
X183907406Y-79206523D01*
X183652265Y-78824676D01*
X183513565Y-78732000D01*
X184666435Y-78732000D01*
X184527735Y-78824676D01*
X184272594Y-79206523D01*
X184183000Y-79656941D01*
X184183000Y-79703059D01*
X184272594Y-80153477D01*
X184527735Y-80535324D01*
X184909582Y-80790465D01*
X185360000Y-80880059D01*
X185810418Y-80790465D01*
X186192265Y-80535324D01*
X186447406Y-80153477D01*
X186537000Y-79703059D01*
X186537000Y-79656941D01*
X186447406Y-79206523D01*
X186192265Y-78824676D01*
X186053565Y-78732000D01*
X187206435Y-78732000D01*
X187067735Y-78824676D01*
X186812594Y-79206523D01*
X186723000Y-79656941D01*
X186723000Y-79703059D01*
X186812594Y-80153477D01*
X187067735Y-80535324D01*
X187449582Y-80790465D01*
X187900000Y-80880059D01*
X188350418Y-80790465D01*
X188732265Y-80535324D01*
X188987406Y-80153477D01*
X189077000Y-79703059D01*
X189077000Y-79656941D01*
X188987406Y-79206523D01*
X188732265Y-78824676D01*
X188593565Y-78732000D01*
X189746435Y-78732000D01*
X189607735Y-78824676D01*
X189352594Y-79206523D01*
X189263000Y-79656941D01*
X189263000Y-79703059D01*
X189352594Y-80153477D01*
X189607735Y-80535324D01*
X189989582Y-80790465D01*
X190440000Y-80880059D01*
X190890418Y-80790465D01*
X191272265Y-80535324D01*
X191368000Y-80392046D01*
X191368000Y-99287954D01*
X191272265Y-99144676D01*
X190890418Y-98889535D01*
X190440000Y-98799941D01*
X189989582Y-98889535D01*
X189607735Y-99144676D01*
X189352594Y-99526523D01*
X189263000Y-99976941D01*
X189263000Y-100023059D01*
X189352594Y-100473477D01*
X189607735Y-100855324D01*
X189813783Y-100993000D01*
X188526217Y-100993000D01*
X188732265Y-100855324D01*
X188987406Y-100473477D01*
X189077000Y-100023059D01*
X189077000Y-99976941D01*
X188987406Y-99526523D01*
X188732265Y-99144676D01*
X188350418Y-98889535D01*
X187900000Y-98799941D01*
X187449582Y-98889535D01*
X187067735Y-99144676D01*
X186812594Y-99526523D01*
X186723000Y-99976941D01*
X186723000Y-100023059D01*
X186812594Y-100473477D01*
X187067735Y-100855324D01*
X187273783Y-100993000D01*
X185986217Y-100993000D01*
X186192265Y-100855324D01*
X186447406Y-100473477D01*
X186537000Y-100023059D01*
X186537000Y-99976941D01*
X186447406Y-99526523D01*
X186192265Y-99144676D01*
X185810418Y-98889535D01*
X185360000Y-98799941D01*
X184909582Y-98889535D01*
X184527735Y-99144676D01*
X184272594Y-99526523D01*
X184183000Y-99976941D01*
X184183000Y-100023059D01*
X184272594Y-100473477D01*
X184527735Y-100855324D01*
X184733783Y-100993000D01*
X183446217Y-100993000D01*
X183652265Y-100855324D01*
X183907406Y-100473477D01*
X183997000Y-100023059D01*
X183997000Y-99976941D01*
X183907406Y-99526523D01*
X183652265Y-99144676D01*
X183270418Y-98889535D01*
X182820000Y-98799941D01*
X182369582Y-98889535D01*
X181987735Y-99144676D01*
X181732594Y-99526523D01*
X181643000Y-99976941D01*
X181643000Y-100023059D01*
X181732594Y-100473477D01*
X181987735Y-100855324D01*
X182193783Y-100993000D01*
X180906217Y-100993000D01*
X181112265Y-100855324D01*
X181367406Y-100473477D01*
X181457000Y-100023059D01*
X181457000Y-99976941D01*
X181367406Y-99526523D01*
X181112265Y-99144676D01*
X180730418Y-98889535D01*
X180280000Y-98799941D01*
X179829582Y-98889535D01*
X179447735Y-99144676D01*
X179192594Y-99526523D01*
X179103000Y-99976941D01*
X179103000Y-100023059D01*
X179192594Y-100473477D01*
X179447735Y-100855324D01*
X179653783Y-100993000D01*
X178366217Y-100993000D01*
X178572265Y-100855324D01*
X178827406Y-100473477D01*
X178917000Y-100023059D01*
X178917000Y-99976941D01*
X178827406Y-99526523D01*
X178572265Y-99144676D01*
X178190418Y-98889535D01*
X177740000Y-98799941D01*
X177289582Y-98889535D01*
X176907735Y-99144676D01*
X176652594Y-99526523D01*
X176563000Y-99976941D01*
X176563000Y-100023059D01*
X176652594Y-100473477D01*
X176907735Y-100855324D01*
X177113783Y-100993000D01*
X175826217Y-100993000D01*
X176032265Y-100855324D01*
X176287406Y-100473477D01*
X176377000Y-100023059D01*
X176377000Y-99976941D01*
X176287406Y-99526523D01*
X176032265Y-99144676D01*
X175650418Y-98889535D01*
X175200000Y-98799941D01*
X174749582Y-98889535D01*
X174367735Y-99144676D01*
X174112594Y-99526523D01*
X174023000Y-99976941D01*
X174023000Y-100023059D01*
X174112594Y-100473477D01*
X174367735Y-100855324D01*
X174573783Y-100993000D01*
X173286217Y-100993000D01*
X173492265Y-100855324D01*
X173747406Y-100473477D01*
X173837000Y-100023059D01*
X173837000Y-99976941D01*
X173747406Y-99526523D01*
X173492265Y-99144676D01*
X173110418Y-98889535D01*
X172660000Y-98799941D01*
X172209582Y-98889535D01*
X171827735Y-99144676D01*
X171572594Y-99526523D01*
X171483000Y-99976941D01*
X171483000Y-100023059D01*
X171572594Y-100473477D01*
X171827735Y-100855324D01*
X172033783Y-100993000D01*
X170746217Y-100993000D01*
X170952265Y-100855324D01*
X171207406Y-100473477D01*
X171297000Y-100023059D01*
X171297000Y-99976941D01*
X171207406Y-99526523D01*
X170952265Y-99144676D01*
X170570418Y-98889535D01*
X170120000Y-98799941D01*
X169669582Y-98889535D01*
X169287735Y-99144676D01*
X169032594Y-99526523D01*
X168943000Y-99976941D01*
X168943000Y-100023059D01*
X169032594Y-100473477D01*
X169287735Y-100855324D01*
X169493783Y-100993000D01*
X168206217Y-100993000D01*
X168412265Y-100855324D01*
X168667406Y-100473477D01*
X168757000Y-100023059D01*
X168757000Y-99976941D01*
X168667406Y-99526523D01*
X168412265Y-99144676D01*
X168030418Y-98889535D01*
X167580000Y-98799941D01*
X167129582Y-98889535D01*
X166747735Y-99144676D01*
X166492594Y-99526523D01*
X166403000Y-99976941D01*
X166403000Y-100023059D01*
X166492594Y-100473477D01*
X166747735Y-100855324D01*
X166953783Y-100993000D01*
X165666217Y-100993000D01*
X165872265Y-100855324D01*
X166127406Y-100473477D01*
X166217000Y-100023059D01*
X166217000Y-99976941D01*
X166127406Y-99526523D01*
X165872265Y-99144676D01*
X165490418Y-98889535D01*
X165040000Y-98799941D01*
X164589582Y-98889535D01*
X164207735Y-99144676D01*
X163952594Y-99526523D01*
X163863000Y-99976941D01*
X163863000Y-100023059D01*
X163952594Y-100473477D01*
X164207735Y-100855324D01*
X164413783Y-100993000D01*
X163126217Y-100993000D01*
X163332265Y-100855324D01*
X163587406Y-100473477D01*
X163677000Y-100023059D01*
X163677000Y-99976941D01*
X163587406Y-99526523D01*
X163332265Y-99144676D01*
X162950418Y-98889535D01*
X162500000Y-98799941D01*
X162049582Y-98889535D01*
X161667735Y-99144676D01*
X161412594Y-99526523D01*
X161323000Y-99976941D01*
X161323000Y-100023059D01*
X161412594Y-100473477D01*
X161667735Y-100855324D01*
X161873783Y-100993000D01*
X160586217Y-100993000D01*
X160792265Y-100855324D01*
X161047406Y-100473477D01*
X161137000Y-100023059D01*
X161137000Y-99976941D01*
X161047406Y-99526523D01*
X160792265Y-99144676D01*
X160410418Y-98889535D01*
X159960000Y-98799941D01*
X159509582Y-98889535D01*
X159127735Y-99144676D01*
X158872594Y-99526523D01*
X158783000Y-99976941D01*
X158783000Y-100023059D01*
X158872594Y-100473477D01*
X159127735Y-100855324D01*
X159333783Y-100993000D01*
X158046217Y-100993000D01*
X158252265Y-100855324D01*
X158507406Y-100473477D01*
X158597000Y-100023059D01*
X158597000Y-99976941D01*
X158507406Y-99526523D01*
X158252265Y-99144676D01*
X157870418Y-98889535D01*
X157420000Y-98799941D01*
X156969582Y-98889535D01*
X156587735Y-99144676D01*
X156332594Y-99526523D01*
X156243000Y-99976941D01*
X156243000Y-100023059D01*
X156332594Y-100473477D01*
X156587735Y-100855324D01*
X156793783Y-100993000D01*
X155506217Y-100993000D01*
X155712265Y-100855324D01*
X155967406Y-100473477D01*
X156057000Y-100023059D01*
X156057000Y-99976941D01*
X155967406Y-99526523D01*
X155712265Y-99144676D01*
X155330418Y-98889535D01*
X154880000Y-98799941D01*
X154429582Y-98889535D01*
X154047735Y-99144676D01*
X153792594Y-99526523D01*
X153703000Y-99976941D01*
X153703000Y-100023059D01*
X153792594Y-100473477D01*
X154047735Y-100855324D01*
X154253783Y-100993000D01*
X153488060Y-100993000D01*
X153497138Y-100979714D01*
X153523406Y-100850000D01*
X153523406Y-99150000D01*
X153500605Y-99028821D01*
X153428988Y-98917526D01*
X153319714Y-98842862D01*
X153190000Y-98816594D01*
X151490000Y-98816594D01*
X151368821Y-98839395D01*
X151257526Y-98911012D01*
X151182862Y-99020286D01*
X151156594Y-99150000D01*
X151156594Y-100850000D01*
X151179395Y-100971179D01*
X151193437Y-100993000D01*
X151050000Y-100993000D01*
X150922949Y-101018272D01*
X150815241Y-101090240D01*
X148362482Y-103543000D01*
X144852181Y-103543000D01*
X145055324Y-103407265D01*
X145310465Y-103025418D01*
X145400059Y-102575000D01*
X145310465Y-102124582D01*
X145055324Y-101742735D01*
X144673477Y-101487594D01*
X144223059Y-101398000D01*
X144176941Y-101398000D01*
X143726523Y-101487594D01*
X143344676Y-101742735D01*
X143232000Y-101911367D01*
X143232000Y-100698633D01*
X143344676Y-100867265D01*
X143726523Y-101122406D01*
X144176941Y-101212000D01*
X144223059Y-101212000D01*
X144673477Y-101122406D01*
X145055324Y-100867265D01*
X145310465Y-100485418D01*
X145400059Y-100035000D01*
X145310465Y-99584582D01*
X145055324Y-99202735D01*
X144673477Y-98947594D01*
X144223059Y-98858000D01*
X144176941Y-98858000D01*
X143726523Y-98947594D01*
X143344676Y-99202735D01*
X143232000Y-99371367D01*
X143232000Y-98158633D01*
X143344676Y-98327265D01*
X143726523Y-98582406D01*
X144176941Y-98672000D01*
X144223059Y-98672000D01*
X144673477Y-98582406D01*
X145055324Y-98327265D01*
X145310465Y-97945418D01*
X145400059Y-97495000D01*
X145310465Y-97044582D01*
X145055324Y-96662735D01*
X144673477Y-96407594D01*
X144223059Y-96318000D01*
X144176941Y-96318000D01*
X143726523Y-96407594D01*
X143344676Y-96662735D01*
X143232000Y-96831367D01*
X143232000Y-95618633D01*
X143344676Y-95787265D01*
X143726523Y-96042406D01*
X144176941Y-96132000D01*
X144223059Y-96132000D01*
X144673477Y-96042406D01*
X145055324Y-95787265D01*
X145310465Y-95405418D01*
X145400059Y-94955000D01*
X145310465Y-94504582D01*
X145055324Y-94122735D01*
X144673477Y-93867594D01*
X144223059Y-93778000D01*
X144176941Y-93778000D01*
X143726523Y-93867594D01*
X143344676Y-94122735D01*
X143232000Y-94291367D01*
X143232000Y-93078633D01*
X143344676Y-93247265D01*
X143726523Y-93502406D01*
X144176941Y-93592000D01*
X144223059Y-93592000D01*
X144673477Y-93502406D01*
X145055324Y-93247265D01*
X145310465Y-92865418D01*
X145400059Y-92415000D01*
X145310465Y-91964582D01*
X145055324Y-91582735D01*
X144673477Y-91327594D01*
X144223059Y-91238000D01*
X144176941Y-91238000D01*
X143726523Y-91327594D01*
X143344676Y-91582735D01*
X143232000Y-91751367D01*
X143232000Y-90538633D01*
X143344676Y-90707265D01*
X143726523Y-90962406D01*
X144176941Y-91052000D01*
X144223059Y-91052000D01*
X144673477Y-90962406D01*
X145055324Y-90707265D01*
X145310465Y-90325418D01*
X145400059Y-89875000D01*
X145310465Y-89424582D01*
X145055324Y-89042735D01*
X144673477Y-88787594D01*
X144223059Y-88698000D01*
X144176941Y-88698000D01*
X143726523Y-88787594D01*
X143344676Y-89042735D01*
X143232000Y-89211367D01*
X143232000Y-87998633D01*
X143344676Y-88167265D01*
X143726523Y-88422406D01*
X144176941Y-88512000D01*
X144223059Y-88512000D01*
X144673477Y-88422406D01*
X145055324Y-88167265D01*
X145310465Y-87785418D01*
X145400059Y-87335000D01*
X145310465Y-86884582D01*
X145055324Y-86502735D01*
X144673477Y-86247594D01*
X144223059Y-86158000D01*
X144176941Y-86158000D01*
X143726523Y-86247594D01*
X143344676Y-86502735D01*
X143232000Y-86671367D01*
X143232000Y-85458633D01*
X143344676Y-85627265D01*
X143726523Y-85882406D01*
X144176941Y-85972000D01*
X144223059Y-85972000D01*
X144673477Y-85882406D01*
X145055324Y-85627265D01*
X145310465Y-85245418D01*
X145400059Y-84795000D01*
X145310465Y-84344582D01*
X145055324Y-83962735D01*
X144673477Y-83707594D01*
X144223059Y-83618000D01*
X144176941Y-83618000D01*
X143726523Y-83707594D01*
X143344676Y-83962735D01*
X143232000Y-84131367D01*
X143232000Y-82918633D01*
X143344676Y-83087265D01*
X143726523Y-83342406D01*
X144176941Y-83432000D01*
X144223059Y-83432000D01*
X144673477Y-83342406D01*
X145055324Y-83087265D01*
X145310465Y-82705418D01*
X145400059Y-82255000D01*
X145310465Y-81804582D01*
X145055324Y-81422735D01*
X144673477Y-81167594D01*
X144574965Y-81147999D01*
X145081358Y-80910183D01*
X145471645Y-80481924D01*
X145641476Y-80071890D01*
X145520155Y-79842000D01*
X144327000Y-79842000D01*
X144327000Y-79862000D01*
X144073000Y-79862000D01*
X144073000Y-79842000D01*
X144053000Y-79842000D01*
X144053000Y-79588000D01*
X144073000Y-79588000D01*
X144073000Y-79568000D01*
X144327000Y-79568000D01*
X144327000Y-79588000D01*
X145520155Y-79588000D01*
X145641476Y-79358110D01*
X145471645Y-78948076D01*
X145081358Y-78519817D01*
X144737657Y-78358406D01*
X145050000Y-78358406D01*
X145171179Y-78335605D01*
X145282474Y-78263988D01*
X145357138Y-78154714D01*
X145383406Y-78025000D01*
X145383406Y-76325000D01*
X145365907Y-76232000D01*
X148437482Y-76232000D01*
X150840241Y-78634760D01*
M02*
